<svg width="20" height="20" viewBox="0 0 20 20" fill="none" xmlns="http://www.w3.org/2000/svg">
<path d="M15.3556 6.11712C14.6196 5.38113 13.4264 5.38113 12.6904 6.11712L6.97913 11.8284C6.6637 12.1438 6.6637 12.6552 6.97913 12.9706C7.29455 13.286 7.80595 13.286 8.12138 12.9706L13.8326 7.25937C13.9378 7.15423 14.1082 7.15423 14.2134 7.25937C14.3185 7.36451 14.3185 7.53498 14.2134 7.64012L8.50213 13.3514C7.97642 13.8771 7.12408 13.8771 6.59838 13.3514C6.07267 12.8257 6.07267 11.9733 6.59838 11.4476L12.3096 5.73637C13.2559 4.7901 14.7901 4.7901 15.7364 5.73637C16.6826 6.68264 16.6826 8.21685 15.7364 9.16312L15.3556 8.78237C16.0916 8.04638 16.0916 6.85311 15.3556 6.11712Z" fill="#575757"/>
<path d="M10.2112 5.55035C10.3163 5.44521 10.3778 5.22205 10.2727 5.11691C10.1675 5.01177 9.93554 5.06446 9.8304 5.1696L5.07538 9.92462C3.70854 11.2915 3.70854 13.5075 5.07538 14.8744C6.44221 16.2412 8.65829 16.2412 10.0251 14.8744L15.7364 9.16312L15.3556 8.78237L9.64438 14.4936C8.48782 15.6502 6.61268 15.6502 5.45613 14.4936C4.29958 13.3371 4.29958 11.4619 5.45613 10.3054L10.2112 5.55035Z" fill="#575757"/>
</svg>
