<svg width="20" height="20" viewBox="0 0 20 20" fill="none" xmlns="http://www.w3.org/2000/svg">
<mask id="path-1-inside-1_269_1984" fill="white">
<path d="M3 4.66667C3 3.74619 3.74619 3 4.66667 3H16.3333C17.2538 3 18 3.74619 18 4.66667V16.3333C18 17.2538 17.2538 18 16.3333 18H4.66667C3.74619 18 3 17.2538 3 16.3333V4.66667Z"/>
</mask>
<path d="M4.66667 4H16.3333V2H4.66667V4ZM17 4.66667V16.3333H19V4.66667H17ZM16.3333 17H4.66667V19H16.3333V17ZM4 16.3333V4.66667H2V16.3333H4ZM4.66667 17C4.29848 17 4 16.7015 4 16.3333H2C2 17.8061 3.19391 19 4.66667 19V17ZM17 16.3333C17 16.7015 16.7015 17 16.3333 17V19C17.8061 19 19 17.8061 19 16.3333H17ZM16.3333 4C16.7015 4 17 4.29848 17 4.66667H19C19 3.19391 17.8061 2 16.3333 2V4ZM4.66667 2C3.19391 2 2 3.19391 2 4.66667H4C4 4.29848 4.29848 4 4.66667 4V2Z" fill="#575757" mask="url(#path-1-inside-1_269_1984)"/>
</svg>
