<svg width="20" height="20" viewBox="0 0 20 20" fill="none" xmlns="http://www.w3.org/2000/svg">
<path fill-rule="evenodd" clip-rule="evenodd" d="M9.00003 10C10.6569 10 12 8.65685 12 7C12 5.34315 10.6569 4 9.00003 4C7.34318 4 6.00003 5.34315 6.00003 7C6.00003 8.65685 7.34318 10 9.00003 10ZM9.00003 9.25C10.2427 9.25 11.25 8.24264 11.25 7C11.25 5.75736 10.2427 4.75 9.00003 4.75C7.75739 4.75 6.75003 5.75736 6.75003 7C6.75003 8.24264 7.75739 9.25 9.00003 9.25Z" fill="black"/>
<path fill-rule="evenodd" clip-rule="evenodd" d="M17.9999 16.4516C17.9959 14.3202 16.0904 12.6667 13.8333 12.6667C13.3853 12.6667 13.0721 12.7452 12.8621 12.8334C12.8518 12.8377 12.8418 12.842 12.832 12.8464C11.7785 12.0066 10.3631 11.5 8.83333 11.5C5.67272 11.5 3 13.6626 3 16.4583C3 16.6194 3.12437 16.75 3.27778 16.75H17.7222C17.8756 16.75 18 16.6194 18 16.4583L17.9999 16.4516ZM14.0993 16.1667C13.919 13.9357 11.6858 12.0833 8.83333 12.0833C5.9809 12.0833 3.74769 13.9357 3.56732 16.1667H14.0993ZM14.6569 16.1667H17.4294C17.2644 14.5643 15.754 13.25 13.8333 13.25C13.6263 13.25 13.4607 13.2694 13.3304 13.2963C14.0944 14.0782 14.5831 15.0676 14.6569 16.1667Z" fill="black"/>
<path fill-rule="evenodd" clip-rule="evenodd" d="M16.5 9.25C16.5 10.4926 15.4926 11.5 14.25 11.5C13.0074 11.5 12 10.4926 12 9.25C12 8.00736 13.0074 7 14.25 7C15.4926 7 16.5 8.00736 16.5 9.25ZM15.75 9.25C15.75 10.0784 15.0784 10.75 14.25 10.75C13.4216 10.75 12.75 10.0784 12.75 9.25C12.75 8.42157 13.4216 7.75 14.25 7.75C15.0784 7.75 15.75 8.42157 15.75 9.25Z" fill="black"/>
</svg>
