<svg width="20" height="20" viewBox="0 0 20 20" fill="none" xmlns="http://www.w3.org/2000/svg">
<path d="M10.3771 14.8536L13.7712 11.6716C13.9795 11.4763 13.9795 11.1597 13.7712 10.9645C13.5629 10.7692 13.2252 10.7692 13.0169 10.9645L10.5333 13.2929V3.5C10.5333 3.22386 10.2945 3 10 3C9.70545 3 9.46667 3.22386 9.46667 3.5V13.2929L6.98305 10.9645C6.77477 10.7692 6.43709 10.7692 6.22881 10.9645C6.02054 11.1597 6.02054 11.4763 6.22881 11.6716L9.62288 14.8536C9.83116 15.0488 10.1688 15.0488 10.3771 14.8536Z" fill="black"/>
<path d="M3.00301 14.2629C2.86336 14.0198 2.53992 13.9288 2.28058 14.0598C2.02124 14.1907 1.92421 14.4939 2.06385 14.7371L3.21255 16.7371C3.30557 16.899 3.48593 17 3.68213 17H16.3179C16.5141 17 16.6944 16.899 16.7874 16.7371L17.9361 14.7371C18.0758 14.4939 17.9788 14.1907 17.7194 14.0598C17.4601 13.9288 17.1366 14.0198 16.997 14.2629L15.9993 16H4.00069L3.00301 14.2629Z" fill="black"/>
</svg>
