<svg width="20" height="20" viewBox="0 0 20 20" fill="none" xmlns="http://www.w3.org/2000/svg">
<path d="M6 5.5C6.41418 5.5 6.75 5.16421 6.75 4.75C6.75 4.33579 6.41418 4 6 4C5.58582 4 5.25 4.33579 5.25 4.75C5.25 5.16421 5.58582 5.5 6 5.5Z" fill="black"/>
<path d="M9.75 4.75C9.75 5.16421 9.41418 5.5 9 5.5C8.58582 5.5 8.25 5.16421 8.25 4.75C8.25 4.33579 8.58582 4 9 4C9.41418 4 9.75 4.33579 9.75 4.75Z" fill="black"/>
<path d="M12 5.5C12.4142 5.5 12.75 5.16421 12.75 4.75C12.75 4.33579 12.4142 4 12 4C11.5858 4 11.25 4.33579 11.25 4.75C11.25 5.16421 11.5858 5.5 12 5.5Z" fill="black"/>
<path fill-rule="evenodd" clip-rule="evenodd" d="M4.5 1C3.67163 1 3 1.67156 3 2.5V17.5C3 18.3284 3.67163 19 4.5 19H16.5C17.3284 19 18 18.3284 18 17.5V5.37132C18 4.9735 17.8418 4.59196 17.5605 4.31066L14.6895 1.43934C14.4082 1.15804 14.0266 1 13.6285 1H4.5ZM13.6285 1.75H4.5C4.08582 1.75 3.75 2.08579 3.75 2.5V17.5C3.75 17.9142 4.08582 18.25 4.5 18.25H16.5C16.9142 18.25 17.25 17.9142 17.25 17.5V5.37132C17.25 5.30119 17.2401 5.23209 17.2214 5.16581L17.2083 5.125H15C14.3785 5.125 13.875 4.62132 13.875 4V1.79161C13.8365 1.77822 13.797 1.76794 13.7563 1.76096C13.7292 1.75625 13.7018 1.75304 13.6736 1.75137L13.6285 1.75ZM14.625 2.43552L16.5645 4.375H15C14.7927 4.375 14.625 4.20712 14.625 4V2.43552Z" fill="black"/>
</svg>
