<svg width="20" height="20" viewBox="0 0 20 20" fill="none" xmlns="http://www.w3.org/2000/svg">
<path fill-rule="evenodd" clip-rule="evenodd" d="M8.82245 6.8173C9.8206 6.0609 11.1794 6.0609 12.1776 6.8173C12.9042 7.36794 13.3333 8.24244 13.3333 9.17245V9.85698C13.4371 9.9782 13.5 10.1374 13.5 10.3118V13.0624C13.5 13.4421 13.2015 13.75 12.8333 13.75H8.16667C7.79848 13.75 7.5 13.4421 7.5 13.0624V10.3118C7.5 10.1374 7.56294 9.9782 7.66667 9.85698V9.17245C7.66667 8.24243 8.09582 7.36794 8.82245 6.8173ZM12.3333 9.17245V9.62418H8.66667V9.17245C8.66667 8.57068 8.94435 8.00483 9.41453 7.64853C10.0604 7.15909 10.9396 7.15909 11.5855 7.64853C12.0556 8.00483 12.3333 8.57068 12.3333 9.17245Z" fill="black"/>
<path fill-rule="evenodd" clip-rule="evenodd" d="M4.5 1C3.67157 1 3 1.67157 3 2.5V17.5C3 18.3284 3.67157 19 4.5 19H16.5C17.3284 19 18 18.3284 18 17.5V5.37132C18 4.9735 17.842 4.59197 17.5607 4.31066L14.6893 1.43934C14.408 1.15804 14.0265 1 13.6287 1H4.5ZM13.6287 1.75H4.5C4.08579 1.75 3.75 2.08579 3.75 2.5V17.5C3.75 17.9142 4.08579 18.25 4.5 18.25H16.5C16.9142 18.25 17.25 17.9142 17.25 17.5V5.37132C17.25 5.28666 17.2357 5.20347 17.2084 5.125H15C14.3787 5.125 13.875 4.62132 13.875 4V1.7916C13.7965 1.76431 13.7133 1.75 13.6287 1.75ZM14.625 2.43566L16.5643 4.375H15C14.7929 4.375 14.625 4.20711 14.625 4V2.43566Z" fill="black"/>
</svg>
