<svg width="20" height="20" viewBox="0 0 20 20" fill="none" xmlns="http://www.w3.org/2000/svg">
<path d="M6 4.375C6 4.16789 6.16789 4 6.375 4H14.625C14.8321 4 15 4.16789 15 4.375C15 4.58211 14.8321 4.75 14.625 4.75H6.375C6.16789 4.75 6 4.58211 6 4.375Z" fill="black"/>
<path d="M6 7.375C6 7.16789 6.16789 7 6.375 7H14.625C14.8321 7 15 7.16789 15 7.375C15 7.58211 14.8321 7.75 14.625 7.75H6.375C6.16789 7.75 6 7.58211 6 7.375Z" fill="black"/>
<path d="M6.375 10C6.16789 10 6 10.1679 6 10.375C6 10.5821 6.16789 10.75 6.375 10.75H14.625C14.8321 10.75 15 10.5821 15 10.375C15 10.1679 14.8321 10 14.625 10H6.375Z" fill="black"/>
<path fill-rule="evenodd" clip-rule="evenodd" d="M6 1C4.34315 1 3 2.34315 3 4V16C3 17.6569 4.34315 19 6 19H15C16.6569 19 18 17.6569 18 16V4C18 2.34315 16.6569 1 15 1H6ZM15 1.75H6C4.75736 1.75 3.75 2.75736 3.75 4V12.625H7C7.40569 12.625 7.80044 12.7566 8.125 13L9.80025 14.2564C10.209 14.563 10.773 14.5556 11.1735 14.2385L12.7002 13.0299C13.0314 12.7677 13.4415 12.625 13.864 12.625H17.25V4C17.25 2.75736 16.2426 1.75 15 1.75ZM17.25 13.375H13.864C13.6105 13.375 13.3644 13.4606 13.1657 13.6179L11.6391 14.8265C10.9714 15.3551 10.0315 15.3674 9.35025 14.8564L7.675 13.6C7.48027 13.4539 7.24342 13.375 7 13.375H3.75V16C3.75 17.2426 4.75736 18.25 6 18.25H15C16.2426 18.25 17.25 17.2426 17.25 16V13.375Z" fill="black"/>
</svg>
