<svg width="20" height="20" viewBox="0 0 20 20" fill="none" xmlns="http://www.w3.org/2000/svg">
  <path
    d="M13 4.5C13.2761 4.5 13.5 4.72386 13.5 5C13.5 5.27614 13.2761 5.5 13 5.5V4.5ZM13 14.5C13.2761 14.5 13.5 14.7239 13.5 15C13.5 15.2761 13.2761 15.5 13 15.5V14.5ZM13 5.5H7V4.5H13V5.5ZM5.5 7V13H4.5V7H5.5ZM7 14.5H13V15.5H7V14.5ZM5.5 13C5.5 13.8284 6.17157 14.5 7 14.5V15.5C5.61929 15.5 4.5 14.3807 4.5 13H5.5ZM7 5.5C6.17157 5.5 5.5 6.17157 5.5 7H4.5C4.5 5.61929 5.61929 4.5 7 4.5V5.5Z"
    fill="#575757" />
  <path
    d="M15.3536 10.3536C15.5488 10.1583 15.5488 9.84171 15.3536 9.64645L12.1716 6.46447C11.9763 6.2692 11.6597 6.2692 11.4645 6.46447C11.2692 6.65973 11.2692 6.97631 11.4645 7.17157L14.2929 10L11.4645 12.8284C11.2692 13.0237 11.2692 13.3403 11.4645 13.5355C11.6597 13.7308 11.9763 13.7308 12.1716 13.5355L15.3536 10.3536ZM7 10.5L15 10.5V9.5L7 9.5V10.5Z"
    fill="#575757" />
</svg>
