<svg width="20" height="20" viewBox="0 0 20 20" fill="none" xmlns="http://www.w3.org/2000/svg">
<path d="M7.98889 2.88226C8.1247 2.7784 8.3115 2.77235 8.45375 2.86718L13.9781 6.55009L14.4219 5.88445L8.89751 2.20154C8.47076 1.91704 7.91036 1.93521 7.50293 2.24677L1.44315 6.88072H1.36172C1.22773 6.88072 1.10664 6.95275 1.04453 7.06393H1V15.5192C1 16.4921 1.81016 17.2807 2.80938 17.2807H14.3906C15.3898 17.2807 16.2 16.4921 16.2 15.5192V10.5651C15.9473 10.5345 15.7043 10.472 15.4762 10.3821V15.5192C15.4762 16.1029 14.9902 16.5761 14.3906 16.5761H2.80938C2.20977 16.5761 1.72383 16.1029 1.72383 15.5192V7.8692L8.40781 11.9425C8.52539 12.0141 8.67461 12.0141 8.79219 11.9425L13.8832 8.83998C13.7883 8.61527 13.7223 8.37601 13.6898 8.12655L8.6 11.2282L2.62227 7.58534H13.6727C13.6887 7.34066 13.7371 7.10448 13.8133 6.88072H2.76013L7.98889 2.88226Z" fill="black"/>
<path d="M19 7.81727C19 9.14276 17.9254 10.2173 16.6 10.2173C15.2746 10.2173 14.2 9.14276 14.2 7.81727C14.2 6.49178 15.2746 5.41727 16.6 5.41727C17.9254 5.41727 19 6.49178 19 7.81727Z" fill="black"/>
</svg>
