<svg width="20" height="20" viewBox="0 0 20 20" fill="none" xmlns="http://www.w3.org/2000/svg">
<mask id="path-1-inside-1_363_578" fill="white">
<path d="M9.87381 3.38926C10.13 2.87025 10.87 2.87025 11.1262 3.38926L12.9028 6.98916C13.0046 7.19525 13.2012 7.33811 13.4286 7.37116L17.4013 7.94843C17.9741 8.03165 18.2028 8.73552 17.7884 9.13951L14.9137 11.9416C14.7491 12.1021 14.674 12.3332 14.7128 12.5597L15.3915 16.5164C15.4893 17.0869 14.8906 17.5219 14.3783 17.2525L10.8249 15.3845C10.6215 15.2775 10.3785 15.2775 10.1751 15.3845L6.62174 17.2525C6.10945 17.5219 5.5107 17.0869 5.60854 16.5164L6.28716 12.5597C6.32601 12.3332 6.25091 12.1021 6.08633 11.9416L3.21164 9.13952C2.79719 8.73552 3.02589 8.03165 3.59865 7.94843L7.57137 7.37116C7.79882 7.33811 7.99543 7.19525 8.09715 6.98916L9.87381 3.38926Z"/>
</mask>
<path d="M9.87381 3.38926C10.13 2.87025 10.87 2.87025 11.1262 3.38926L12.9028 6.98916C13.0046 7.19525 13.2012 7.33811 13.4286 7.37116L17.4013 7.94843C17.9741 8.03165 18.2028 8.73552 17.7884 9.13951L14.9137 11.9416C14.7491 12.1021 14.674 12.3332 14.7128 12.5597L15.3915 16.5164C15.4893 17.0869 14.8906 17.5219 14.3783 17.2525L10.8249 15.3845C10.6215 15.2775 10.3785 15.2775 10.1751 15.3845L6.62174 17.2525C6.10945 17.5219 5.5107 17.0869 5.60854 16.5164L6.28716 12.5597C6.32601 12.3332 6.25091 12.1021 6.08633 11.9416L3.21164 9.13952C2.79719 8.73552 3.02589 8.03165 3.59865 7.94843L7.57137 7.37116C7.79882 7.33811 7.99543 7.19525 8.09715 6.98916L9.87381 3.38926Z" fill="#575757"/>
<path d="M7.57137 7.37116L7.71517 8.36076L7.57137 7.37116ZM8.09715 6.98916L7.20041 6.54659L8.09715 6.98916ZM3.21164 9.13952L3.90965 8.42343L3.21164 9.13952ZM3.59865 7.94843L3.45485 6.95882H3.45485L3.59865 7.94843ZM6.28716 12.5597L7.27277 12.7288L6.28716 12.5597ZM6.08633 11.9416L5.38832 12.6577L6.08633 11.9416ZM6.62174 17.2525L7.08708 18.1377V18.1377L6.62174 17.2525ZM5.60854 16.5164L4.62293 16.3474L5.60854 16.5164ZM10.8249 15.3845L10.3596 16.2696L10.8249 15.3845ZM10.1751 15.3845L9.70971 14.4993H9.70971L10.1751 15.3845ZM15.3915 16.5164L14.4059 16.6854L15.3915 16.5164ZM14.3783 17.2525L14.8436 16.3674L14.3783 17.2525ZM14.9137 11.9416L14.2157 11.2256L14.9137 11.9416ZM14.7128 12.5597L15.6984 12.3907L14.7128 12.5597ZM17.4013 7.94843L17.5451 6.95882L17.4013 7.94843ZM17.7884 9.13951L18.4864 9.8556L17.7884 9.13951ZM12.9028 6.98916L12.0061 7.43172L12.9028 6.98916ZM13.4286 7.37116L13.2848 8.36076L13.4286 7.37116ZM11.1262 3.38926L12.0229 2.94669V2.94669L11.1262 3.38926ZM9.87381 3.38926L10.7705 3.83182L9.87381 3.38926ZM10.2295 3.83182L12.0061 7.43172L13.7996 6.54659L12.0229 2.94669L10.2295 3.83182ZM13.2848 8.36076L17.2576 8.93803L17.5451 6.95882L13.5724 6.38155L13.2848 8.36076ZM17.0903 8.42343L14.2157 11.2256L15.6117 12.6577L18.4864 9.8556L17.0903 8.42343ZM13.7272 12.7288L14.4059 16.6854L16.3771 16.3474L15.6984 12.3907L13.7272 12.7288ZM14.8436 16.3674L11.2903 14.4993L10.3596 16.2696L13.9129 18.1377L14.8436 16.3674ZM9.70971 14.4993L6.1564 16.3674L7.08708 18.1377L10.6404 16.2696L9.70971 14.4993ZM6.59415 16.6855L7.27277 12.7288L5.30155 12.3907L4.62293 16.3474L6.59415 16.6855ZM6.78434 11.2256L3.90965 8.42343L2.51363 9.8556L5.38832 12.6577L6.78434 11.2256ZM3.74245 8.93803L7.71517 8.36076L7.42758 6.38155L3.45485 6.95882L3.74245 8.93803ZM8.99389 7.43172L10.7705 3.83182L8.97707 2.94669L7.20041 6.54659L8.99389 7.43172ZM7.71517 8.36076C8.26833 8.28038 8.74651 7.93296 8.99389 7.43172L7.20041 6.54659C7.24436 6.45755 7.32931 6.39583 7.42758 6.38155L7.71517 8.36076ZM3.90965 8.42343C4.08871 8.59797 3.98991 8.90207 3.74245 8.93803L3.45485 6.95882C2.06187 7.16123 1.50566 8.87308 2.51363 9.8556L3.90965 8.42343ZM7.27277 12.7288C7.36726 12.1779 7.18461 11.6157 6.78434 11.2256L5.38832 12.6577C5.31721 12.5884 5.28477 12.4886 5.30155 12.3907L7.27277 12.7288ZM6.1564 16.3674C6.37773 16.251 6.63642 16.439 6.59415 16.6855L4.62293 16.3474C4.38498 17.7347 5.84116 18.7927 7.08708 18.1377L6.1564 16.3674ZM11.2903 14.4993C10.7955 14.2392 10.2045 14.2392 9.70971 14.4993L10.6404 16.2696C10.5525 16.3158 10.4475 16.3158 10.3596 16.2696L11.2903 14.4993ZM14.4059 16.6854C14.3636 16.439 14.6223 16.251 14.8436 16.3674L13.9129 18.1377C15.1588 18.7927 16.615 17.7347 16.3771 16.3474L14.4059 16.6854ZM14.2157 11.2256C13.8154 11.6157 13.6327 12.1779 13.7272 12.7288L15.6984 12.3907C15.7152 12.4886 15.6828 12.5884 15.6117 12.6577L14.2157 11.2256ZM17.2576 8.93803C17.0101 8.90208 16.9113 8.59798 17.0903 8.42343L18.4864 9.8556C19.4943 8.87307 18.9381 7.16123 17.5451 6.95882L17.2576 8.93803ZM12.0061 7.43172C12.2535 7.93296 12.7317 8.28038 13.2848 8.36076L13.5724 6.38155C13.6707 6.39583 13.7556 6.45755 13.7996 6.54659L12.0061 7.43172ZM12.0229 2.94669C11.4 1.68443 9.60003 1.68444 8.97707 2.94669L10.7705 3.83182C10.6599 4.05606 10.3401 4.05606 10.2295 3.83182L12.0229 2.94669Z" fill="#575757" mask="url(#path-1-inside-1_363_578)"/>
</svg>
