<svg width="20" height="20" viewBox="0 0 20 20" fill="none" xmlns="http://www.w3.org/2000/svg">
<path d="M6 11.125C6 10.9179 6.16789 10.75 6.375 10.75H14.625C14.8321 10.75 15 10.9179 15 11.125C15 11.3321 14.8321 11.5 14.625 11.5H6.375C6.16789 11.5 6 11.3321 6 11.125Z" fill="black"/>
<path d="M6.375 8.5C6.16789 8.5 6 8.66789 6 8.875C6 9.08211 6.16789 9.25 6.375 9.25H14.625C14.8321 9.25 15 9.08211 15 8.875C15 8.66789 14.8321 8.5 14.625 8.5H6.375Z" fill="black"/>
<path d="M9.30091 4.22643C9.06505 3.93161 8.6553 3.84161 8.31761 4.01046C8.04635 4.14609 7.875 4.42334 7.875 4.72661V7C7.875 7.20711 7.70711 7.375 7.5 7.375C7.29289 7.375 7.125 7.20711 7.125 7V4.72661C7.125 4.13926 7.45685 3.60231 7.9822 3.33964C8.63621 3.01263 9.42978 3.18693 9.88656 3.75791L10.5 4.52471L11.1134 3.75791C11.5702 3.18693 12.3638 3.01263 13.0178 3.33964C13.5432 3.60231 13.875 4.13926 13.875 4.72661V7C13.875 7.20711 13.7071 7.375 13.5 7.375C13.2929 7.375 13.125 7.20711 13.125 7V4.72661C13.125 4.42334 12.9537 4.14609 12.6824 4.01046C12.3447 3.84161 11.9349 3.93161 11.6991 4.22643L10.9802 5.125L12.2928 6.76574C12.4222 6.92746 12.396 7.16345 12.2343 7.29283C12.0725 7.4222 11.8366 7.39598 11.7072 7.23426L10.5 5.72529L9.29283 7.23426C9.16345 7.39598 8.92746 7.4222 8.76574 7.29283C8.60402 7.16345 8.5778 6.92746 8.70717 6.76574L10.0198 5.125L9.30091 4.22643Z" fill="black"/>
<path fill-rule="evenodd" clip-rule="evenodd" d="M3 4C3 2.34315 4.34315 1 6 1H15C16.6569 1 18 2.34315 18 4V16C18 17.6569 16.6569 19 15 19H6C4.34315 19 3 17.6569 3 16V4ZM6 1.75H15C16.2426 1.75 17.25 2.75736 17.25 4V12.625H13.864C13.4415 12.625 13.0314 12.7677 12.7002 13.0299L11.1735 14.2385C10.773 14.5556 10.209 14.563 9.80025 14.2564L8.125 13C7.80044 12.7566 7.40569 12.625 7 12.625H3.75V4C3.75 2.75736 4.75736 1.75 6 1.75ZM3.75 13.375V16C3.75 17.2426 4.75736 18.25 6 18.25H15C16.2426 18.25 17.25 17.2426 17.25 16V13.375H13.864C13.6105 13.375 13.3644 13.4606 13.1657 13.6179L11.6391 14.8265C10.9714 15.3551 10.0315 15.3674 9.35025 14.8564L7.675 13.6C7.48027 13.4539 7.24342 13.375 7 13.375H3.75Z" fill="black"/>
</svg>
