<svg width="20" height="20" viewBox="0 0 20 20" fill="none" xmlns="http://www.w3.org/2000/svg">
<path fill-rule="evenodd" clip-rule="evenodd" d="M10.6891 2.05415C10.5734 1.98195 10.4266 1.98195 10.3109 2.05415L3.16808 6.51129C3.11517 6.54431 3.0728 6.58992 3.04383 6.64286H3V15.2143C3 16.2005 3.79949 17 4.78571 17H16.2143C17.2005 17 18 16.2005 18 15.2143V6.64286H17.9562C17.9272 6.58992 17.8848 6.54431 17.8319 6.51129L10.6891 2.05415ZM17.2857 7.43215L10.6783 11.238C10.5679 11.3016 10.4321 11.3016 10.3217 11.238L3.71429 7.43215V15.2143C3.71429 15.806 4.19398 16.2857 4.78571 16.2857H16.2143C16.806 16.2857 17.2857 15.806 17.2857 15.2143V7.43215ZM10.5 10.5164L4.05141 6.80203L10.5 2.77811L16.9486 6.80203L10.5 10.5164Z" fill="black"/>
</svg>
