<svg width="20" height="20" viewBox="0 0 20 20" fill="none" xmlns="http://www.w3.org/2000/svg">
<path d="M15.931 1.52427C15.931 1.23472 15.6995 1 15.4138 1C15.1281 1 14.8966 1.23472 14.8966 1.52427V3.09709H13.3448C13.0592 3.09709 12.8276 3.33181 12.8276 3.62136C12.8276 3.91091 13.0592 4.14563 13.3448 4.14563H14.8966V5.71845C14.8966 6.00799 15.1281 6.24272 15.4138 6.24272C15.6995 6.24272 15.931 6.00799 15.931 5.71845V4.14563H17.4828C17.7684 4.14563 18 3.91091 18 3.62136C18 3.33181 17.7684 3.09709 17.4828 3.09709H15.931V1.52427Z" fill="black"/>
<path d="M5.75862 6.41748C6.13951 6.41748 6.44828 6.10451 6.44828 5.71845C6.44828 5.33238 6.13951 5.01942 5.75862 5.01942C5.37773 5.01942 5.06897 5.33238 5.06897 5.71845C5.06897 6.10451 5.37773 6.41748 5.75862 6.41748Z" fill="black"/>
<path d="M9.2069 5.71845C9.2069 6.10451 8.89813 6.41748 8.51724 6.41748C8.13636 6.41748 7.82759 6.10451 7.82759 5.71845C7.82759 5.33238 8.13636 5.01942 8.51724 5.01942C8.89813 5.01942 9.2069 5.33238 9.2069 5.71845Z" fill="black"/>
<path fill-rule="evenodd" clip-rule="evenodd" d="M4.37931 2.2233C3.61754 2.2233 3 2.84923 3 3.62136V17.6019C3 18.3741 3.61754 19 4.37931 19H15.4138C16.1756 19 16.7931 18.3741 16.7931 17.6019V9.09366C16.7931 8.72287 16.6478 8.36727 16.3891 8.10508L10.9902 2.63278C10.7315 2.3706 10.3807 2.2233 10.0149 2.2233H4.37931ZM10.0149 2.92233H4.37931C3.99842 2.92233 3.68966 3.2353 3.68966 3.62136V17.6019C3.68966 17.988 3.99842 18.301 4.37931 18.301H15.4138C15.7947 18.301 16.1034 17.988 16.1034 17.6019V9.09366C16.1034 9.01475 16.0903 8.93722 16.0652 8.86408H11.2759C10.7045 8.86408 10.2414 8.39463 10.2414 7.81553V2.96111C10.1692 2.93567 10.0927 2.92233 10.0149 2.92233ZM10.931 3.56139L15.473 8.16505H11.2759C11.0854 8.16505 10.931 8.00857 10.931 7.81553V3.56139Z" fill="black"/>
</svg>
