<svg width="20" height="20" viewBox="0 0 20 20" fill="none" xmlns="http://www.w3.org/2000/svg">
<path d="M5.59709 10.3008L9.23044 13.8229C9.4672 14.0524 9.84983 14.0294 10.0575 13.7733L15.4584 7.10983C15.5753 6.96549 15.4726 6.75 15.2868 6.75C15.2295 6.75 15.1743 6.77233 15.1331 6.81226L9.5952 12.1807C9.32302 12.4445 8.89676 12.4638 8.60188 12.2256L5.85648 10.0078C5.82164 9.97964 5.7782 9.96429 5.73341 9.96429C5.55746 9.96429 5.47076 10.1783 5.59709 10.3008Z" fill="#575757"/>
<path fill-rule="evenodd" clip-rule="evenodd" d="M3 4.5C3 3.67157 3.67157 3 4.5 3H16.5C17.3284 3 18 3.67157 18 4.5V16.5C18 17.3284 17.3284 18 16.5 18H4.5C3.67157 18 3 17.3284 3 16.5V4.5ZM4.5 3.75H16.5C16.9142 3.75 17.25 4.08579 17.25 4.5V16.5C17.25 16.9142 16.9142 17.25 16.5 17.25H4.5C4.08579 17.25 3.75 16.9142 3.75 16.5V4.5C3.75 4.08579 4.08579 3.75 4.5 3.75Z" fill="#575757"/>
</svg>
