<svg width="20" height="20" viewBox="0 0 20 20" fill="none" xmlns="http://www.w3.org/2000/svg">
<path d="M8.34699 12.1223C8.20044 12.2689 8.20044 12.5065 8.34699 12.653C8.49354 12.7996 8.73114 12.7996 8.87769 12.653L14.7153 6.81537C14.8619 6.66882 14.8619 6.43122 14.7153 6.28468C14.5688 6.13813 14.3312 6.13813 14.1846 6.28468L8.34699 12.1223Z" fill="black"/>
<path fill-rule="evenodd" clip-rule="evenodd" d="M7.24008 14.8857C6.61833 14.8857 6.1143 14.3817 6.1143 13.7599V11.7901C6.1143 11.648 6.034 11.518 5.90687 11.4545L4.3079 10.655C4.19967 10.6009 4.10088 10.5297 4.01531 10.4441L3.33012 9.7589C2.75246 9.18125 2.96307 8.19999 3.7269 7.91026L16.4724 3.07578C17.3798 2.73157 18.2684 3.62017 17.9242 4.52763L13.0897 17.2731C12.8 18.0369 11.8187 18.2475 11.2411 17.6699L10.5559 16.9847C10.4703 16.8991 10.3991 16.8003 10.345 16.6921L9.54553 15.0931C9.48196 14.966 9.35203 14.8857 9.20989 14.8857H7.24008ZM6.86482 13.7599C6.86482 13.9672 7.03283 14.1352 7.24008 14.1352L9.20989 14.1352C9.6363 14.1352 10.0261 14.3761 10.2168 14.7575L11.0163 16.3565C11.0343 16.3925 11.0581 16.4255 11.0866 16.454L11.7718 17.1392C11.9643 17.3317 12.2914 17.2615 12.388 17.0069L17.2225 4.26146C17.3372 3.95898 17.041 3.66277 16.7385 3.77751L3.99307 8.61199C3.73846 8.70857 3.66826 9.03566 3.86081 9.22821L4.54601 9.91341C4.57453 9.94193 4.60746 9.96566 4.64354 9.9837L6.24251 10.7832C6.6239 10.9739 6.86482 11.3637 6.86482 11.7901V13.7599Z" fill="black"/>
</svg>
