<svg width="20" height="20" viewBox="0 0 20 20" fill="none" xmlns="http://www.w3.org/2000/svg">
<path fill-rule="evenodd" clip-rule="evenodd" d="M14.47 10.2725C14.47 12.465 12.6926 14.2424 10.5 14.2424C8.30748 14.2424 6.53007 12.465 6.53007 10.2725C6.53007 8.07991 8.30748 6.3025 10.5 6.3025C12.6926 6.3025 14.47 8.07991 14.47 10.2725ZM13.4775 10.2725C13.4775 11.9169 12.1445 13.25 10.5 13.25C8.85562 13.25 7.52256 11.9169 7.52256 10.2725C7.52256 8.62805 8.85562 7.29499 10.5 7.29499C12.1445 7.29499 13.4775 8.62805 13.4775 10.2725Z" fill="black"/>
<path fill-rule="evenodd" clip-rule="evenodd" d="M8.24907 3.46753C9.11184 1.51082 11.8882 1.51082 12.7509 3.46753C13.1835 4.44866 14.2018 5.03656 15.2678 4.92064C17.3937 4.68946 18.7819 7.09383 17.5187 8.81936C16.8853 9.68457 16.8853 10.8604 17.5187 11.7256C18.7819 13.4511 17.3937 15.8555 15.2678 15.6243C14.2018 15.5084 13.1835 16.0963 12.7509 17.0774C11.8882 19.0341 9.11184 19.0341 8.24907 17.0774C7.81647 16.0963 6.7982 15.5084 5.73221 15.6243C3.60627 15.8555 2.21811 13.4511 3.48128 11.7256C4.11466 10.8604 4.11466 9.68457 3.48128 8.81936C2.21811 7.09383 3.60627 4.68946 5.73221 4.92064C6.7982 5.03656 7.81647 4.44866 8.24907 3.46753ZM5.62492 5.90732C7.12098 6.07 8.55007 5.24491 9.15721 3.86795C9.67189 2.70068 11.3281 2.70068 11.8428 3.86795C12.4499 5.24491 13.879 6.07 15.3751 5.90732C16.6433 5.76941 17.4714 7.20374 16.7179 8.2331C15.829 9.44738 15.829 11.0976 16.7179 12.3118C17.4714 13.3412 16.6433 14.7755 15.3751 14.6376C13.879 14.4749 12.4499 15.3 11.8428 16.677C11.3281 17.8443 9.67189 17.8443 9.15721 16.677C8.55007 15.3 7.12098 14.4749 5.62492 14.6376C4.35669 14.7755 3.52858 13.3412 4.28213 12.3118C5.17104 11.0976 5.17104 9.44738 4.28213 8.2331C3.52858 7.20374 4.35669 5.76941 5.62492 5.90732Z" fill="black"/>
</svg>
