<svg width="20" height="20" viewBox="0 0 20 20" fill="none" xmlns="http://www.w3.org/2000/svg">
  <path
    d="M6.98059 10.9806L9.43643 13.4364C9.60321 13.6032 9.87825 13.5868 10.024 13.4013L13.6821 8.74545C13.7604 8.64591 13.6894 8.5 13.5628 8.5C13.5226 8.5 13.484 8.51598 13.4556 8.54444L9.85931 12.1407C9.58502 12.415 9.14683 12.4349 8.84884 12.1865L7.16257 10.7813C7.13829 10.7611 7.1077 10.75 7.0761 10.75C6.95576 10.75 6.89549 10.8955 6.98059 10.9806Z"
    fill="black" />
  <path fill-rule="evenodd" clip-rule="evenodd"
    d="M10.5 16C13.6066 16 16.125 13.4816 16.125 10.375C16.125 7.2684 13.6066 4.75 10.5 4.75C7.3934 4.75 4.875 7.2684 4.875 10.375C4.875 13.4816 7.3934 16 10.5 16ZM10.5 15.25C13.1924 15.25 15.375 13.0674 15.375 10.375C15.375 7.68261 13.1924 5.5 10.5 5.5C7.80761 5.5 5.625 7.68261 5.625 10.375C5.625 13.0674 7.80761 15.25 10.5 15.25Z"
    fill="black" />
  <path fill-rule="evenodd" clip-rule="evenodd"
    d="M3 2.5C3 1.67157 3.67157 1 4.5 1H13.6287C14.0265 1 14.408 1.15804 14.6893 1.43934L17.5607 4.31066C17.842 4.59197 18 4.9735 18 5.37132V17.5C18 18.3284 17.3284 19 16.5 19H4.5C3.67157 19 3 18.3284 3 17.5V2.5ZM4.5 1.75H13.6287C13.7133 1.75 13.7965 1.76431 13.875 1.7916V4C13.875 4.62132 14.3787 5.125 15 5.125H17.2084C17.2357 5.20347 17.25 5.28666 17.25 5.37132V17.5C17.25 17.9142 16.9142 18.25 16.5 18.25H4.5C4.08579 18.25 3.75 17.9142 3.75 17.5V2.5C3.75 2.08579 4.08579 1.75 4.5 1.75ZM16.5643 4.375L14.625 2.43566V4C14.625 4.20711 14.7929 4.375 15 4.375H16.5643Z"
    fill="black" />
</svg>
