<svg width="20" height="20" viewBox="0 0 20 20" fill="none" xmlns="http://www.w3.org/2000/svg">
<path d="M11.366 14.7226C11.366 15.2009 10.9783 15.5886 10.5 15.5886C10.0217 15.5886 9.63396 15.2009 9.63396 14.7226C9.63396 14.2443 10.0217 13.8565 10.5 13.8565C10.9783 13.8565 11.366 14.2443 11.366 14.7226Z" fill="black"/>
<path d="M10.5013 12.9905C10.8751 12.9905 11.366 9.09334 11.366 9.09334C11.6519 7.26261 11.5576 6.87167 11.4341 6.36251C11.4117 6.26953 11.3884 6.17259 11.366 6.06222C11.2472 5.47498 10.84 5.19618 10.5013 5.19618C10.163 5.19618 9.75025 5.5206 9.63396 6.06222C9.61198 6.16503 9.58914 6.25618 9.56757 6.34337C9.4386 6.86199 9.3443 7.23983 9.63396 9.09334C9.63396 9.09334 10.1275 12.9905 10.5013 12.9905Z" fill="black"/>
<path fill-rule="evenodd" clip-rule="evenodd" d="M11.366 2.23206C10.8303 1.92265 10.1697 1.92265 9.63396 2.23206L3.86604 5.5622C3.32984 5.87161 3 6.44341 3 7.06222V13.7226C3 14.3414 3.32984 14.9132 3.86604 15.2226L9.63396 18.5527C10.1697 18.8621 10.8303 18.8621 11.366 18.5527L17.134 15.2226C17.6702 14.9132 18 14.3414 18 13.7226V7.06222C18 6.44341 17.6702 5.87161 17.134 5.5622L11.366 2.23206ZM16.7009 6.31221L10.933 2.98207C10.6649 2.82735 10.3351 2.82735 10.067 2.98207L4.29905 6.31221C4.03095 6.46693 3.86604 6.75281 3.86604 7.06222V13.7226C3.86604 14.032 4.03095 14.3179 4.29905 14.4726L10.067 17.8027C10.3351 17.9574 10.6649 17.9574 10.933 17.8027L16.7009 14.4726C16.969 14.3179 17.134 14.032 17.134 13.7226V7.06222C17.134 6.75281 16.969 6.46693 16.7009 6.31221Z" fill="black"/>
</svg>
