<svg width="20" height="20" viewBox="0 0 20 20" fill="none" xmlns="http://www.w3.org/2000/svg">
<path fill-rule="evenodd" clip-rule="evenodd" d="M16.1385 5.11068C16.7605 5.11068 17.2647 4.60648 17.2647 3.98452C17.2647 3.36256 16.7605 2.85836 16.1385 2.85836H13.636C13.3923 2.85836 13.1552 2.77932 12.9603 2.63312L11.2833 1.37539C10.6014 0.863945 9.66043 0.876243 8.99211 1.40533L7.46391 2.61516C7.26496 2.77266 7.01865 2.85836 6.7649 2.85836H4.12616C3.5042 2.85836 3 3.36256 3 3.98452C3 4.60648 3.5042 5.11068 4.12616 5.11068H16.1385ZM16.5139 3.98452C16.5139 4.19184 16.3459 4.3599 16.1385 4.3599H4.12616C3.91884 4.3599 3.75077 4.19184 3.75077 3.98452C3.75077 3.7772 3.91884 3.60913 4.12616 3.60913H6.7649C7.18781 3.60913 7.59833 3.4663 7.92992 3.2038L9.45812 1.99397C9.85911 1.67652 10.4237 1.66914 10.8328 1.97601L12.5098 3.23374C12.8347 3.47741 13.2299 3.60913 13.636 3.60913H16.1385C16.3459 3.60913 16.5139 3.7772 16.5139 3.98452Z" fill="black"/>
<path d="M6.75387 16.7477C6.54655 16.7477 6.37848 16.5796 6.37848 16.3723V8.11377C6.37848 7.90645 6.54655 7.73839 6.75387 7.73839C6.96119 7.73839 7.12926 7.90645 7.12926 8.11377V16.3723C7.12926 16.5796 6.96119 16.7477 6.75387 16.7477Z" fill="black"/>
<path d="M13.1355 16.3723C13.1355 16.5796 13.3035 16.7477 13.5108 16.7477C13.7182 16.7477 13.8862 16.5796 13.8862 16.3723V8.11377C13.8862 7.90645 13.7182 7.73839 13.5108 7.73839C13.3035 7.73839 13.1355 7.90645 13.1355 8.11377V16.3723Z" fill="black"/>
<path d="M10.1324 16.7477C9.92503 16.7477 9.75697 16.5796 9.75697 16.3723V8.11377C9.75697 7.90645 9.92503 7.73839 10.1324 7.73839C10.3397 7.73839 10.5077 7.90645 10.5077 8.11377V16.3723C10.5077 16.5796 10.3397 16.7477 10.1324 16.7477Z" fill="black"/>
<path fill-rule="evenodd" clip-rule="evenodd" d="M5.62771 5.48607C4.79843 5.48607 4.12616 6.15833 4.12616 6.98761V17.4985C4.12616 18.3277 4.79843 19 5.62771 19H14.637C15.4663 19 16.1385 18.3277 16.1385 17.4985V6.98761C16.1385 6.15833 15.4663 5.48607 14.637 5.48607H5.62771ZM14.637 6.23684H5.62771C5.21307 6.23684 4.87694 6.57297 4.87694 6.98761V17.4985C4.87694 17.9131 5.21307 18.2492 5.62771 18.2492H14.637C15.0516 18.2492 15.3878 17.9131 15.3878 17.4985V6.98761C15.3878 6.57297 15.0516 6.23684 14.637 6.23684Z" fill="black"/>
</svg>
