<svg width="20" height="20" viewBox="0 0 20 20" fill="none" xmlns="http://www.w3.org/2000/svg">
<path d="M16.8667 8.26667C18.0448 8.26667 19 7.31155 19 6.13333C19 4.95512 18.0448 4 16.8667 4C15.6885 4 14.7333 4.95512 14.7333 6.13333C14.7333 7.31155 15.6885 8.26667 16.8667 8.26667Z" fill="black"/>
<path d="M3 12.9795V5.46369H3.03958C3.09479 5.36487 3.20243 5.30085 3.32153 5.30085H14.3896C14.3219 5.49974 14.2788 5.70968 14.2646 5.92717H4.44201L9.75556 9.1653L14.2799 6.40825C14.3087 6.62999 14.3674 6.84267 14.4517 7.0424L9.92639 9.8002C9.82188 9.86382 9.68924 9.86382 9.58472 9.8002L3.6434 6.17949V12.9795C3.6434 13.4984 4.07535 13.919 4.60833 13.919H14.9028C15.4358 13.919 15.8677 13.4984 15.8677 12.9795V8.4132C16.0705 8.49312 16.2865 8.54861 16.5111 8.57589V12.9795C16.5111 13.8443 15.791 14.5453 14.9028 14.5453H4.60833C3.72014 14.5453 3 13.8443 3 12.9795Z" fill="black"/>
</svg>
