<svg width="16" height="19" viewBox="0 0 16 19" fill="none" xmlns="http://www.w3.org/2000/svg">
<path d="M1.5 0C0.671573 0 0 0.67157 0 1.5V17.5C0 18.3284 0.671573 19 1.5 19H14.5C15.3284 19 16 18.3284 16 17.5V8.90137C16 8.62521 15.7761 8.40137 15.5 8.40137C15.2239 8.40137 15 8.62521 15 8.90137V17.5C15 17.7762 14.7761 18 14.5 18H1.5C1.22386 18 1 17.7762 1 17.5V1.5C1 1.22385 1.22386 1 1.5 1H8C8.27614 1 8.5 0.776154 8.5 0.5C8.5 0.223846 8.27614 0 8 0H1.5Z" fill="#fff"/>
<path d="M4.63263 11.2037C4.5275 11.0985 4.34849 11.1408 4.30147 11.2819L3.46963 13.7774C3.41752 13.9337 3.56627 14.0825 3.72262 14.0303L6.21812 13.1985C6.35917 13.1515 6.40143 12.9725 6.2963 12.8673L4.63263 11.2037Z" fill="#fff"/>
<path d="M11.4749 3.90378C11.6701 3.70853 11.9867 3.70853 12.182 3.90378L13.5962 5.31799C13.7915 5.51328 13.7915 5.82983 13.5962 6.02512L7.23223 12.3891C7.03697 12.5843 6.72039 12.5843 6.52512 12.3891L5.11091 10.9749C4.91565 10.7796 4.91565 10.463 5.11091 10.2678L11.4749 3.90378Z" fill="#fff"/>
<path d="M13.9497 2.13602C13.7545 1.94077 13.4379 1.94077 13.2426 2.13602L12.5355 2.84314C12.3403 3.03839 12.3403 3.35498 12.5355 3.55023L13.9497 4.96445C14.145 5.1597 14.4616 5.1597 14.6569 4.96445L15.364 4.25735C15.5592 4.06207 15.5592 3.74551 15.364 3.55023L13.9497 2.13602Z" fill="#fff"/>
</svg>
