<svg width="300" height="160" viewBox="0 0 300 160" fill="none" xmlns="http://www.w3.org/2000/svg">
<g clip-path="url(#clip0_424_11511)">
<path d="M183 71C183 80.3888 163.748 88 140 88C116.252 88 97 80.3888 97 71C97 61.6112 116.252 54 140 54C163.748 54 183 61.6112 183 71Z" fill="white"/>
<path d="M120 90L119.863 90.4808L119.881 90.486L119.9 90.4899L120 90ZM113 88L112.821 88.4667L112.841 88.4747L112.863 88.4808L113 88ZM168.5 88L168.647 88.4779L168.68 88.4677L168.711 88.4531L168.5 88ZM98.7169 79.8602L99.101 79.5401L98.7169 79.8602ZM102.816 83.351L102.564 83.7829L102.816 83.351ZM181.573 79.6584L181.964 79.9707L181.573 79.6584ZM179.144 82.0548L179.451 82.4495L179.144 82.0548ZM181.606 79.6177L181.996 79.9301L181.606 79.6177ZM173.521 85.6567L173.733 86.1098L173.521 85.6567ZM178.159 82.8208L177.852 82.4261L178.159 82.8208ZM109.128 86.5107L108.948 86.9774L109.128 86.5107ZM182.5 71C182.5 73.1632 181.393 75.2762 179.279 77.2519C177.165 79.2283 174.078 81.0313 170.222 82.5558C162.512 85.6038 151.827 87.5 140 87.5V88.5C151.921 88.5 162.736 86.5906 170.589 83.4858C174.515 81.934 177.725 80.0737 179.962 77.9824C182.2 75.8904 183.5 73.5312 183.5 71H182.5ZM140 87.5C128.173 87.5 117.488 85.6038 109.778 82.5558C105.922 81.0313 102.835 79.2283 100.721 77.2519C98.6069 75.2762 97.5 73.1632 97.5 71H96.5C96.5 73.5312 97.7996 75.8904 100.038 77.9824C102.275 80.0737 105.485 81.934 109.411 83.4858C117.264 86.5906 128.079 88.5 140 88.5V87.5ZM97.5 71C97.5 68.8368 98.6069 66.7238 100.721 64.7481C102.835 62.7717 105.922 60.9687 109.778 59.4442C117.488 56.3962 128.173 54.5 140 54.5V53.5C128.079 53.5 117.264 55.4094 109.411 58.5142C105.485 60.066 102.275 61.9263 100.038 64.0176C97.7996 66.1096 96.5 68.4688 96.5 71H97.5ZM140 54.5C151.827 54.5 162.512 56.3962 170.222 59.4442C174.078 60.9687 177.165 62.7717 179.279 64.7481C181.393 66.7238 182.5 68.8368 182.5 71H183.5C183.5 68.4688 182.2 66.1096 179.962 64.0176C177.725 61.9263 174.515 60.066 170.589 58.5142C162.736 55.4094 151.921 53.5 140 53.5V54.5ZM96.5 71V73.9575H97.5V71H96.5ZM183.5 74.8819V71H182.5V74.8819H183.5ZM119.9 90.4899L121.816 90.8817L122.016 89.902L120.1 89.5101L119.9 90.4899ZM181.964 79.9707L181.996 79.9301L181.215 79.3054L181.183 79.346L181.964 79.9707ZM98.3327 80.1803L98.3994 80.2603L99.1676 79.6202L99.101 79.5401L98.3327 80.1803ZM108.948 86.9774L112.821 88.4667L113.179 87.5333L109.307 86.044L108.948 86.9774ZM112.863 88.4808L119.863 90.4808L120.137 89.5192L113.137 87.5192L112.863 88.4808ZM162.147 90.4779L168.647 88.4779L168.353 87.5221L161.853 89.5221L162.147 90.4779ZM168.711 88.4531L173.733 86.1098L173.31 85.2036L168.289 87.5469L168.711 88.4531ZM178.466 83.2154L179.451 82.4495L178.837 81.6601L177.852 82.4261L178.466 83.2154ZM102.564 83.7829L103.816 84.5132L104.32 83.6494L103.068 82.9191L102.564 83.7829ZM97.1716 78.0958C97.4253 78.857 97.8191 79.564 98.3327 80.1803L99.101 79.5401C98.6672 79.0196 98.3345 78.4224 98.1202 77.7796L97.1716 78.0958ZM98.3994 80.2603C99.5723 81.6677 100.982 82.8598 102.564 83.7829L103.068 82.9191C101.586 82.0546 100.266 80.9382 99.1676 79.6202L98.3994 80.2603ZM181.183 79.346C180.494 80.2067 179.707 80.9834 178.837 81.6601L179.451 82.4495C180.383 81.7246 181.226 80.8927 181.964 79.9707L181.183 79.346ZM182.29 76.9983C182.122 77.8422 181.753 78.6334 181.215 79.3054L181.996 79.9301C182.634 79.1332 183.071 78.1951 183.271 77.1944L182.29 76.9983ZM121.816 90.8817C135.124 93.6038 148.858 93.4695 162.11 90.4878L161.89 89.5122C148.776 92.4628 135.185 92.5957 122.016 89.902L121.816 90.8817ZM173.733 86.1098C175.414 85.3252 177.002 84.3544 178.466 83.2154L177.852 82.4261C176.447 83.5191 174.923 84.4507 173.31 85.2036L173.733 86.1098ZM182.5 74.8819C182.5 75.5926 182.43 76.3015 182.29 76.9983L183.271 77.1944C183.423 76.433 183.5 75.6584 183.5 74.8819H182.5ZM109.307 86.044C107.583 85.381 105.915 84.5802 104.32 83.6494L103.816 84.5132C105.458 85.471 107.174 86.295 108.948 86.9774L109.307 86.044ZM96.5 73.9575C96.5 75.3641 96.7268 76.7614 97.1716 78.0958L98.1202 77.7796C97.7094 76.5472 97.5 75.2566 97.5 73.9575H96.5Z" fill="#6FB1FF"/>
<path d="M109.927 82.5572C117.474 85.6036 128.032 87.5 140 87.5C151.968 87.5 162.526 85.6036 170.073 82.5572C173.848 81.0335 176.845 79.2319 178.891 77.2574C180.935 75.2848 182.5 73.1705 182.5 71H183C183 71.3364 182.978 71.6698 182.934 72H183C183 72.3364 182.978 72.6698 182.934 73H183C183 73.3364 182.978 73.6698 182.934 74H183C183 74.3364 182.978 74.6698 182.934 75H183C183 77.524 181.756 79.8818 179.585 81.9769C177.417 84.0702 174.294 85.9318 170.448 87.4845C162.752 90.5908 152.06 92.5 140 92.5C127.94 92.5 117.248 90.5908 109.552 87.4845C105.706 85.9318 102.583 84.0702 100.415 81.9769C98.2438 79.8818 97 77.524 97 75H97.0655C97.0221 74.6698 97 74.3364 97 74H97.0655C97.0221 73.6698 97 73.3364 97 73H97.0655C97.0221 72.6698 97 72.3364 97 72H97.0655C97.0221 71.6698 97 71.3364 97 71H97.5C97.5 73.1705 99.0652 75.2848 101.109 77.2574C103.155 79.2319 106.152 81.0335 109.927 82.5572Z" fill="#6FB1FF"/>
<path d="M112.098 67.8018C112.624 67.8018 113.094 67.8919 113.507 68.0721C113.928 68.2523 114.255 68.5192 114.49 68.8729C114.733 69.2266 114.854 69.6537 114.854 70.1542V73.4074H113.482V70.3243C113.482 69.8305 113.333 69.4535 113.033 69.1932C112.734 68.9263 112.325 68.7928 111.807 68.7928C111.289 68.7928 110.876 68.9263 110.569 69.1932C110.269 69.4535 110.119 69.8305 110.119 70.3243V73.4074H108.747V70.3243C108.747 69.8305 108.598 69.4535 108.298 69.1932C107.999 68.9263 107.59 68.7928 107.072 68.7928C106.554 68.7928 106.141 68.9263 105.833 69.1932C105.534 69.4535 105.384 69.8305 105.384 70.3243V73.4074H104V67.8919H105.384V68.5225C105.611 68.2956 105.898 68.1188 106.246 67.992C106.594 67.8652 106.967 67.8018 107.363 67.8018C107.897 67.8018 108.375 67.8952 108.796 68.0821C109.217 68.2689 109.541 68.5392 109.767 68.8929C109.97 68.5592 110.285 68.2956 110.714 68.1021C111.143 67.9019 111.605 67.8018 112.098 67.8018Z" fill="#6FB1FF"/>
<path d="M119.517 73.4975C118.886 73.4975 118.315 73.3807 117.806 73.1471C117.296 72.9069 116.895 72.5732 116.604 72.1461C116.312 71.7124 116.166 71.2119 116.166 70.6446C116.166 70.0841 116.316 69.5869 116.616 69.1532C116.915 68.7194 117.324 68.3857 117.842 68.1522C118.36 67.9186 118.939 67.8018 119.578 67.8018C120.218 67.8018 120.796 67.9186 121.314 68.1522C121.832 68.3857 122.241 68.7194 122.541 69.1532C122.84 69.5869 122.99 70.0841 122.99 70.6446C122.99 71.2052 122.836 71.7024 122.529 72.1361C122.221 72.5699 121.8 72.9069 121.266 73.1471C120.74 73.3807 120.157 73.4975 119.517 73.4975ZM119.517 72.5065C119.874 72.5065 120.206 72.4364 120.513 72.2963C120.829 72.1562 121.084 71.9459 121.278 71.6657C121.472 71.3854 121.569 71.045 121.569 70.6446C121.569 70.2442 121.476 69.9072 121.29 69.6336C121.104 69.3534 120.857 69.1431 120.55 69.003C120.242 68.8629 119.91 68.7928 119.554 68.7928C119.198 68.7928 118.866 68.8629 118.558 69.003C118.259 69.1431 118.02 69.3534 117.842 69.6336C117.664 69.9072 117.575 70.2442 117.575 70.6446C117.575 71.2386 117.757 71.699 118.121 72.026C118.494 72.3463 118.959 72.5065 119.517 72.5065Z" fill="#6FB1FF"/>
<path d="M125.742 66V73.4074H124.358V66H125.742Z" fill="#6FB1FF"/>
<path d="M128.944 66V73.4074H127.56V66H128.944Z" fill="#6FB1FF"/>
<path d="M136.783 67.8919L132.679 76H131.247L132.606 73.3173L129.972 67.8919H131.514L133.396 72.0961L135.35 67.8919H136.783Z" fill="#6FB1FF"/>
<path d="M137.366 70.6246C137.366 70.0707 137.504 69.5802 137.779 69.1532C138.062 68.7261 138.443 68.3957 138.92 68.1622C139.406 67.9219 139.94 67.8018 140.523 67.8018C141.049 67.8018 141.506 67.8886 141.895 68.0621C142.292 68.2289 142.607 68.4391 142.842 68.6927V67.8919H144.238V73.4074H142.842V72.5866C142.607 72.8468 142.288 73.0637 141.883 73.2372C141.478 73.4107 141.017 73.4975 140.499 73.4975C139.924 73.4975 139.398 73.3774 138.92 73.1371C138.443 72.8902 138.062 72.5499 137.779 72.1161C137.504 71.6757 137.366 71.1785 137.366 70.6246ZM142.842 70.6446C142.842 70.2643 142.745 69.9339 142.551 69.6537C142.364 69.3734 142.118 69.1598 141.81 69.013C141.502 68.8662 141.171 68.7928 140.814 68.7928C140.458 68.7928 140.126 68.8662 139.819 69.013C139.511 69.1532 139.26 69.3634 139.066 69.6436C138.88 69.9173 138.787 70.2442 138.787 70.6246C138.787 71.005 138.88 71.3387 139.066 71.6256C139.26 71.9126 139.511 72.1328 139.819 72.2863C140.134 72.4331 140.466 72.5065 140.814 72.5065C141.171 72.5065 141.502 72.4331 141.81 72.2863C142.118 72.1395 142.364 71.9259 142.551 71.6456C142.745 71.3587 142.842 71.025 142.842 70.6446Z" fill="#6FB1FF"/>
<path d="M149.432 67.8018C149.958 67.8018 150.427 67.8919 150.84 68.0721C151.261 68.2523 151.589 68.5192 151.823 68.8729C152.058 69.2266 152.176 69.6537 152.176 70.1542V73.4074H150.804V70.3243C150.804 69.8305 150.654 69.4535 150.354 69.1932C150.055 68.9263 149.646 68.7928 149.128 68.7928C148.61 68.7928 148.197 68.9263 147.89 69.1932C147.59 69.4535 147.44 69.8305 147.44 70.3243V73.4074H146.056V67.8919H147.44V68.5225C147.667 68.2956 147.954 68.1188 148.302 67.992C148.659 67.8652 149.035 67.8018 149.432 67.8018Z" fill="#6FB1FF"/>
<path d="M154.5 73.4775C154.249 73.4775 154.038 73.4074 153.868 73.2673C153.698 73.1271 153.613 72.9536 153.613 72.7467C153.613 72.5399 153.698 72.3664 153.868 72.2262C154.038 72.0861 154.249 72.016 154.5 72.016C154.742 72.016 154.949 72.0861 155.119 72.2262C155.289 72.3664 155.374 72.5399 155.374 72.7467C155.374 72.9536 155.289 73.1271 155.119 73.2673C154.949 73.4074 154.742 73.4775 154.5 73.4775Z" fill="#6FB1FF"/>
<path d="M163.001 70.5145C163.001 70.7214 162.985 70.9082 162.953 71.0751H157.841C157.882 71.5155 158.08 71.8692 158.436 72.1361C158.792 72.4031 159.229 72.5365 159.747 72.5365C160.492 72.5365 161.018 72.2796 161.326 71.7658H162.819C162.617 72.2729 162.248 72.69 161.714 73.017C161.188 73.3373 160.532 73.4975 159.747 73.4975C159.108 73.4975 158.533 73.3807 158.023 73.1471C157.521 72.9069 157.125 72.5732 156.833 72.1461C156.55 71.7124 156.408 71.2119 156.408 70.6446C156.408 70.0774 156.546 69.5802 156.821 69.1532C157.104 68.7194 157.497 68.3857 157.999 68.1522C158.509 67.9186 159.092 67.8018 159.747 67.8018C160.379 67.8018 160.941 67.9152 161.435 68.1421C161.929 68.369 162.313 68.6894 162.588 69.1031C162.864 69.5102 163.001 69.9806 163.001 70.5145ZM161.556 70.1542C161.548 69.7337 161.366 69.3967 161.01 69.1431C160.654 68.8896 160.213 68.7628 159.687 68.7628C159.209 68.7628 158.8 68.8896 158.46 69.1431C158.12 69.3901 157.918 69.7271 157.853 70.1542H161.556Z" fill="#6FB1FF"/>
<path d="M165.978 68.8228V71.8759C165.978 72.0827 166.035 72.2329 166.148 72.3263C166.269 72.4131 166.472 72.4565 166.755 72.4565H167.605V73.4074H166.512C165.889 73.4074 165.411 73.2873 165.08 73.047C164.748 72.8068 164.582 72.4164 164.582 71.8759V68.8228H163.793V67.8919H164.582V66.5205H165.978V67.8919H167.605V68.8228H165.978Z" fill="#6FB1FF"/>
<path d="M172.341 67.8018C172.851 67.8018 173.304 67.8919 173.701 68.0721C174.106 68.2523 174.421 68.5192 174.648 68.8729C174.883 69.2266 175 69.6537 175 70.1542V73.4074H173.628V70.3243C173.628 69.8305 173.478 69.4535 173.179 69.1932C172.879 68.9263 172.471 68.7928 171.953 68.7928C171.434 68.7928 171.022 68.9263 170.714 69.1932C170.415 69.4535 170.265 69.8305 170.265 70.3243V73.4074H168.881V66H170.265V68.5325C170.5 68.299 170.795 68.1188 171.151 67.992C171.515 67.8652 171.912 67.8018 172.341 67.8018Z" fill="#6FB1FF"/>
<path d="M125 17C125 26.3888 105.748 34 82 34C58.2518 34 39 26.3888 39 17C39 7.61116 58.2518 0 82 0C105.748 0 125 7.61116 125 17Z" fill="white"/>
<path d="M125 17C125 26.3888 105.748 34 82 34C58.2518 34 39 26.3888 39 17M125 17C125 7.61116 105.748 0 82 0C58.2518 0 39 7.61116 39 17M125 17V20.8819C125 21.6255 124.927 22.3672 124.781 23.0964V23.0964C124.596 24.0187 124.193 24.8833 123.606 25.6177L123.573 25.6584C122.86 26.5497 122.045 27.354 121.144 28.0548L120.159 28.8208C118.724 29.9367 117.169 30.888 115.521 31.6567L110.5 34L104 36V36C90.8169 38.9662 77.1544 39.0998 63.9158 36.3919L62 36L55 34L51.1279 32.5107C49.3788 31.838 47.6867 31.0256 46.068 30.0813L44.816 29.351C43.2837 28.4572 41.9191 27.303 40.7835 25.9402L40.7169 25.8602C40.2431 25.2918 39.8799 24.6397 39.6459 23.9377V23.9377C39.2181 22.6543 39 21.3103 39 19.9575V17" stroke="#6F7DFF"/>
<path d="M51.9268 28.5572C59.4741 31.6036 70.0322 33.5 82 33.5C93.9678 33.5 104.526 31.6036 112.073 28.5572C115.848 27.0335 118.845 25.2319 120.891 23.2574C122.935 21.2848 124.5 19.1705 124.5 17H125C125 17.3364 124.978 17.6698 124.934 18H125C125 18.3364 124.978 18.6698 124.934 19H125C125 19.3364 124.978 19.6698 124.934 20H125C125 20.3364 124.978 20.6698 124.934 21H125C125 23.524 123.756 25.8818 121.585 27.9769C119.417 30.0702 116.294 31.9318 112.448 33.4845C104.752 36.5908 94.0598 38.5 82 38.5C69.9402 38.5 59.2483 36.5908 51.5525 33.4845C47.7058 31.9318 44.5833 30.0702 42.4145 27.9769C40.2438 25.8818 39 23.524 39 21H39.0655C39.0221 20.6698 39 20.3364 39 20H39.0655C39.0221 19.6698 39 19.3364 39 19H39.0655C39.0221 18.6698 39 18.3364 39 18H39.0655C39.0221 17.6698 39 17.3364 39 17H39.5C39.5 19.1705 41.0652 21.2848 43.109 23.2574C45.1546 25.2319 48.1519 27.0335 51.9268 28.5572Z" fill="#6F7DFF"/>
<path d="M61.9049 12.4806V17.8318C61.9049 18.494 61.6776 19.0174 61.223 19.4019C60.7763 19.7864 60.1862 19.9786 59.4524 19.9786C58.7187 19.9786 58.1245 19.7864 57.6699 19.4019C57.2233 19.0174 57 18.494 57 17.8318H58.3758C58.3837 18.1593 58.4754 18.4192 58.6509 18.6115C58.8343 18.8037 59.1015 18.8999 59.4524 18.8999C59.8033 18.8999 60.0705 18.8037 60.254 18.6115C60.4374 18.4121 60.5291 18.1522 60.5291 17.8318V12.4806H61.9049Z" fill="#6F7DFF"/>
<path d="M66.9826 20C66.3605 20 65.7983 19.8754 65.2958 19.6262C64.7934 19.3698 64.3986 19.0138 64.1115 18.5581C63.8244 18.0952 63.6808 17.5612 63.6808 16.9559C63.6808 16.3578 63.8284 15.8273 64.1234 15.3645C64.4185 14.9016 64.8213 14.5456 65.3317 14.2964C65.8421 14.0472 66.4124 13.9226 67.0424 13.9226C67.6725 13.9226 68.2427 14.0472 68.7531 14.2964C69.2636 14.5456 69.6663 14.9016 69.9614 15.3645C70.2565 15.8273 70.4041 16.3578 70.4041 16.9559C70.4041 17.5541 70.2525 18.0846 69.9495 18.5474C69.6464 19.0102 69.2317 19.3698 68.7053 19.6262C68.1869 19.8754 67.6127 20 66.9826 20ZM66.9826 18.9426C67.3335 18.9426 67.6605 18.8678 67.9636 18.7183C68.2746 18.5688 68.5259 18.3445 68.7173 18.0454C68.9087 17.7463 69.0044 17.3832 69.0044 16.9559C69.0044 16.5287 68.9127 16.1691 68.7292 15.8772C68.5458 15.5781 68.3025 15.3538 67.9995 15.2043C67.6964 15.0547 67.3694 14.98 67.0185 14.98C66.6676 14.98 66.3406 15.0547 66.0375 15.2043C65.7424 15.3538 65.5072 15.5781 65.3317 15.8772C65.1563 16.1691 65.0685 16.5287 65.0685 16.9559C65.0685 17.5897 65.248 18.081 65.6069 18.4299C65.9737 18.7717 66.4323 18.9426 66.9826 18.9426Z" fill="#6F7DFF"/>
<path d="M73.116 14.8945C73.3473 14.6097 73.6623 14.3783 74.0611 14.2003C74.4678 14.0151 74.9185 13.9226 75.4129 13.9226C75.9951 13.9226 76.5215 14.0472 76.9921 14.2964C77.4626 14.5456 77.8335 14.9016 78.1046 15.3645C78.3758 15.8202 78.5114 16.3436 78.5114 16.9346C78.5114 17.5256 78.3758 18.0561 78.1046 18.526C77.8335 18.9889 77.4586 19.352 76.9801 19.6155C76.5095 19.8718 75.9872 20 75.4129 20C74.9025 20 74.4479 19.911 74.0491 19.733C73.6583 19.555 73.3473 19.3271 73.116 19.0494V19.9039H71.7522V12H73.116V14.8945ZM77.1236 16.9346C77.1236 16.5287 77.0279 16.1798 76.8365 15.8879C76.6531 15.5888 76.4059 15.3645 76.0948 15.215C75.7918 15.0583 75.4648 14.98 75.1139 14.98C74.7709 14.98 74.4439 15.0583 74.1329 15.215C73.8298 15.3716 73.5826 15.5995 73.3912 15.8985C73.2077 16.1976 73.116 16.5501 73.116 16.9559C73.116 17.3618 73.2077 17.7178 73.3912 18.024C73.5826 18.3231 73.8298 18.551 74.1329 18.7076C74.4439 18.8643 74.7709 18.9426 75.1139 18.9426C75.4648 18.9426 75.7918 18.8643 76.0948 18.7076C76.4059 18.5438 76.6531 18.3089 76.8365 18.0027C77.0279 17.6965 77.1236 17.3405 77.1236 16.9346Z" fill="#6F7DFF"/>
<path d="M82.2526 20C81.7342 20 81.2677 19.9181 80.8529 19.7543C80.4462 19.5834 80.1232 19.3556 79.8839 19.0708C79.6447 18.7788 79.5171 18.4548 79.5011 18.0988H80.9128C80.9367 18.348 81.0683 18.5581 81.3075 18.729C81.5548 18.8927 81.8618 18.9746 82.2287 18.9746C82.6115 18.9746 82.9066 18.9105 83.114 18.7824C83.3293 18.6471 83.437 18.4762 83.437 18.2697C83.437 18.049 83.3173 17.8852 83.0781 17.7784C82.8468 17.6716 82.4759 17.5541 81.9655 17.4259C81.471 17.3049 81.0683 17.1874 80.7572 17.0734C80.4462 16.9595 80.175 16.785 79.9438 16.5501C79.7204 16.3151 79.6088 16.0053 79.6088 15.6208C79.6088 15.3075 79.7125 15.0227 79.9198 14.7664C80.1272 14.5029 80.4223 14.2964 80.8051 14.1469C81.1959 13.9973 81.6425 13.9226 82.145 13.9226C82.8946 13.9226 83.4968 14.0935 83.9514 14.4352C84.414 14.7699 84.6612 15.2292 84.6931 15.8131H83.3293C83.3054 15.5496 83.1857 15.3396 82.9704 15.1829C82.7551 15.0263 82.464 14.9479 82.0971 14.9479C81.7382 14.9479 81.4631 15.0085 81.2717 15.1295C81.0802 15.2506 80.9845 15.4108 80.9845 15.6101C80.9845 15.7668 81.0483 15.8985 81.1759 16.0053C81.3036 16.1121 81.4591 16.1976 81.6425 16.2617C81.8259 16.3186 82.0971 16.3934 82.456 16.486C82.9345 16.5999 83.3253 16.7174 83.6284 16.8385C83.9394 16.9524 84.2066 17.1233 84.4299 17.3511C84.6532 17.579 84.7689 17.8816 84.7768 18.259C84.7768 18.5937 84.6732 18.8927 84.4658 19.1562C84.2584 19.4197 83.9633 19.6262 83.5805 19.7757C83.2057 19.9252 82.763 20 82.2526 20Z" fill="#6F7DFF"/>
<path d="M86.8007 19.9786C86.5535 19.9786 86.3461 19.9039 86.1787 19.7543C86.0112 19.6048 85.9274 19.4197 85.9274 19.1989C85.9274 18.9782 86.0112 18.7931 86.1787 18.6435C86.3461 18.494 86.5535 18.4192 86.8007 18.4192C87.04 18.4192 87.2434 18.494 87.4109 18.6435C87.5783 18.7931 87.6621 18.9782 87.6621 19.1989C87.6621 19.4197 87.5783 19.6048 87.4109 19.7543C87.2434 19.9039 87.04 19.9786 86.8007 19.9786Z" fill="#6F7DFF"/>
<path d="M95.1774 16.8171C95.1774 17.0378 95.1615 17.2372 95.1296 17.4152H90.0931C90.133 17.8852 90.3284 18.2626 90.6793 18.5474C91.0302 18.8322 91.4609 18.9746 91.9713 18.9746C92.705 18.9746 93.2234 18.7005 93.5265 18.1522H94.998C94.7986 18.6934 94.4357 19.1384 93.9093 19.4873C93.3909 19.8291 92.7449 20 91.9713 20C91.3413 20 90.775 19.8754 90.2726 19.6262C89.7781 19.3698 89.3873 19.0138 89.1002 18.5581C88.821 18.0952 88.6815 17.5612 88.6815 16.9559C88.6815 16.3507 88.817 15.8202 89.0882 15.3645C89.3673 14.9016 89.7542 14.5456 90.2486 14.2964C90.7511 14.0472 91.3253 13.9226 91.9713 13.9226C92.5934 13.9226 93.1477 14.0436 93.6342 14.2857C94.1207 14.5278 94.4995 14.8696 94.7707 15.3111C95.0418 15.7454 95.1774 16.2474 95.1774 16.8171ZM93.7538 16.4326C93.7458 15.984 93.5664 15.6244 93.2155 15.3538C92.8645 15.0832 92.4299 14.9479 91.9115 14.9479C91.4409 14.9479 91.0382 15.0832 90.7032 15.3538C90.3683 15.6173 90.1689 15.9769 90.1051 16.4326H93.7538Z" fill="#6F7DFF"/>
<path d="M98.1106 15.012V18.2697C98.1106 18.4904 98.1664 18.6506 98.2781 18.7503C98.3977 18.8429 98.5971 18.8892 98.8762 18.8892H99.7136V19.9039H98.637C98.0229 19.9039 97.5523 19.7757 97.2253 19.5194C96.8983 19.263 96.7348 18.8465 96.7348 18.2697V15.012H95.9572V14.0187H96.7348V12.5554H98.1106V14.0187H99.7136V15.012H98.1106Z" fill="#6F7DFF"/>
<path d="M104.38 13.9226C104.883 13.9226 105.329 14.0187 105.72 14.2109C106.119 14.4032 106.43 14.688 106.653 15.0654C106.884 15.4428 107 15.8985 107 16.4326V19.9039H105.648V16.6142C105.648 16.0872 105.501 15.6849 105.206 15.4072C104.91 15.1224 104.508 14.98 103.997 14.98C103.487 14.98 103.08 15.1224 102.777 15.4072C102.482 15.6849 102.334 16.0872 102.334 16.6142V19.9039H100.971V12H102.334V14.7023C102.566 14.453 102.857 14.2608 103.208 14.1255C103.567 13.9902 103.957 13.9226 104.38 13.9226Z" fill="#6F7DFF"/>
<path d="M284 71C284 80.3888 264.748 88 241 88C217.252 88 198 80.3888 198 71C198 61.6112 217.252 54 241 54C264.748 54 284 61.6112 284 71Z" fill="#F2F2F2"/>
<path d="M284 71C284 80.3888 264.748 88 241 88C217.252 88 198 80.3888 198 71M284 71C284 61.6112 264.748 54 241 54C217.252 54 198 61.6112 198 71M284 71V74.8819C284 75.6255 283.927 76.3672 283.781 77.0964V77.0964C283.596 78.0187 283.193 78.8833 282.606 79.6177L282.573 79.6584C281.86 80.5497 281.045 81.354 280.144 82.0548L279.159 82.8208C277.724 83.9367 276.169 84.888 274.521 85.6567L269.5 88L263 90V90C249.817 92.9662 236.154 93.0998 222.916 90.3919L221 90L214 88L210.128 86.5107C208.379 85.838 206.687 85.0256 205.068 84.0813L203.816 83.351C202.284 82.4572 200.919 81.303 199.784 79.9402L199.717 79.8602C199.243 79.2918 198.88 78.6397 198.646 77.9377V77.9377C198.218 76.6543 198 75.3103 198 73.9575V71" stroke="#6E7DFF"/>
<path d="M210.927 82.5572C218.474 85.6036 229.032 87.5 241 87.5C252.968 87.5 263.526 85.6036 271.073 82.5572C274.848 81.0335 277.845 79.2319 279.891 77.2574C281.935 75.2848 283.5 73.1705 283.5 71H284C284 71.3364 283.978 71.6698 283.934 72H284C284 72.3364 283.978 72.6698 283.934 73H284C284 73.3364 283.978 73.6698 283.934 74H284C284 74.3364 283.978 74.6698 283.934 75H284C284 77.524 282.756 79.8818 280.585 81.9769C278.417 84.0702 275.294 85.9318 271.448 87.4845C263.752 90.5908 253.06 92.5 241 92.5C228.94 92.5 218.248 90.5908 210.552 87.4845C206.706 85.9318 203.583 84.0702 201.415 81.9769C199.244 79.8818 198 77.524 198 75H198.066C198.022 74.6698 198 74.3364 198 74H198.066C198.022 73.6698 198 73.3364 198 73H198.066C198.022 72.6698 198 72.3364 198 72H198.066C198.022 71.6698 198 71.3364 198 71H198.5C198.5 73.1705 200.065 75.2848 202.109 77.2574C204.155 79.2319 207.152 81.0335 210.927 82.5572Z" fill="#6E7DFF"/>
<path d="M241 125C241 134.389 221.748 142 198 142C174.252 142 155 134.389 155 125C155 115.611 174.252 108 198 108C221.748 108 241 115.611 241 125Z" fill="white"/>
<path d="M178 144L177.863 144.481L177.881 144.486L177.9 144.49L178 144ZM171 142L170.821 142.467L170.841 142.475L170.863 142.481L171 142ZM226.5 142L226.647 142.478L226.68 142.468L226.711 142.453L226.5 142ZM156.717 133.86L157.101 133.54L156.717 133.86ZM160.816 137.351L160.564 137.783L160.816 137.351ZM239.573 133.658L239.964 133.971L239.573 133.658ZM237.144 136.055L237.451 136.449L237.144 136.055ZM239.606 133.618L239.996 133.93L239.606 133.618ZM231.521 139.657L231.733 140.11L231.521 139.657ZM236.159 136.821L235.852 136.426L236.159 136.821ZM167.128 140.511L166.948 140.977L167.128 140.511ZM240.5 125C240.5 127.163 239.393 129.276 237.279 131.252C235.165 133.228 232.078 135.031 228.222 136.556C220.512 139.604 209.827 141.5 198 141.5V142.5C209.921 142.5 220.736 140.591 228.589 137.486C232.515 135.934 235.725 134.074 237.962 131.982C240.2 129.89 241.5 127.531 241.5 125H240.5ZM198 141.5C186.173 141.5 175.488 139.604 167.778 136.556C163.922 135.031 160.835 133.228 158.721 131.252C156.607 129.276 155.5 127.163 155.5 125H154.5C154.5 127.531 155.8 129.89 158.038 131.982C160.275 134.074 163.485 135.934 167.411 137.486C175.264 140.591 186.079 142.5 198 142.5V141.5ZM155.5 125C155.5 122.837 156.607 120.724 158.721 118.748C160.835 116.772 163.922 114.969 167.778 113.444C175.488 110.396 186.173 108.5 198 108.5V107.5C186.079 107.5 175.264 109.409 167.411 112.514C163.485 114.066 160.275 115.926 158.038 118.018C155.8 120.11 154.5 122.469 154.5 125H155.5ZM198 108.5C209.827 108.5 220.512 110.396 228.222 113.444C232.078 114.969 235.165 116.772 237.279 118.748C239.393 120.724 240.5 122.837 240.5 125H241.5C241.5 122.469 240.2 120.11 237.962 118.018C235.725 115.926 232.515 114.066 228.589 112.514C220.736 109.409 209.921 107.5 198 107.5V108.5ZM154.5 125V127.957H155.5V125H154.5ZM241.5 128.882V125H240.5V128.882H241.5ZM177.9 144.49L179.816 144.882L180.016 143.902L178.1 143.51L177.9 144.49ZM239.964 133.971L239.996 133.93L239.215 133.305L239.183 133.346L239.964 133.971ZM156.333 134.18L156.399 134.26L157.168 133.62L157.101 133.54L156.333 134.18ZM166.948 140.977L170.821 142.467L171.179 141.533L167.307 140.044L166.948 140.977ZM170.863 142.481L177.863 144.481L178.137 143.519L171.137 141.519L170.863 142.481ZM220.147 144.478L226.647 142.478L226.353 141.522L219.853 143.522L220.147 144.478ZM226.711 142.453L231.733 140.11L231.31 139.204L226.289 141.547L226.711 142.453ZM236.466 137.215L237.451 136.449L236.837 135.66L235.852 136.426L236.466 137.215ZM160.564 137.783L161.816 138.513L162.32 137.649L161.068 136.919L160.564 137.783ZM155.172 132.096C155.425 132.857 155.819 133.564 156.333 134.18L157.101 133.54C156.667 133.02 156.335 132.422 156.12 131.78L155.172 132.096ZM156.399 134.26C157.572 135.668 158.982 136.86 160.564 137.783L161.068 136.919C159.586 136.055 158.266 134.938 157.168 133.62L156.399 134.26ZM239.183 133.346C238.494 134.207 237.707 134.983 236.837 135.66L237.451 136.449C238.383 135.725 239.226 134.893 239.964 133.971L239.183 133.346ZM240.29 130.998C240.122 131.842 239.753 132.633 239.215 133.305L239.996 133.93C240.634 133.133 241.071 132.195 241.271 131.194L240.29 130.998ZM179.816 144.882C193.124 147.604 206.858 147.47 220.11 144.488L219.89 143.512C206.776 146.463 193.185 146.596 180.016 143.902L179.816 144.882ZM231.733 140.11C233.414 139.325 235.002 138.354 236.466 137.215L235.852 136.426C234.447 137.519 232.923 138.451 231.31 139.204L231.733 140.11ZM240.5 128.882C240.5 129.593 240.43 130.301 240.29 130.998L241.271 131.194C241.423 130.433 241.5 129.658 241.5 128.882H240.5ZM167.307 140.044C165.583 139.381 163.915 138.58 162.32 137.649L161.816 138.513C163.458 139.471 165.174 140.295 166.948 140.977L167.307 140.044ZM154.5 127.957C154.5 129.364 154.727 130.761 155.172 132.096L156.12 131.78C155.709 130.547 155.5 129.257 155.5 127.957H154.5Z" fill="#6E7DFF"/>
<path d="M167.927 136.557C175.474 139.604 186.032 141.5 198 141.5C209.968 141.5 220.526 139.604 228.073 136.557C231.848 135.033 234.845 133.232 236.891 131.257C238.935 129.285 240.5 127.17 240.5 125H241C241 125.336 240.978 125.67 240.934 126H241C241 126.336 240.978 126.67 240.934 127H241C241 127.336 240.978 127.67 240.934 128H241C241 128.336 240.978 128.67 240.934 129H241C241 131.524 239.756 133.882 237.585 135.977C235.417 138.07 232.294 139.932 228.448 141.484C220.752 144.591 210.06 146.5 198 146.5C185.94 146.5 175.248 144.591 167.552 141.484C163.706 139.932 160.583 138.07 158.415 135.977C156.244 133.882 155 131.524 155 129H155.066C155.022 128.67 155 128.336 155 128H155.066C155.022 127.67 155 127.336 155 127H155.066C155.022 126.67 155 126.336 155 126H155.066C155.022 125.67 155 125.336 155 125H155.5C155.5 127.17 157.065 129.285 159.109 131.257C161.155 133.232 164.152 135.033 167.927 136.557Z" fill="#6E7DFF"/>
<path d="M171.391 123.895C171.627 123.61 171.948 123.378 172.355 123.2C172.77 123.015 173.23 122.923 173.734 122.923C174.328 122.923 174.865 123.047 175.345 123.296C175.825 123.546 176.203 123.902 176.48 124.364C176.757 124.82 176.895 125.344 176.895 125.935C176.895 126.526 176.757 127.056 176.48 127.526C176.203 127.989 175.821 128.352 175.333 128.615C174.853 128.872 174.32 129 173.734 129C173.214 129 172.75 128.911 172.343 128.733C171.944 128.555 171.627 128.327 171.391 128.049V128.904H170V121H171.391V123.895ZM175.479 125.935C175.479 125.529 175.382 125.18 175.186 124.888C174.999 124.589 174.747 124.364 174.43 124.215C174.121 124.058 173.787 123.98 173.429 123.98C173.079 123.98 172.746 124.058 172.428 124.215C172.119 124.372 171.867 124.599 171.672 124.899C171.485 125.198 171.391 125.55 171.391 125.956C171.391 126.362 171.485 126.718 171.672 127.024C171.867 127.323 172.119 127.551 172.428 127.708C172.746 127.864 173.079 127.943 173.429 127.943C173.787 127.943 174.121 127.864 174.43 127.708C174.747 127.544 174.999 127.309 175.186 127.003C175.382 126.696 175.479 126.34 175.479 125.935Z" fill="#6E7DFF"/>
<path d="M179.662 121V128.904H178.271V121H179.662Z" fill="#6E7DFF"/>
<path d="M181.025 125.935C181.025 125.344 181.163 124.82 181.44 124.364C181.724 123.909 182.107 123.556 182.587 123.307C183.075 123.051 183.612 122.923 184.198 122.923C184.726 122.923 185.186 123.015 185.577 123.2C185.975 123.378 186.292 123.603 186.528 123.873V123.019H187.932V128.904H186.528V128.028C186.292 128.306 185.971 128.537 185.564 128.722C185.158 128.907 184.694 129 184.173 129C183.596 129 183.067 128.872 182.587 128.615C182.107 128.352 181.724 127.989 181.44 127.526C181.163 127.056 181.025 126.526 181.025 125.935ZM186.528 125.956C186.528 125.55 186.431 125.198 186.236 124.899C186.048 124.599 185.8 124.372 185.491 124.215C185.182 124.058 184.848 123.98 184.49 123.98C184.132 123.98 183.799 124.058 183.49 124.215C183.181 124.364 182.928 124.589 182.733 124.888C182.546 125.18 182.452 125.529 182.452 125.935C182.452 126.34 182.546 126.696 182.733 127.003C182.928 127.309 183.181 127.544 183.49 127.708C183.807 127.864 184.141 127.943 184.49 127.943C184.848 127.943 185.182 127.864 185.491 127.708C185.8 127.551 186.048 127.323 186.236 127.024C186.431 126.718 186.528 126.362 186.528 125.956Z" fill="#6E7DFF"/>
<path d="M189.295 125.956C189.295 125.351 189.434 124.82 189.71 124.364C189.995 123.902 190.386 123.546 190.882 123.296C191.378 123.047 191.948 122.923 192.59 122.923C193.404 122.923 194.075 123.093 194.604 123.435C195.141 123.77 195.503 124.251 195.69 124.877H194.189C194.067 124.585 193.872 124.357 193.603 124.194C193.335 124.03 192.997 123.948 192.59 123.948C192.021 123.948 191.565 124.126 191.223 124.482C190.89 124.831 190.723 125.322 190.723 125.956C190.723 126.59 190.89 127.085 191.223 127.441C191.565 127.797 192.021 127.975 192.59 127.975C193.396 127.975 193.929 127.665 194.189 127.045H195.69C195.495 127.644 195.129 128.121 194.592 128.477C194.055 128.826 193.388 129 192.59 129C191.948 129 191.378 128.875 190.882 128.626C190.386 128.37 189.995 128.014 189.71 127.558C189.434 127.095 189.295 126.561 189.295 125.956Z" fill="#6E7DFF"/>
<path d="M199.737 125.967L202.836 128.904H200.957L198.468 126.372V128.904H197.076V121H198.468V125.593L200.908 123.019H202.836L199.737 125.967Z" fill="#6E7DFF"/>
<path d="M204.395 128.979C204.143 128.979 203.931 128.904 203.76 128.754C203.589 128.605 203.504 128.42 203.504 128.199C203.504 127.978 203.589 127.793 203.76 127.644C203.931 127.494 204.143 127.419 204.395 127.419C204.639 127.419 204.846 127.494 205.017 127.644C205.188 127.793 205.274 127.978 205.274 128.199C205.274 128.42 205.188 128.605 205.017 128.754C204.846 128.904 204.639 128.979 204.395 128.979Z" fill="#6E7DFF"/>
<path d="M212.94 125.817C212.94 126.038 212.924 126.237 212.891 126.415H207.753C207.794 126.885 207.993 127.263 208.351 127.547C208.709 127.832 209.149 127.975 209.669 127.975C210.418 127.975 210.947 127.7 211.256 127.152H212.757C212.553 127.693 212.183 128.138 211.646 128.487C211.117 128.829 210.459 129 209.669 129C209.027 129 208.449 128.875 207.936 128.626C207.432 128.37 207.033 128.014 206.741 127.558C206.456 127.095 206.313 126.561 206.313 125.956C206.313 125.351 206.452 124.82 206.728 124.364C207.013 123.902 207.408 123.546 207.912 123.296C208.425 123.047 209.01 122.923 209.669 122.923C210.304 122.923 210.869 123.044 211.366 123.286C211.862 123.528 212.248 123.87 212.525 124.311C212.802 124.745 212.94 125.247 212.94 125.817ZM211.488 125.433C211.48 124.984 211.296 124.624 210.939 124.354C210.581 124.083 210.137 123.948 209.608 123.948C209.128 123.948 208.717 124.083 208.376 124.354C208.034 124.617 207.831 124.977 207.766 125.433H211.488Z" fill="#6E7DFF"/>
<path d="M215.932 124.012V127.27C215.932 127.49 215.989 127.651 216.103 127.75C216.225 127.843 216.428 127.889 216.713 127.889H217.567V128.904H216.469C215.843 128.904 215.363 128.776 215.029 128.519C214.695 128.263 214.529 127.846 214.529 127.27V124.012H213.735V123.019H214.529V121.555H215.932V123.019H217.567V124.012H215.932Z" fill="#6E7DFF"/>
<path d="M222.327 122.923C222.84 122.923 223.296 123.019 223.694 123.211C224.101 123.403 224.418 123.688 224.646 124.065C224.882 124.443 225 124.899 225 125.433V128.904H223.621V125.614C223.621 125.087 223.471 124.685 223.169 124.407C222.868 124.122 222.458 123.98 221.937 123.98C221.416 123.98 221.001 124.122 220.692 124.407C220.391 124.685 220.241 125.087 220.241 125.614V128.904H218.849V121H220.241V123.702C220.477 123.453 220.774 123.261 221.132 123.126C221.498 122.99 221.896 122.923 222.327 122.923Z" fill="#6E7DFF"/>
<path d="M140 125C140 134.389 120.748 142 97 142C73.2518 142 54 134.389 54 125C54 115.611 73.2518 108 97 108C120.748 108 140 115.611 140 125Z" fill="#F2F2F2"/>
<path d="M77 144L76.8626 144.481L76.881 144.486L76.8998 144.49L77 144ZM70 142L69.8205 142.467L69.8413 142.475L69.8626 142.481L70 142ZM125.5 142L125.647 142.478L125.68 142.468L125.711 142.453L125.5 142ZM55.7169 133.86L56.101 133.54L55.7169 133.86ZM59.816 137.351L59.564 137.783L59.816 137.351ZM138.573 133.658L138.964 133.971L138.573 133.658ZM136.144 136.055L136.451 136.449L136.144 136.055ZM138.606 133.618L138.996 133.93L138.606 133.618ZM130.521 139.657L130.733 140.11L130.521 139.657ZM135.159 136.821L134.852 136.426L135.159 136.821ZM66.1279 140.511L65.9484 140.977L66.1279 140.511ZM139.5 125C139.5 127.163 138.393 129.276 136.279 131.252C134.165 133.228 131.078 135.031 127.222 136.556C119.512 139.604 108.827 141.5 97 141.5V142.5C108.921 142.5 119.736 140.591 127.589 137.486C131.515 135.934 134.725 134.074 136.962 131.982C139.2 129.89 140.5 127.531 140.5 125H139.5ZM97 141.5C85.1726 141.5 74.4878 139.604 66.7782 136.556C62.922 135.031 59.8351 133.228 57.7206 131.252C55.6069 129.276 54.5 127.163 54.5 125H53.5C53.5 127.531 54.7996 129.89 57.0377 131.982C59.2751 134.074 62.4854 135.934 66.4106 137.486C74.264 140.591 85.0792 142.5 97 142.5V141.5ZM54.5 125C54.5 122.837 55.6069 120.724 57.7206 118.748C59.8351 116.772 62.922 114.969 66.7782 113.444C74.4878 110.396 85.1726 108.5 97 108.5V107.5C85.0792 107.5 74.264 109.409 66.4106 112.514C62.4854 114.066 59.2751 115.926 57.0377 118.018C54.7996 120.11 53.5 122.469 53.5 125H54.5ZM97 108.5C108.827 108.5 119.512 110.396 127.222 113.444C131.078 114.969 134.165 116.772 136.279 118.748C138.393 120.724 139.5 122.837 139.5 125H140.5C140.5 122.469 139.2 120.11 136.962 118.018C134.725 115.926 131.515 114.066 127.589 112.514C119.736 109.409 108.921 107.5 97 107.5V108.5ZM53.5 125V127.957H54.5V125H53.5ZM140.5 128.882V125H139.5V128.882H140.5ZM76.8998 144.49L78.8156 144.882L79.016 143.902L77.1002 143.51L76.8998 144.49ZM138.964 133.971L138.996 133.93L138.215 133.305L138.183 133.346L138.964 133.971ZM55.3327 134.18L55.3994 134.26L56.1676 133.62L56.101 133.54L55.3327 134.18ZM65.9484 140.977L69.8205 142.467L70.1795 141.533L66.3074 140.044L65.9484 140.977ZM69.8626 142.481L76.8626 144.481L77.1374 143.519L70.1374 141.519L69.8626 142.481ZM119.147 144.478L125.647 142.478L125.353 141.522L118.853 143.522L119.147 144.478ZM125.711 142.453L130.733 140.11L130.31 139.204L125.289 141.547L125.711 142.453ZM135.466 137.215L136.451 136.449L135.837 135.66L134.852 136.426L135.466 137.215ZM59.564 137.783L60.8161 138.513L61.3199 137.649L60.0679 136.919L59.564 137.783ZM54.1716 132.096C54.4253 132.857 54.8191 133.564 55.3327 134.18L56.101 133.54C55.6672 133.02 55.3345 132.422 55.1202 131.78L54.1716 132.096ZM55.3994 134.26C56.5723 135.668 57.9816 136.86 59.564 137.783L60.0679 136.919C58.5859 136.055 57.266 134.938 56.1676 133.62L55.3994 134.26ZM138.183 133.346C137.494 134.207 136.707 134.983 135.837 135.66L136.451 136.449C137.383 135.725 138.226 134.893 138.964 133.971L138.183 133.346ZM139.29 130.998C139.122 131.842 138.753 132.633 138.215 133.305L138.996 133.93C139.634 133.133 140.071 132.195 140.271 131.194L139.29 130.998ZM78.8156 144.882C92.1235 147.604 105.858 147.47 119.11 144.488L118.89 143.512C105.776 146.463 92.1852 146.596 79.016 143.902L78.8156 144.882ZM130.733 140.11C132.414 139.325 134.002 138.354 135.466 137.215L134.852 136.426C133.447 137.519 131.923 138.451 130.31 139.204L130.733 140.11ZM139.5 128.882C139.5 129.593 139.43 130.301 139.29 130.998L140.271 131.194C140.423 130.433 140.5 129.658 140.5 128.882H139.5ZM66.3074 140.044C64.5833 139.381 62.9155 138.58 61.3199 137.649L60.8161 138.513C62.458 139.471 64.1743 140.295 65.9484 140.977L66.3074 140.044ZM53.5 127.957C53.5 129.364 53.7268 130.761 54.1716 132.096L55.1202 131.78C54.7094 130.547 54.5 129.257 54.5 127.957H53.5Z" fill="#6FB1FF"/>
<path d="M66.9268 136.557C74.4741 139.604 85.0322 141.5 97 141.5C108.968 141.5 119.526 139.604 127.073 136.557C130.848 135.033 133.845 133.232 135.891 131.257C137.935 129.285 139.5 127.17 139.5 125H140C140 125.336 139.978 125.67 139.934 126H140C140 126.336 139.978 126.67 139.934 127H140C140 127.336 139.978 127.67 139.934 128H140C140 128.336 139.978 128.67 139.934 129H140C140 131.524 138.756 133.882 136.585 135.977C134.417 138.07 131.294 139.932 127.448 141.484C119.752 144.591 109.06 146.5 97 146.5C84.9402 146.5 74.2483 144.591 66.5525 141.484C62.7058 139.932 59.5833 138.07 57.4145 135.977C55.2438 133.882 54 131.524 54 129H54.0655C54.0221 128.67 54 128.336 54 128H54.0655C54.0221 127.67 54 127.336 54 127H54.0655C54.0221 126.67 54 126.336 54 126H54.0655C54.0221 125.67 54 125.336 54 125H54.5C54.5 127.17 56.0652 129.285 58.109 131.257C60.1546 133.232 63.1519 135.033 66.9268 136.557Z" fill="#6FB1FF"/>
<path d="M39 125C39 134.389 19.7482 142 -4 142C-27.7482 142 -47 134.389 -47 125C-47 115.611 -27.7482 108 -4 108C19.7482 108 39 115.611 39 125Z" fill="#F2F2F2"/>
<path d="M-24 144L-24.1374 144.481L-24.119 144.486L-24.1002 144.49L-24 144ZM-31 142L-31.1795 142.467L-31.1587 142.475L-31.1374 142.481L-31 142ZM24.5 142L24.647 142.478L24.6801 142.468L24.7114 142.453L24.5 142ZM-45.2831 133.86L-44.899 133.54L-45.2831 133.86ZM-41.184 137.351L-41.436 137.783L-41.184 137.351ZM37.5733 133.658L37.9637 133.971L37.5733 133.658ZM35.1438 136.055L35.4508 136.449L35.1438 136.055ZM37.6058 133.618L37.9962 133.93L37.6058 133.618ZM29.5214 139.657L29.7329 140.11L29.5214 139.657ZM34.159 136.821L33.8521 136.426L34.159 136.821ZM-34.8721 140.511L-35.0516 140.977L-34.8721 140.511ZM38.5 125C38.5 127.163 37.3931 129.276 35.2794 131.252C33.1649 133.228 30.078 135.031 26.2218 136.556C18.5122 139.604 7.8274 141.5 -4 141.5V142.5C7.92084 142.5 18.736 140.591 26.5894 137.486C30.5146 135.934 33.7249 134.074 35.9623 131.982C38.2004 129.89 39.5 127.531 39.5 125H38.5ZM-4 141.5C-15.8274 141.5 -26.5122 139.604 -34.2218 136.556C-38.078 135.031 -41.1649 133.228 -43.2794 131.252C-45.3931 129.276 -46.5 127.163 -46.5 125H-47.5C-47.5 127.531 -46.2004 129.89 -43.9623 131.982C-41.7249 134.074 -38.5146 135.934 -34.5894 137.486C-26.736 140.591 -15.9208 142.5 -4 142.5V141.5ZM-46.5 125C-46.5 122.837 -45.3931 120.724 -43.2794 118.748C-41.1649 116.772 -38.078 114.969 -34.2218 113.444C-26.5122 110.396 -15.8274 108.5 -4 108.5V107.5C-15.9208 107.5 -26.736 109.409 -34.5894 112.514C-38.5146 114.066 -41.7249 115.926 -43.9623 118.018C-46.2004 120.11 -47.5 122.469 -47.5 125H-46.5ZM-4 108.5C7.8274 108.5 18.5122 110.396 26.2218 113.444C30.078 114.969 33.1649 116.772 35.2794 118.748C37.3931 120.724 38.5 122.837 38.5 125H39.5C39.5 122.469 38.2004 120.11 35.9623 118.018C33.7249 115.926 30.5146 114.066 26.5894 112.514C18.736 109.409 7.92084 107.5 -4 107.5V108.5ZM-47.5 125V127.957H-46.5V125H-47.5ZM39.5 128.882V125H38.5V128.882H39.5ZM-24.1002 144.49L-22.1844 144.882L-21.984 143.902L-23.8998 143.51L-24.1002 144.49ZM37.9637 133.971L37.9962 133.93L37.2154 133.305L37.1829 133.346L37.9637 133.971ZM-45.6673 134.18L-45.6006 134.26L-44.8324 133.62L-44.899 133.54L-45.6673 134.18ZM-35.0516 140.977L-31.1795 142.467L-30.8205 141.533L-34.6926 140.044L-35.0516 140.977ZM-31.1374 142.481L-24.1374 144.481L-23.8626 143.519L-30.8626 141.519L-31.1374 142.481ZM18.147 144.478L24.647 142.478L24.353 141.522L17.853 143.522L18.147 144.478ZM24.7114 142.453L29.7329 140.11L29.31 139.204L24.2886 141.547L24.7114 142.453ZM34.466 137.215L35.4508 136.449L34.8368 135.66L33.8521 136.426L34.466 137.215ZM-41.436 137.783L-40.1839 138.513L-39.6801 137.649L-40.9321 136.919L-41.436 137.783ZM-46.8284 132.096C-46.5747 132.857 -46.1809 133.564 -45.6673 134.18L-44.899 133.54C-45.3328 133.02 -45.6655 132.422 -45.8798 131.78L-46.8284 132.096ZM-45.6006 134.26C-44.4277 135.668 -43.0184 136.86 -41.436 137.783L-40.9321 136.919C-42.4141 136.055 -43.734 134.938 -44.8324 133.62L-45.6006 134.26ZM37.1829 133.346C36.4943 134.207 35.7069 134.983 34.8368 135.66L35.4508 136.449C36.3827 135.725 37.2262 134.893 37.9637 133.971L37.1829 133.346ZM38.2904 130.998C38.1217 131.842 37.753 132.633 37.2154 133.305L37.9962 133.93C38.6337 133.133 39.0709 132.195 39.271 131.194L38.2904 130.998ZM-22.1844 144.882C-8.8765 147.604 4.85765 147.47 18.1098 144.488L17.8902 143.512C4.77624 146.463 -8.81478 146.596 -21.984 143.902L-22.1844 144.882ZM29.7329 140.11C31.414 139.325 33.0016 138.354 34.466 137.215L33.8521 136.426C32.4468 137.519 30.9232 138.451 29.31 139.204L29.7329 140.11ZM38.5 128.882C38.5 129.593 38.4298 130.301 38.2904 130.998L39.271 131.194C39.4233 130.433 39.5 129.658 39.5 128.882H38.5ZM-34.6926 140.044C-36.4167 139.381 -38.0845 138.58 -39.6801 137.649L-40.1839 138.513C-38.542 139.471 -36.8257 140.295 -35.0516 140.977L-34.6926 140.044ZM-47.5 127.957C-47.5 129.364 -47.2732 130.761 -46.8284 132.096L-45.8798 131.78C-46.2906 130.547 -46.5 129.257 -46.5 127.957H-47.5Z" fill="#BF6FFF"/>
<path d="M-34.0732 136.557C-26.5259 139.604 -15.9678 141.5 -4 141.5C7.9678 141.5 18.5259 139.604 26.0732 136.557C29.8481 135.033 32.8454 133.232 34.891 131.257C36.9348 129.285 38.5 127.17 38.5 125H39C39 125.336 38.9779 125.67 38.9345 126H39C39 126.336 38.9779 126.67 38.9345 127H39C39 127.336 38.9779 127.67 38.9345 128H39C39 128.336 38.9779 128.67 38.9345 129H39C39 131.524 37.7562 133.882 35.5855 135.977C33.4167 138.07 30.2942 139.932 26.4475 141.484C18.7517 144.591 8.05984 146.5 -4 146.5C-16.0598 146.5 -26.7517 144.591 -34.4475 141.484C-38.2942 139.932 -41.4167 138.07 -43.5855 135.977C-45.7562 133.882 -47 131.524 -47 129H-46.9345C-46.9779 128.67 -47 128.336 -47 128H-46.9345C-46.9779 127.67 -47 127.336 -47 127H-46.9345C-46.9779 126.67 -47 126.336 -47 126H-46.9345C-46.9779 125.67 -47 125.336 -47 125H-46.5C-46.5 127.17 -44.9348 129.285 -42.891 131.257C-40.8454 133.232 -37.8481 135.033 -34.0732 136.557Z" fill="#BF6FFF"/>
<path d="M226 17C226 26.3888 206.748 34 183 34C159.252 34 140 26.3888 140 17C140 7.61116 159.252 0 183 0C206.748 0 226 7.61116 226 17Z" fill="#F2F2F2"/>
<path d="M163 36L162.863 36.4808L162.881 36.486L162.9 36.4899L163 36ZM156 34L155.821 34.4667L155.841 34.4747L155.863 34.4808L156 34ZM211.5 34L211.647 34.4779L211.68 34.4677L211.711 34.4531L211.5 34ZM141.717 25.8602L142.101 25.5401L141.717 25.8602ZM145.816 29.351L145.564 29.7829L145.816 29.351ZM224.573 25.6584L224.964 25.9707L224.573 25.6584ZM222.144 28.0548L222.451 28.4495L222.144 28.0548ZM224.606 25.6177L224.996 25.9301L224.606 25.6177ZM216.521 31.6567L216.733 32.1098L216.521 31.6567ZM221.159 28.8208L220.852 28.4261L221.159 28.8208ZM152.128 32.5107L151.948 32.9774L152.128 32.5107ZM225.5 17C225.5 19.1632 224.393 21.2762 222.279 23.2519C220.165 25.2283 217.078 27.0313 213.222 28.5558C205.512 31.6038 194.827 33.5 183 33.5V34.5C194.921 34.5 205.736 32.5906 213.589 29.4858C217.515 27.934 220.725 26.0737 222.962 23.9824C225.2 21.8904 226.5 19.5312 226.5 17H225.5ZM183 33.5C171.173 33.5 160.488 31.6038 152.778 28.5558C148.922 27.0313 145.835 25.2283 143.721 23.2519C141.607 21.2762 140.5 19.1632 140.5 17H139.5C139.5 19.5312 140.8 21.8904 143.038 23.9824C145.275 26.0737 148.485 27.934 152.411 29.4858C160.264 32.5906 171.079 34.5 183 34.5V33.5ZM140.5 17C140.5 14.8368 141.607 12.7238 143.721 10.7481C145.835 8.77166 148.922 6.96873 152.778 5.44417C160.488 2.3962 171.173 0.5 183 0.5V-0.5C171.079 -0.5 160.264 1.40938 152.411 4.5142C148.485 6.06604 145.275 7.92631 143.038 10.0176C140.8 12.1096 139.5 14.4688 139.5 17H140.5ZM183 0.5C194.827 0.5 205.512 2.3962 213.222 5.44417C217.078 6.96873 220.165 8.77166 222.279 10.7481C224.393 12.7238 225.5 14.8368 225.5 17H226.5C226.5 14.4688 225.2 12.1096 222.962 10.0176C220.725 7.92631 217.515 6.06604 213.589 4.5142C205.736 1.40938 194.921 -0.5 183 -0.5V0.5ZM139.5 17V19.9575H140.5V17H139.5ZM226.5 20.8819V17H225.5V20.8819H226.5ZM162.9 36.4899L164.816 36.8817L165.016 35.902L163.1 35.5101L162.9 36.4899ZM224.964 25.9707L224.996 25.9301L224.215 25.3054L224.183 25.346L224.964 25.9707ZM141.333 26.1803L141.399 26.2603L142.168 25.6202L142.101 25.5401L141.333 26.1803ZM151.948 32.9774L155.821 34.4667L156.179 33.5333L152.307 32.044L151.948 32.9774ZM155.863 34.4808L162.863 36.4808L163.137 35.5192L156.137 33.5192L155.863 34.4808ZM205.147 36.4779L211.647 34.4779L211.353 33.5221L204.853 35.5221L205.147 36.4779ZM211.711 34.4531L216.733 32.1098L216.31 31.2036L211.289 33.5469L211.711 34.4531ZM221.466 29.2154L222.451 28.4495L221.837 27.6601L220.852 28.4261L221.466 29.2154ZM145.564 29.7829L146.816 30.5132L147.32 29.6494L146.068 28.9191L145.564 29.7829ZM140.172 24.0958C140.425 24.857 140.819 25.564 141.333 26.1803L142.101 25.5401C141.667 25.0196 141.335 24.4224 141.12 23.7796L140.172 24.0958ZM141.399 26.2603C142.572 27.6677 143.982 28.8598 145.564 29.7829L146.068 28.9191C144.586 28.0546 143.266 26.9382 142.168 25.6202L141.399 26.2603ZM224.183 25.346C223.494 26.2067 222.707 26.9834 221.837 27.6601L222.451 28.4495C223.383 27.7246 224.226 26.8927 224.964 25.9707L224.183 25.346ZM225.29 22.9983C225.122 23.8422 224.753 24.6334 224.215 25.3054L224.996 25.9301C225.634 25.1332 226.071 24.1951 226.271 23.1944L225.29 22.9983ZM164.816 36.8817C178.124 39.6038 191.858 39.4695 205.11 36.4878L204.89 35.5122C191.776 38.4628 178.185 38.5957 165.016 35.902L164.816 36.8817ZM216.733 32.1098C218.414 31.3252 220.002 30.3544 221.466 29.2154L220.852 28.4261C219.447 29.5191 217.923 30.4507 216.31 31.2036L216.733 32.1098ZM225.5 20.8819C225.5 21.5926 225.43 22.3015 225.29 22.9983L226.271 23.1944C226.423 22.433 226.5 21.6584 226.5 20.8819H225.5ZM152.307 32.044C150.583 31.381 148.915 30.5802 147.32 29.6494L146.816 30.5132C148.458 31.471 150.174 32.295 151.948 32.9774L152.307 32.044ZM139.5 19.9575C139.5 21.3641 139.727 22.7614 140.172 24.0958L141.12 23.7796C140.709 22.5472 140.5 21.2566 140.5 19.9575H139.5Z" fill="#6FB1FF"/>
<path d="M152.927 28.5572C160.474 31.6036 171.032 33.5 183 33.5C194.968 33.5 205.526 31.6036 213.073 28.5572C216.848 27.0335 219.845 25.2319 221.891 23.2574C223.935 21.2848 225.5 19.1705 225.5 17H226C226 17.3364 225.978 17.6698 225.934 18H226C226 18.3364 225.978 18.6698 225.934 19H226C226 19.3364 225.978 19.6698 225.934 20H226C226 20.3364 225.978 20.6698 225.934 21H226C226 23.524 224.756 25.8818 222.585 27.9769C220.417 30.0702 217.294 31.9318 213.448 33.4845C205.752 36.5908 195.06 38.5 183 38.5C170.94 38.5 160.248 36.5908 152.552 33.4845C148.706 31.9318 145.583 30.0702 143.415 27.9769C141.244 25.8818 140 23.524 140 21H140.066C140.022 20.6698 140 20.3364 140 20H140.066C140.022 19.6698 140 19.3364 140 19H140.066C140.022 18.6698 140 18.3364 140 18H140.066C140.022 17.6698 140 17.3364 140 17H140.5C140.5 19.1705 142.065 21.2848 144.109 23.2574C146.155 25.2319 149.152 27.0335 152.927 28.5572Z" fill="#6FB1FF"/>
<path d="M82 70C82 79.3888 62.7482 87 39 87C15.2518 87 -4 79.3888 -4 70C-4 60.6112 15.2518 53 39 53C62.7482 53 82 60.6112 82 70Z" fill="#F2F2F2"/>
<path d="M19 89L18.8626 89.4808L18.881 89.486L18.8998 89.4899L19 89ZM12 87L11.8205 87.4667L11.8413 87.4747L11.8626 87.4808L12 87ZM67.5 87L67.647 87.4779L67.6801 87.4677L67.7114 87.4531L67.5 87ZM-2.28314 78.8602L-1.89903 78.5401L-2.28314 78.8602ZM1.81596 82.351L1.56403 82.7829L1.81596 82.351ZM80.5733 78.6584L80.9637 78.9707L80.5733 78.6584ZM78.1438 81.0548L78.4508 81.4495L78.1438 81.0548ZM80.6058 78.6177L80.9962 78.9301L80.6058 78.6177ZM72.5214 84.6567L72.7329 85.1098L72.5214 84.6567ZM77.159 81.8208L76.8521 81.4261L77.159 81.8208ZM8.12786 85.5107L7.94837 85.9774L8.12786 85.5107ZM81.5 70C81.5 72.1632 80.3931 74.2762 78.2794 76.2519C76.1649 78.2283 73.078 80.0313 69.2218 81.5558C61.5122 84.6038 50.8274 86.5 39 86.5V87.5C50.9208 87.5 61.736 85.5906 69.5894 82.4858C73.5146 80.934 76.7249 79.0737 78.9623 76.9824C81.2004 74.8904 82.5 72.5312 82.5 70H81.5ZM39 86.5C27.1726 86.5 16.4878 84.6038 8.77824 81.5558C4.92199 80.0313 1.83509 78.2283 -0.279419 76.2519C-2.39312 74.2762 -3.5 72.1632 -3.5 70H-4.5C-4.5 72.5312 -3.20041 74.8904 -0.962274 76.9824C1.27505 79.0737 4.48536 80.934 8.41058 82.4858C16.264 85.5906 27.0792 87.5 39 87.5V86.5ZM-3.5 70C-3.5 67.8368 -2.39312 65.7238 -0.279419 63.7481C1.83509 61.7717 4.92199 59.9687 8.77824 58.4442C16.4878 55.3962 27.1726 53.5 39 53.5V52.5C27.0792 52.5 16.264 54.4094 8.41058 57.5142C4.48536 59.066 1.27505 60.9263 -0.962274 63.0176C-3.20041 65.1096 -4.5 67.4688 -4.5 70H-3.5ZM39 53.5C50.8274 53.5 61.5122 55.3962 69.2218 58.4442C73.078 59.9687 76.1649 61.7717 78.2794 63.7481C80.3931 65.7238 81.5 67.8368 81.5 70H82.5C82.5 67.4688 81.2004 65.1096 78.9623 63.0176C76.7249 60.9263 73.5146 59.066 69.5894 57.5142C61.736 54.4094 50.9208 52.5 39 52.5V53.5ZM-4.5 70V72.9575H-3.5V70H-4.5ZM82.5 73.8819V70H81.5V73.8819H82.5ZM18.8998 89.4899L20.8156 89.8817L21.016 88.902L19.1002 88.5101L18.8998 89.4899ZM80.9637 78.9707L80.9962 78.9301L80.2154 78.3054L80.1829 78.346L80.9637 78.9707ZM-2.66725 79.1803L-2.60057 79.2603L-1.83235 78.6202L-1.89903 78.5401L-2.66725 79.1803ZM7.94837 85.9774L11.8205 87.4667L12.1795 86.5333L8.30735 85.044L7.94837 85.9774ZM11.8626 87.4808L18.8626 89.4808L19.1374 88.5192L12.1374 86.5192L11.8626 87.4808ZM61.147 89.4779L67.647 87.4779L67.353 86.5221L60.853 88.5221L61.147 89.4779ZM67.7114 87.4531L72.7329 85.1098L72.31 84.2036L67.2886 86.5469L67.7114 87.4531ZM77.466 82.2154L78.4508 81.4495L77.8368 80.6601L76.8521 81.4261L77.466 82.2154ZM1.56403 82.7829L2.81607 83.5132L3.31994 82.6494L2.0679 81.9191L1.56403 82.7829ZM-3.82844 77.0958C-3.57473 77.857 -3.18089 78.564 -2.66725 79.1803L-1.89903 78.5401C-2.33284 78.0196 -2.66547 77.4224 -2.87976 76.7796L-3.82844 77.0958ZM-2.60057 79.2603C-1.42775 80.6677 -0.0184257 81.8598 1.56403 82.7829L2.0679 81.9191C0.585892 81.0546 -0.73397 79.9382 -1.83235 78.6202L-2.60057 79.2603ZM80.1829 78.346C79.4943 79.2067 78.7069 79.9834 77.8368 80.6601L78.4508 81.4495C79.3827 80.7246 80.2262 79.8927 80.9637 78.9707L80.1829 78.346ZM81.2904 75.9983C81.1217 76.8422 80.753 77.6334 80.2154 78.3054L80.9962 78.9301C81.6337 78.1332 82.0709 77.1951 82.271 76.1944L81.2904 75.9983ZM20.8156 89.8817C34.1235 92.6038 47.8577 92.4695 61.1098 89.4878L60.8902 88.5122C47.7762 91.4628 34.1852 91.5957 21.016 88.902L20.8156 89.8817ZM72.7329 85.1098C74.414 84.3252 76.0016 83.3544 77.466 82.2154L76.8521 81.4261C75.4468 82.5191 73.9232 83.4507 72.31 84.2036L72.7329 85.1098ZM81.5 73.8819C81.5 74.5926 81.4298 75.3015 81.2904 75.9983L82.271 76.1944C82.4233 75.433 82.5 74.6584 82.5 73.8819H81.5ZM8.30735 85.044C6.58332 84.381 4.91547 83.5802 3.31994 82.6494L2.81607 83.5132C4.45795 84.471 6.17426 85.295 7.94837 85.9774L8.30735 85.044ZM-4.5 72.9575C-4.5 74.3641 -4.27324 75.7614 -3.82844 77.0958L-2.87976 76.7796C-3.29057 75.5472 -3.5 74.2566 -3.5 72.9575H-4.5Z" fill="#6FB1FF"/>
<path d="M8.92679 81.5572C16.4741 84.6036 27.0322 86.5 39 86.5C50.9678 86.5 61.5259 84.6036 69.0732 81.5572C72.8481 80.0335 75.8454 78.2319 77.891 76.2574C79.9348 74.2848 81.5 72.1705 81.5 70H82C82 70.3364 81.9779 70.6698 81.9345 71H82C82 71.3364 81.9779 71.6698 81.9345 72H82C82 72.3364 81.9779 72.6698 81.9345 73H82C82 73.3364 81.9779 73.6698 81.9345 74H82C82 76.524 80.7562 78.8818 78.5855 80.9769C76.4167 83.0702 73.2942 84.9318 69.4475 86.4845C61.7517 89.5908 51.0598 91.5 39 91.5C26.9402 91.5 16.2483 89.5908 8.55249 86.4845C4.70581 84.9318 1.58327 83.0702 -0.585496 80.9769C-2.75619 78.8818 -4 76.524 -4 74H-3.93448C-3.97791 73.6698 -4 73.3364 -4 73H-3.93448C-3.97791 72.6698 -4 72.3364 -4 72H-3.93448C-3.97791 71.6698 -4 71.3364 -4 71H-3.93448C-3.97791 70.6698 -4 70.3364 -4 70H-3.5C-3.5 72.1705 -1.93476 74.2848 0.108974 76.2574C2.15464 78.2319 5.15192 80.0335 8.92679 81.5572Z" fill="#6FB1FF"/>
<g filter="url(#filter0_d_424_11511)">
<rect width="280" height="26" transform="translate(0 136)" fill="white"/>
<path d="M99.1992 144.984C100.143 144.984 100.967 145.164 101.671 145.524C102.375 145.876 102.915 146.376 103.291 147.024C103.675 147.664 103.867 148.404 103.867 149.244C103.867 149.924 103.747 150.556 103.507 151.14C103.275 151.724 102.927 152.192 102.463 152.544C102.007 152.888 101.463 153.06 100.831 153.06C100.407 153.06 100.055 152.976 99.7752 152.808C99.5032 152.64 99.3192 152.404 99.2232 152.1C98.9992 152.412 98.7112 152.656 98.3592 152.832C98.0072 153 97.6232 153.084 97.2072 153.084C96.6152 153.084 96.1472 152.908 95.8032 152.556C95.4672 152.196 95.2992 151.708 95.2992 151.092C95.2992 150.508 95.4192 149.96 95.6592 149.448C95.8992 148.928 96.2312 148.512 96.6552 148.2C97.0792 147.888 97.5552 147.732 98.0832 147.732C98.7552 147.732 99.2112 147.972 99.4512 148.452L99.5592 147.816H101.215L100.687 150.828C100.663 150.972 100.651 151.1 100.651 151.212C100.651 151.564 100.807 151.74 101.119 151.74C101.503 151.74 101.795 151.496 101.995 151.008C102.203 150.512 102.307 149.944 102.307 149.304C102.307 148.384 102.015 147.664 101.431 147.144C100.855 146.624 100.043 146.364 98.9952 146.364C98.0992 146.364 97.2832 146.58 96.5472 147.012C95.8192 147.444 95.2472 148.036 94.8312 148.788C94.4152 149.532 94.2072 150.352 94.2072 151.248C94.2072 152.216 94.4872 152.968 95.0472 153.504C95.6152 154.04 96.4072 154.308 97.4232 154.308C98.2152 154.308 98.9232 154.164 99.5472 153.876L99.8712 155.184C99.0872 155.528 98.2072 155.7 97.2312 155.7C96.3192 155.7 95.5152 155.524 94.8192 155.172C94.1312 154.82 93.5992 154.32 93.2232 153.672C92.8472 153.024 92.6592 152.268 92.6592 151.404C92.6592 150.196 92.9432 149.104 93.5112 148.128C94.0792 147.144 94.8592 146.376 95.8512 145.824C96.8512 145.264 97.9672 144.984 99.1992 144.984ZM97.8792 151.608C98.1032 151.608 98.3112 151.54 98.5032 151.404C98.7032 151.268 98.8592 151.088 98.9712 150.864C99.0912 150.632 99.1512 150.384 99.1512 150.12C99.1512 149.848 99.0752 149.628 98.9232 149.46C98.7712 149.284 98.5632 149.196 98.2992 149.196C97.9472 149.196 97.6552 149.348 97.4232 149.652C97.1912 149.956 97.0752 150.316 97.0752 150.732C97.0752 150.996 97.1432 151.208 97.2792 151.368C97.4152 151.528 97.6152 151.608 97.8792 151.608ZM114.032 146.232C114.864 146.232 115.524 146.484 116.012 146.988C116.508 147.492 116.756 148.192 116.756 149.088V153H114.716V149.364C114.716 148.932 114.6 148.6 114.368 148.368C114.144 148.128 113.832 148.008 113.432 148.008C113.032 148.008 112.716 148.128 112.484 148.368C112.26 148.6 112.148 148.932 112.148 149.364V153H110.108V149.364C110.108 148.932 109.992 148.6 109.76 148.368C109.536 148.128 109.224 148.008 108.824 148.008C108.424 148.008 108.108 148.128 107.876 148.368C107.652 148.6 107.54 148.932 107.54 149.364V153H105.488V146.304H107.54V147.144C107.748 146.864 108.02 146.644 108.356 146.484C108.692 146.316 109.072 146.232 109.496 146.232C110 146.232 110.448 146.34 110.84 146.556C111.24 146.772 111.552 147.08 111.776 147.48C112.008 147.112 112.324 146.812 112.724 146.58C113.124 146.348 113.56 146.232 114.032 146.232ZM124.503 149.544C124.503 149.736 124.491 149.936 124.467 150.144H119.823C119.855 150.56 119.987 150.88 120.219 151.104C120.459 151.32 120.751 151.428 121.095 151.428C121.607 151.428 121.963 151.212 122.163 150.78H124.347C124.235 151.22 124.031 151.616 123.735 151.968C123.447 152.32 123.083 152.596 122.643 152.796C122.203 152.996 121.711 153.096 121.167 153.096C120.511 153.096 119.927 152.956 119.415 152.676C118.903 152.396 118.503 151.996 118.215 151.476C117.927 150.956 117.783 150.348 117.783 149.652C117.783 148.956 117.923 148.348 118.203 147.828C118.491 147.308 118.891 146.908 119.403 146.628C119.915 146.348 120.503 146.208 121.167 146.208C121.815 146.208 122.391 146.344 122.895 146.616C123.399 146.888 123.791 147.276 124.071 147.78C124.359 148.284 124.503 148.872 124.503 149.544ZM122.403 149.004C122.403 148.652 122.283 148.372 122.043 148.164C121.803 147.956 121.503 147.852 121.143 147.852C120.799 147.852 120.507 147.952 120.267 148.152C120.035 148.352 119.891 148.636 119.835 149.004H122.403ZM129.318 151.26V153H128.274C127.53 153 126.95 152.82 126.534 152.46C126.118 152.092 125.91 151.496 125.91 150.672V148.008H125.094V146.304H125.91V144.672H127.962V146.304H129.306V148.008H127.962V150.696C127.962 150.896 128.01 151.04 128.106 151.128C128.202 151.216 128.362 151.26 128.586 151.26H129.318ZM130.053 149.64C130.053 148.952 130.181 148.348 130.437 147.828C130.701 147.308 131.057 146.908 131.505 146.628C131.953 146.348 132.453 146.208 133.005 146.208C133.477 146.208 133.889 146.304 134.241 146.496C134.601 146.688 134.877 146.94 135.069 147.252V146.304H137.121V153H135.069V152.052C134.869 152.364 134.589 152.616 134.229 152.808C133.877 153 133.465 153.096 132.993 153.096C132.449 153.096 131.953 152.956 131.505 152.676C131.057 152.388 130.701 151.984 130.437 151.464C130.181 150.936 130.053 150.328 130.053 149.64ZM135.069 149.652C135.069 149.14 134.925 148.736 134.637 148.44C134.357 148.144 134.013 147.996 133.605 147.996C133.197 147.996 132.849 148.144 132.561 148.44C132.281 148.728 132.141 149.128 132.141 149.64C132.141 150.152 132.281 150.56 132.561 150.864C132.849 151.16 133.197 151.308 133.605 151.308C134.013 151.308 134.357 151.16 134.637 150.864C134.925 150.568 135.069 150.164 135.069 149.652ZM147.149 146.232C147.981 146.232 148.641 146.484 149.129 146.988C149.625 147.492 149.873 148.192 149.873 149.088V153H147.833V149.364C147.833 148.932 147.717 148.6 147.485 148.368C147.261 148.128 146.949 148.008 146.549 148.008C146.149 148.008 145.833 148.128 145.601 148.368C145.377 148.6 145.265 148.932 145.265 149.364V153H143.225V149.364C143.225 148.932 143.109 148.6 142.877 148.368C142.653 148.128 142.341 148.008 141.941 148.008C141.541 148.008 141.225 148.128 140.993 148.368C140.769 148.6 140.657 148.932 140.657 149.364V153H138.605V146.304H140.657V147.144C140.865 146.864 141.137 146.644 141.473 146.484C141.809 146.316 142.189 146.232 142.613 146.232C143.117 146.232 143.565 146.34 143.957 146.556C144.357 146.772 144.669 147.08 144.893 147.48C145.125 147.112 145.441 146.812 145.841 146.58C146.241 146.348 146.677 146.232 147.149 146.232ZM150.9 149.64C150.9 148.952 151.028 148.348 151.284 147.828C151.548 147.308 151.904 146.908 152.352 146.628C152.8 146.348 153.3 146.208 153.852 146.208C154.324 146.208 154.736 146.304 155.088 146.496C155.448 146.688 155.724 146.94 155.916 147.252V146.304H157.968V153H155.916V152.052C155.716 152.364 155.436 152.616 155.076 152.808C154.724 153 154.312 153.096 153.84 153.096C153.296 153.096 152.8 152.956 152.352 152.676C151.904 152.388 151.548 151.984 151.284 151.464C151.028 150.936 150.9 150.328 150.9 149.64ZM155.916 149.652C155.916 149.14 155.772 148.736 155.484 148.44C155.204 148.144 154.86 147.996 154.452 147.996C154.044 147.996 153.696 148.144 153.408 148.44C153.128 148.728 152.988 149.128 152.988 149.64C152.988 150.152 153.128 150.56 153.408 150.864C153.696 151.16 154.044 151.308 154.452 151.308C154.86 151.308 155.204 151.16 155.484 150.864C155.772 150.568 155.916 150.164 155.916 149.652ZM160.485 145.608C160.125 145.608 159.829 145.504 159.597 145.296C159.373 145.08 159.261 144.816 159.261 144.504C159.261 144.184 159.373 143.92 159.597 143.712C159.829 143.496 160.125 143.388 160.485 143.388C160.837 143.388 161.125 143.496 161.349 143.712C161.581 143.92 161.697 144.184 161.697 144.504C161.697 144.816 161.581 145.08 161.349 145.296C161.125 145.504 160.837 145.608 160.485 145.608ZM161.505 146.304V153H159.453V146.304H161.505ZM165.044 144.12V153H162.992V144.12H165.044ZM167.491 153.096C167.131 153.096 166.835 152.992 166.603 152.784C166.379 152.568 166.267 152.304 166.267 151.992C166.267 151.672 166.379 151.404 166.603 151.188C166.835 150.972 167.131 150.864 167.491 150.864C167.843 150.864 168.131 150.972 168.355 151.188C168.587 151.404 168.703 151.672 168.703 151.992C168.703 152.304 168.587 152.568 168.355 152.784C168.131 152.992 167.843 153.096 167.491 153.096ZM170.95 145.608C170.59 145.608 170.294 145.504 170.062 145.296C169.838 145.08 169.726 144.816 169.726 144.504C169.726 144.184 169.838 143.92 170.062 143.712C170.294 143.496 170.59 143.388 170.95 143.388C171.302 143.388 171.59 143.496 171.814 143.712C172.046 143.92 172.162 144.184 172.162 144.504C172.162 144.816 172.046 145.08 171.814 145.296C171.59 145.504 171.302 145.608 170.95 145.608ZM171.97 146.304V153H169.918V146.304H171.97ZM177.537 146.232C178.321 146.232 178.945 146.488 179.409 147C179.881 147.504 180.117 148.2 180.117 149.088V153H178.077V149.364C178.077 148.916 177.961 148.568 177.729 148.32C177.497 148.072 177.185 147.948 176.793 147.948C176.401 147.948 176.089 148.072 175.857 148.32C175.625 148.568 175.509 148.916 175.509 149.364V153H173.457V146.304H175.509V147.192C175.717 146.896 175.997 146.664 176.349 146.496C176.701 146.32 177.097 146.232 177.537 146.232ZM185.635 153L183.595 150.192V153H181.543V144.12H183.595V149.028L185.623 146.304H188.155L185.371 149.664L188.179 153H185.635Z" fill="#0069E5"/>
</g>
<path d="M327 17C327 26.3888 307.748 34 284 34C260.252 34 241 26.3888 241 17C241 7.61116 260.252 0 284 0C307.748 0 327 7.61116 327 17Z" fill="white"/>
<path d="M264 36L263.863 36.4808L263.881 36.486L263.9 36.4899L264 36ZM257 34L256.821 34.4667L256.841 34.4747L256.863 34.4808L257 34ZM312.5 34L312.647 34.4779L312.68 34.4677L312.711 34.4531L312.5 34ZM242.717 25.8602L243.101 25.5401L242.717 25.8602ZM246.816 29.351L246.564 29.7829L246.816 29.351ZM325.573 25.6584L325.964 25.9707L325.573 25.6584ZM323.144 28.0548L323.451 28.4495L323.144 28.0548ZM325.606 25.6177L325.996 25.9301L325.606 25.6177ZM317.521 31.6567L317.733 32.1098L317.521 31.6567ZM322.159 28.8208L321.852 28.4261L322.159 28.8208ZM253.128 32.5107L252.948 32.9774L253.128 32.5107ZM326.5 17C326.5 19.1632 325.393 21.2762 323.279 23.2519C321.165 25.2283 318.078 27.0313 314.222 28.5558C306.512 31.6038 295.827 33.5 284 33.5V34.5C295.921 34.5 306.736 32.5906 314.589 29.4858C318.515 27.934 321.725 26.0737 323.962 23.9824C326.2 21.8904 327.5 19.5312 327.5 17H326.5ZM284 33.5C272.173 33.5 261.488 31.6038 253.778 28.5558C249.922 27.0313 246.835 25.2283 244.721 23.2519C242.607 21.2762 241.5 19.1632 241.5 17H240.5C240.5 19.5312 241.8 21.8904 244.038 23.9824C246.275 26.0737 249.485 27.934 253.411 29.4858C261.264 32.5906 272.079 34.5 284 34.5V33.5ZM241.5 17C241.5 14.8368 242.607 12.7238 244.721 10.7481C246.835 8.77166 249.922 6.96873 253.778 5.44417C261.488 2.3962 272.173 0.5 284 0.5V-0.5C272.079 -0.5 261.264 1.40938 253.411 4.5142C249.485 6.06604 246.275 7.92631 244.038 10.0176C241.8 12.1096 240.5 14.4688 240.5 17H241.5ZM284 0.5C295.827 0.5 306.512 2.3962 314.222 5.44417C318.078 6.96873 321.165 8.77166 323.279 10.7481C325.393 12.7238 326.5 14.8368 326.5 17H327.5C327.5 14.4688 326.2 12.1096 323.962 10.0176C321.725 7.92631 318.515 6.06604 314.589 4.5142C306.736 1.40938 295.921 -0.5 284 -0.5V0.5ZM240.5 17V19.9575H241.5V17H240.5ZM327.5 20.8819V17H326.5V20.8819H327.5ZM263.9 36.4899L265.816 36.8817L266.016 35.902L264.1 35.5101L263.9 36.4899ZM325.964 25.9707L325.996 25.9301L325.215 25.3054L325.183 25.346L325.964 25.9707ZM242.333 26.1803L242.399 26.2603L243.168 25.6202L243.101 25.5401L242.333 26.1803ZM252.948 32.9774L256.821 34.4667L257.179 33.5333L253.307 32.044L252.948 32.9774ZM256.863 34.4808L263.863 36.4808L264.137 35.5192L257.137 33.5192L256.863 34.4808ZM306.147 36.4779L312.647 34.4779L312.353 33.5221L305.853 35.5221L306.147 36.4779ZM312.711 34.4531L317.733 32.1098L317.31 31.2036L312.289 33.5469L312.711 34.4531ZM322.466 29.2154L323.451 28.4495L322.837 27.6601L321.852 28.4261L322.466 29.2154ZM246.564 29.7829L247.816 30.5132L248.32 29.6494L247.068 28.9191L246.564 29.7829ZM241.172 24.0958C241.425 24.857 241.819 25.564 242.333 26.1803L243.101 25.5401C242.667 25.0196 242.335 24.4224 242.12 23.7796L241.172 24.0958ZM242.399 26.2603C243.572 27.6677 244.982 28.8598 246.564 29.7829L247.068 28.9191C245.586 28.0546 244.266 26.9382 243.168 25.6202L242.399 26.2603ZM325.183 25.346C324.494 26.2067 323.707 26.9834 322.837 27.6601L323.451 28.4495C324.383 27.7246 325.226 26.8927 325.964 25.9707L325.183 25.346ZM326.29 22.9983C326.122 23.8422 325.753 24.6334 325.215 25.3054L325.996 25.9301C326.634 25.1332 327.071 24.1951 327.271 23.1944L326.29 22.9983ZM265.816 36.8817C279.124 39.6038 292.858 39.4695 306.11 36.4878L305.89 35.5122C292.776 38.4628 279.185 38.5957 266.016 35.902L265.816 36.8817ZM317.733 32.1098C319.414 31.3252 321.002 30.3544 322.466 29.2154L321.852 28.4261C320.447 29.5191 318.923 30.4507 317.31 31.2036L317.733 32.1098ZM326.5 20.8819C326.5 21.5926 326.43 22.3015 326.29 22.9983L327.271 23.1944C327.423 22.433 327.5 21.6584 327.5 20.8819H326.5ZM253.307 32.044C251.583 31.381 249.915 30.5802 248.32 29.6494L247.816 30.5132C249.458 31.471 251.174 32.295 252.948 32.9774L253.307 32.044ZM240.5 19.9575C240.5 21.3641 240.727 22.7614 241.172 24.0958L242.12 23.7796C241.709 22.5472 241.5 21.2566 241.5 19.9575H240.5Z" fill="#BF6FFF"/>
<path d="M253.927 28.5572C261.474 31.6036 272.032 33.5 284 33.5C295.968 33.5 306.526 31.6036 314.073 28.5572C317.848 27.0335 320.845 25.2319 322.891 23.2574C324.935 21.2848 326.5 19.1705 326.5 17H327C327 17.3364 326.978 17.6698 326.934 18H327C327 18.3364 326.978 18.6698 326.934 19H327C327 19.3364 326.978 19.6698 326.934 20H327C327 20.3364 326.978 20.6698 326.934 21H327C327 23.524 325.756 25.8818 323.585 27.9769C321.417 30.0702 318.294 31.9318 314.448 33.4845C306.752 36.5908 296.06 38.5 284 38.5C271.94 38.5 261.248 36.5908 253.552 33.4845C249.706 31.9318 246.583 30.0702 244.415 27.9769C242.244 25.8818 241 23.524 241 21H241.066C241.022 20.6698 241 20.3364 241 20H241.066C241.022 19.6698 241 19.3364 241 19H241.066C241.022 18.6698 241 18.3364 241 18H241.066C241.022 17.6698 241 17.3364 241 17H241.5C241.5 19.1705 243.065 21.2848 245.109 23.2574C247.155 25.2319 250.152 27.0335 253.927 28.5572Z" fill="#BF6FFF"/>
<path d="M251 16.0304C251 14.8624 251.231 13.9511 251.694 13.2962C252.165 12.6346 252.97 12.3038 254.111 12.3038C255.252 12.3038 256.053 12.6346 256.516 13.2962C256.987 13.9511 257.222 14.8624 257.222 16.0304C257.222 17.2118 256.987 18.1367 256.516 18.8051C256.053 19.4667 255.252 19.7975 254.111 19.7975C252.97 19.7975 252.165 19.4667 251.694 18.8051C251.231 18.1367 251 17.2118 251 16.0304ZM255.882 16.0304C255.882 15.4835 255.838 15.0211 255.75 14.643C255.671 14.265 255.503 13.9578 255.248 13.7215C254.993 13.4785 254.614 13.357 254.111 13.357C253.609 13.357 253.23 13.4785 252.974 13.7215C252.719 13.9578 252.548 14.265 252.46 14.643C252.38 15.0211 252.34 15.4835 252.34 16.0304C252.34 16.5975 252.38 17.0734 252.46 17.4582C252.54 17.843 252.707 18.1536 252.962 18.3899C253.226 18.6262 253.609 18.7443 254.111 18.7443C254.614 18.7443 254.993 18.6262 255.248 18.3899C255.511 18.1536 255.683 17.843 255.762 17.4582C255.842 17.0734 255.882 16.5975 255.882 16.0304Z" fill="#BF6FFF"/>
<path d="M261.669 16.9924L263.799 19.8177H262.255L260.831 17.9241L259.491 19.8177H258.067L260.197 17.0734L258.067 14.238H259.611L261.035 16.1316L262.375 14.238H263.799L261.669 16.9924Z" fill="#BF6FFF"/>
<path d="M266.18 15.0684C266.411 14.7983 266.727 14.5789 267.125 14.4101C267.532 14.2346 267.983 14.1468 268.478 14.1468C269.06 14.1468 269.586 14.265 270.057 14.5013C270.528 14.7376 270.899 15.0751 271.17 15.5139C271.441 15.946 271.577 16.4422 271.577 17.0025C271.577 17.5629 271.441 18.0658 271.17 18.5114C270.899 18.9502 270.524 19.2945 270.045 19.5443C269.574 19.7873 269.052 19.9089 268.478 19.9089C267.967 19.9089 267.512 19.8245 267.113 19.6557C266.723 19.4869 266.411 19.2709 266.18 19.0076V19.8177H264.816V12.3241H266.18V15.0684ZM270.189 17.0025C270.189 16.6177 270.093 16.2869 269.901 16.0101C269.718 15.7266 269.471 15.5139 269.16 15.3722C268.856 15.2236 268.529 15.1494 268.178 15.1494C267.835 15.1494 267.508 15.2236 267.197 15.3722C266.894 15.5207 266.647 15.7367 266.455 16.0203C266.272 16.3038 266.18 16.638 266.18 17.0228C266.18 17.4076 266.272 17.7451 266.455 18.0354C266.647 18.319 266.894 18.535 267.197 18.6835C267.508 18.8321 267.835 18.9063 268.178 18.9063C268.529 18.9063 268.856 18.8321 269.16 18.6835C269.471 18.5283 269.718 18.3055 269.901 18.0152C270.093 17.7249 270.189 17.3873 270.189 17.0025Z" fill="#BF6FFF"/>
<path d="M272.722 14.2582C272.77 13.6304 273.053 13.1409 273.572 12.7899C274.098 12.4388 274.768 12.2633 275.582 12.2633C276.14 12.2633 276.623 12.3477 277.03 12.5165C277.437 12.6852 277.744 12.9148 277.951 13.2051C278.159 13.4954 278.262 13.8228 278.262 14.1873C278.262 14.6059 278.131 14.9637 277.867 15.2608C277.604 15.5578 277.289 15.757 276.922 15.8582V15.8987C277.393 16.0203 277.76 16.243 278.023 16.5671C278.286 16.8844 278.418 17.2928 278.418 17.7924C278.418 18.1907 278.31 18.5451 278.095 18.8557C277.879 19.1662 277.56 19.4127 277.137 19.5949C276.715 19.7705 276.208 19.8582 275.618 19.8582C274.756 19.8582 274.046 19.6726 273.488 19.3013C272.938 18.9232 272.642 18.3831 272.602 17.681H273.919C273.951 18.0388 274.114 18.3325 274.409 18.562C274.704 18.7848 275.103 18.8962 275.606 18.8962C276.092 18.8962 276.467 18.7848 276.731 18.562C276.994 18.3325 277.125 18.0388 277.125 17.681C277.125 17.2084 276.946 16.8743 276.587 16.6785C276.236 16.4759 275.694 16.3747 274.96 16.3747H274.649V15.4228H274.972C275.618 15.416 276.108 15.3249 276.443 15.1494C276.786 14.9738 276.958 14.697 276.958 14.319C276.958 13.9949 276.834 13.7384 276.587 13.5494C276.34 13.3536 275.989 13.2557 275.534 13.2557C275.087 13.2557 274.74 13.3536 274.493 13.5494C274.246 13.7384 274.098 13.9747 274.05 14.2582H272.722Z" fill="#BF6FFF"/>
<path d="M281.322 15.9595C280.493 15.6084 280.078 15.0549 280.078 14.2987C280.078 13.9342 280.186 13.6 280.401 13.2962C280.616 12.9924 280.94 12.7527 281.37 12.5772C281.801 12.3949 282.328 12.3038 282.95 12.3038C283.564 12.3038 284.086 12.3949 284.517 12.5772C284.956 12.7527 285.283 12.9924 285.498 13.2962C285.714 13.6 285.821 13.9342 285.821 14.2987C285.821 14.6768 285.706 15.011 285.474 15.3013C285.251 15.5848 284.952 15.8042 284.577 15.9595C285.032 16.1013 285.391 16.3342 285.654 16.6582C285.917 16.9755 286.049 17.3502 286.049 17.7823C286.049 18.2211 285.917 18.6093 285.654 18.9468C285.391 19.2844 285.024 19.5443 284.553 19.7266C284.082 19.9089 283.548 20 282.95 20C282.351 20 281.817 19.9089 281.346 19.7266C280.884 19.5443 280.521 19.2844 280.257 18.9468C279.994 18.6093 279.863 18.2211 279.863 17.7823C279.863 17.3435 279.994 16.9654 280.257 16.6481C280.521 16.3308 280.876 16.1013 281.322 15.9595ZM284.517 14.4405C284.517 14.0624 284.378 13.7722 284.098 13.5696C283.819 13.3671 283.436 13.2658 282.95 13.2658C282.471 13.2658 282.092 13.3671 281.813 13.5696C281.534 13.7722 281.394 14.0658 281.394 14.4506C281.394 14.7882 281.538 15.065 281.825 15.281C282.12 15.4903 282.495 15.5949 282.95 15.5949C283.404 15.5949 283.779 15.4869 284.075 15.2709C284.37 15.0549 284.517 14.7781 284.517 14.4405ZM282.95 16.4658C282.423 16.4658 281.992 16.5772 281.657 16.8C281.33 17.016 281.167 17.33 281.167 17.7418C281.167 18.1266 281.326 18.4405 281.645 18.6835C281.965 18.9198 282.399 19.038 282.95 19.038C283.492 19.038 283.919 18.9165 284.23 18.6734C284.549 18.4304 284.709 18.1198 284.709 17.7418C284.709 17.3367 284.545 17.0228 284.218 16.8C283.899 16.5772 283.476 16.4658 282.95 16.4658Z" fill="#BF6FFF"/>
<path d="M287.457 14.2582C287.505 13.6304 287.788 13.1409 288.307 12.7899C288.833 12.4388 289.503 12.2633 290.317 12.2633C290.875 12.2633 291.358 12.3477 291.765 12.5165C292.172 12.6852 292.479 12.9148 292.686 13.2051C292.893 13.4954 292.997 13.8228 292.997 14.1873C292.997 14.6059 292.866 14.9637 292.602 15.2608C292.339 15.5578 292.024 15.757 291.657 15.8582V15.8987C292.128 16.0203 292.495 16.243 292.758 16.5671C293.021 16.8844 293.153 17.2928 293.153 17.7924C293.153 18.1907 293.045 18.5451 292.83 18.8557C292.614 19.1662 292.295 19.4127 291.872 19.5949C291.45 19.7705 290.943 19.8582 290.353 19.8582C289.491 19.8582 288.781 19.6726 288.223 19.3013C287.673 18.9232 287.377 18.3831 287.337 17.681H288.654C288.686 18.0388 288.849 18.3325 289.144 18.562C289.439 18.7848 289.838 18.8962 290.341 18.8962C290.827 18.8962 291.202 18.7848 291.466 18.562C291.729 18.3325 291.86 18.0388 291.86 17.681C291.86 17.2084 291.681 16.8743 291.322 16.6785C290.971 16.4759 290.429 16.3747 289.695 16.3747H289.384V15.4228H289.707C290.353 15.416 290.843 15.3249 291.178 15.1494C291.521 14.9738 291.693 14.697 291.693 14.319C291.693 13.9949 291.569 13.7384 291.322 13.5494C291.075 13.3536 290.724 13.2557 290.269 13.2557C289.822 13.2557 289.475 13.3536 289.228 13.5494C288.981 13.7384 288.833 13.9747 288.785 14.2582H287.457Z" fill="#BF6FFF"/>
<path d="M294.562 14.2582C294.61 13.6304 294.893 13.1409 295.411 12.7899C295.938 12.4388 296.608 12.2633 297.421 12.2633C297.98 12.2633 298.462 12.3477 298.869 12.5165C299.276 12.6852 299.583 12.9148 299.791 13.2051C299.998 13.4954 300.102 13.8228 300.102 14.1873C300.102 14.6059 299.97 14.9637 299.707 15.2608C299.444 15.5578 299.129 15.757 298.762 15.8582V15.8987C299.232 16.0203 299.599 16.243 299.862 16.5671C300.126 16.8844 300.257 17.2928 300.257 17.7924C300.257 18.1907 300.15 18.5451 299.934 18.8557C299.719 19.1662 299.4 19.4127 298.977 19.5949C298.554 19.7705 298.048 19.8582 297.457 19.8582C296.596 19.8582 295.886 19.6726 295.327 19.3013C294.777 18.9232 294.482 18.3831 294.442 17.681H295.758C295.79 18.0388 295.954 18.3325 296.249 18.562C296.544 18.7848 296.943 18.8962 297.445 18.8962C297.932 18.8962 298.307 18.7848 298.57 18.562C298.833 18.3325 298.965 18.0388 298.965 17.681C298.965 17.2084 298.786 16.8743 298.427 16.6785C298.076 16.4759 297.533 16.3747 296.799 16.3747H296.488V15.4228H296.811C297.457 15.416 297.948 15.3249 298.283 15.1494C298.626 14.9738 298.798 14.697 298.798 14.319C298.798 13.9949 298.674 13.7384 298.427 13.5494C298.179 13.3536 297.828 13.2557 297.374 13.2557C296.927 13.2557 296.58 13.3536 296.333 13.5494C296.085 13.7384 295.938 13.9747 295.89 14.2582H294.562Z" fill="#BF6FFF"/>
<path d="M304.634 15.1797H303.413V19.8177H302.037V15.1797H301.259V14.238H302.037V13.843C302.037 13.2017 302.237 12.7359 302.635 12.4456C303.042 12.1485 303.676 12 304.538 12V12.962C304.123 12.962 303.832 13.0295 303.665 13.1646C303.497 13.2928 303.413 13.519 303.413 13.843V14.238H304.634V15.1797Z" fill="#BF6FFF"/>
<path d="M308.607 15.1797H307.386V19.8177H306.01V15.1797H305.232V14.238H306.01V13.843C306.01 13.2017 306.21 12.7359 306.608 12.4456C307.015 12.1485 307.649 12 308.511 12V12.962C308.096 12.962 307.805 13.0295 307.637 13.1646C307.47 13.2928 307.386 13.519 307.386 13.843V14.238H308.607V15.1797Z" fill="#BF6FFF"/>
<path d="M310.366 19.8886C310.119 19.8886 309.911 19.8177 309.744 19.6759C309.576 19.5342 309.493 19.3586 309.493 19.1494C309.493 18.9401 309.576 18.7646 309.744 18.6228C309.911 18.481 310.119 18.4101 310.366 18.4101C310.605 18.4101 310.809 18.481 310.976 18.6228C311.144 18.7646 311.228 18.9401 311.228 19.1494C311.228 19.3586 311.144 19.5342 310.976 19.6759C310.809 19.8177 310.605 19.8886 310.366 19.8886Z" fill="#BF6FFF"/>
<path d="M313.252 19.8886C313.005 19.8886 312.798 19.8177 312.63 19.6759C312.463 19.5342 312.379 19.3586 312.379 19.1494C312.379 18.9401 312.463 18.7646 312.63 18.6228C312.798 18.481 313.005 18.4101 313.252 18.4101C313.492 18.4101 313.695 18.481 313.862 18.6228C314.03 18.7646 314.114 18.9401 314.114 19.1494C314.114 19.3586 314.03 19.5342 313.862 19.6759C313.695 19.8177 313.492 19.8886 313.252 19.8886Z" fill="#BF6FFF"/>
<path d="M316.138 19.8886C315.891 19.8886 315.684 19.8177 315.516 19.6759C315.349 19.5342 315.265 19.3586 315.265 19.1494C315.265 18.9401 315.349 18.7646 315.516 18.6228C315.684 18.481 315.891 18.4101 316.138 18.4101C316.378 18.4101 316.581 18.481 316.749 18.6228C316.916 18.7646 317 18.9401 317 19.1494C317 19.3586 316.916 19.5342 316.749 19.6759C316.581 19.8177 316.378 19.8886 316.138 19.8886Z" fill="#BF6FFF"/>
</g>
<defs>
<filter id="filter0_d_424_11511" x="-4" y="128" width="288" height="34" filterUnits="userSpaceOnUse" color-interpolation-filters="sRGB">
<feFlood flood-opacity="0" result="BackgroundImageFix"/>
<feColorMatrix in="SourceAlpha" type="matrix" values="0 0 0 0 0 0 0 0 0 0 0 0 0 0 0 0 0 0 127 0" result="hardAlpha"/>
<feOffset dy="-4"/>
<feGaussianBlur stdDeviation="2"/>
<feComposite in2="hardAlpha" operator="out"/>
<feColorMatrix type="matrix" values="0 0 0 0 0 0 0 0 0 0 0 0 0 0 0 0 0 0 0.05 0"/>
<feBlend mode="normal" in2="BackgroundImageFix" result="effect1_dropShadow_424_11511"/>
<feBlend mode="normal" in="SourceGraphic" in2="effect1_dropShadow_424_11511" result="shape"/>
</filter>
<clipPath id="clip0_424_11511">
<rect width="300" height="160" fill="white"/>
</clipPath>
</defs>
</svg>
