<svg width="300" height="160" viewBox="0 0 300 160" fill="none" xmlns="http://www.w3.org/2000/svg">
<g clip-path="url(#clip0_437_782)">
<path d="M183 71C183 80.3888 163.748 88 140 88C116.252 88 97 80.3888 97 71C97 61.6112 116.252 54 140 54C163.748 54 183 61.6112 183 71Z" fill="white"/>
<path d="M120 90L119.863 90.4808L119.881 90.486L119.9 90.4899L120 90ZM113 88L112.821 88.4667L112.841 88.4747L112.863 88.4808L113 88ZM168.5 88L168.647 88.4779L168.68 88.4677L168.711 88.4531L168.5 88ZM98.7169 79.8602L99.101 79.5401L98.7169 79.8602ZM102.816 83.351L102.564 83.7829L102.816 83.351ZM181.573 79.6584L181.964 79.9707L181.573 79.6584ZM179.144 82.0548L179.451 82.4495L179.144 82.0548ZM181.606 79.6177L181.996 79.9301L181.606 79.6177ZM173.521 85.6567L173.733 86.1098L173.521 85.6567ZM178.159 82.8208L177.852 82.4261L178.159 82.8208ZM109.128 86.5107L108.948 86.9774L109.128 86.5107ZM182.5 71C182.5 73.1632 181.393 75.2762 179.279 77.2519C177.165 79.2283 174.078 81.0313 170.222 82.5558C162.512 85.6038 151.827 87.5 140 87.5V88.5C151.921 88.5 162.736 86.5906 170.589 83.4858C174.515 81.934 177.725 80.0737 179.962 77.9824C182.2 75.8904 183.5 73.5312 183.5 71H182.5ZM140 87.5C128.173 87.5 117.488 85.6038 109.778 82.5558C105.922 81.0313 102.835 79.2283 100.721 77.2519C98.6069 75.2762 97.5 73.1632 97.5 71H96.5C96.5 73.5312 97.7996 75.8904 100.038 77.9824C102.275 80.0737 105.485 81.934 109.411 83.4858C117.264 86.5906 128.079 88.5 140 88.5V87.5ZM97.5 71C97.5 68.8368 98.6069 66.7238 100.721 64.7481C102.835 62.7717 105.922 60.9687 109.778 59.4442C117.488 56.3962 128.173 54.5 140 54.5V53.5C128.079 53.5 117.264 55.4094 109.411 58.5142C105.485 60.066 102.275 61.9263 100.038 64.0176C97.7996 66.1096 96.5 68.4688 96.5 71H97.5ZM140 54.5C151.827 54.5 162.512 56.3962 170.222 59.4442C174.078 60.9687 177.165 62.7717 179.279 64.7481C181.393 66.7238 182.5 68.8368 182.5 71H183.5C183.5 68.4688 182.2 66.1096 179.962 64.0176C177.725 61.9263 174.515 60.066 170.589 58.5142C162.736 55.4094 151.921 53.5 140 53.5V54.5ZM96.5 71V73.9575H97.5V71H96.5ZM183.5 74.8819V71H182.5V74.8819H183.5ZM119.9 90.4899L121.816 90.8817L122.016 89.902L120.1 89.5101L119.9 90.4899ZM181.964 79.9707L181.996 79.9301L181.215 79.3054L181.183 79.346L181.964 79.9707ZM98.3327 80.1803L98.3994 80.2603L99.1676 79.6202L99.101 79.5401L98.3327 80.1803ZM108.948 86.9774L112.821 88.4667L113.179 87.5333L109.307 86.044L108.948 86.9774ZM112.863 88.4808L119.863 90.4808L120.137 89.5192L113.137 87.5192L112.863 88.4808ZM162.147 90.4779L168.647 88.4779L168.353 87.5221L161.853 89.5221L162.147 90.4779ZM168.711 88.4531L173.733 86.1098L173.31 85.2036L168.289 87.5469L168.711 88.4531ZM178.466 83.2154L179.451 82.4495L178.837 81.6601L177.852 82.4261L178.466 83.2154ZM102.564 83.7829L103.816 84.5132L104.32 83.6494L103.068 82.9191L102.564 83.7829ZM97.1716 78.0958C97.4253 78.857 97.8191 79.564 98.3327 80.1803L99.101 79.5401C98.6672 79.0196 98.3345 78.4224 98.1202 77.7796L97.1716 78.0958ZM98.3994 80.2603C99.5723 81.6677 100.982 82.8598 102.564 83.7829L103.068 82.9191C101.586 82.0546 100.266 80.9382 99.1676 79.6202L98.3994 80.2603ZM181.183 79.346C180.494 80.2067 179.707 80.9834 178.837 81.6601L179.451 82.4495C180.383 81.7246 181.226 80.8927 181.964 79.9707L181.183 79.346ZM182.29 76.9983C182.122 77.8422 181.753 78.6334 181.215 79.3054L181.996 79.9301C182.634 79.1332 183.071 78.1951 183.271 77.1944L182.29 76.9983ZM121.816 90.8817C135.124 93.6038 148.858 93.4695 162.11 90.4878L161.89 89.5122C148.776 92.4628 135.185 92.5957 122.016 89.902L121.816 90.8817ZM173.733 86.1098C175.414 85.3252 177.002 84.3544 178.466 83.2154L177.852 82.4261C176.447 83.5191 174.923 84.4507 173.31 85.2036L173.733 86.1098ZM182.5 74.8819C182.5 75.5926 182.43 76.3015 182.29 76.9983L183.271 77.1944C183.423 76.433 183.5 75.6584 183.5 74.8819H182.5ZM109.307 86.044C107.583 85.381 105.915 84.5802 104.32 83.6494L103.816 84.5132C105.458 85.471 107.174 86.295 108.948 86.9774L109.307 86.044ZM96.5 73.9575C96.5 75.3641 96.7268 76.7614 97.1716 78.0958L98.1202 77.7796C97.7094 76.5472 97.5 75.2566 97.5 73.9575H96.5Z" fill="#6FB1FF"/>
<path d="M109.927 82.5572C117.474 85.6036 128.032 87.5 140 87.5C151.968 87.5 162.526 85.6036 170.073 82.5572C173.848 81.0335 176.845 79.2319 178.891 77.2574C180.935 75.2848 182.5 73.1705 182.5 71H183C183 71.3364 182.978 71.6698 182.934 72H183C183 72.3364 182.978 72.6698 182.934 73H183C183 73.3364 182.978 73.6698 182.934 74H183C183 74.3364 182.978 74.6698 182.934 75H183C183 77.524 181.756 79.8818 179.585 81.9769C177.417 84.0702 174.294 85.9318 170.448 87.4845C162.752 90.5908 152.06 92.5 140 92.5C127.94 92.5 117.248 90.5908 109.552 87.4845C105.706 85.9318 102.583 84.0702 100.415 81.9769C98.2438 79.8818 97 77.524 97 75H97.0655C97.0221 74.6698 97 74.3364 97 74H97.0655C97.0221 73.6698 97 73.3364 97 73H97.0655C97.0221 72.6698 97 72.3364 97 72H97.0655C97.0221 71.6698 97 71.3364 97 71H97.5C97.5 73.1705 99.0652 75.2848 101.109 77.2574C103.155 79.2319 106.152 81.0335 109.927 82.5572Z" fill="#6FB1FF"/>
<path d="M112.098 67.8018C112.624 67.8018 113.094 67.8919 113.507 68.0721C113.928 68.2523 114.255 68.5192 114.49 68.8729C114.733 69.2266 114.854 69.6537 114.854 70.1542V73.4074H113.482V70.3243C113.482 69.8305 113.333 69.4535 113.033 69.1932C112.734 68.9263 112.325 68.7928 111.807 68.7928C111.289 68.7928 110.876 68.9263 110.569 69.1932C110.269 69.4535 110.119 69.8305 110.119 70.3243V73.4074H108.747V70.3243C108.747 69.8305 108.598 69.4535 108.298 69.1932C107.999 68.9263 107.59 68.7928 107.072 68.7928C106.554 68.7928 106.141 68.9263 105.833 69.1932C105.534 69.4535 105.384 69.8305 105.384 70.3243V73.4074H104V67.8919H105.384V68.5225C105.611 68.2956 105.898 68.1188 106.246 67.992C106.594 67.8652 106.967 67.8018 107.363 67.8018C107.897 67.8018 108.375 67.8952 108.796 68.0821C109.217 68.2689 109.541 68.5392 109.767 68.8929C109.97 68.5592 110.285 68.2956 110.714 68.1021C111.143 67.9019 111.605 67.8018 112.098 67.8018Z" fill="#6FB1FF"/>
<path d="M119.517 73.4975C118.886 73.4975 118.315 73.3807 117.806 73.1471C117.296 72.9069 116.895 72.5732 116.604 72.1461C116.312 71.7124 116.166 71.2119 116.166 70.6446C116.166 70.0841 116.316 69.5869 116.616 69.1532C116.915 68.7194 117.324 68.3857 117.842 68.1522C118.36 67.9186 118.939 67.8018 119.578 67.8018C120.218 67.8018 120.796 67.9186 121.314 68.1522C121.832 68.3857 122.241 68.7194 122.541 69.1532C122.84 69.5869 122.99 70.0841 122.99 70.6446C122.99 71.2052 122.836 71.7024 122.529 72.1361C122.221 72.5699 121.8 72.9069 121.266 73.1471C120.74 73.3807 120.157 73.4975 119.517 73.4975ZM119.517 72.5065C119.874 72.5065 120.206 72.4364 120.513 72.2963C120.829 72.1562 121.084 71.9459 121.278 71.6657C121.472 71.3854 121.569 71.045 121.569 70.6446C121.569 70.2442 121.476 69.9072 121.29 69.6336C121.104 69.3534 120.857 69.1431 120.55 69.003C120.242 68.8629 119.91 68.7928 119.554 68.7928C119.198 68.7928 118.866 68.8629 118.558 69.003C118.259 69.1431 118.02 69.3534 117.842 69.6336C117.664 69.9072 117.575 70.2442 117.575 70.6446C117.575 71.2386 117.757 71.699 118.121 72.026C118.494 72.3463 118.959 72.5065 119.517 72.5065Z" fill="#6FB1FF"/>
<path d="M125.742 66V73.4074H124.358V66H125.742Z" fill="#6FB1FF"/>
<path d="M128.944 66V73.4074H127.56V66H128.944Z" fill="#6FB1FF"/>
<path d="M136.783 67.8919L132.679 76H131.247L132.606 73.3173L129.972 67.8919H131.514L133.396 72.0961L135.35 67.8919H136.783Z" fill="#6FB1FF"/>
<path d="M137.366 70.6246C137.366 70.0707 137.504 69.5802 137.779 69.1532C138.062 68.7261 138.443 68.3957 138.92 68.1622C139.406 67.9219 139.94 67.8018 140.523 67.8018C141.049 67.8018 141.506 67.8886 141.895 68.0621C142.292 68.2289 142.607 68.4391 142.842 68.6927V67.8919H144.238V73.4074H142.842V72.5866C142.607 72.8468 142.288 73.0637 141.883 73.2372C141.478 73.4107 141.017 73.4975 140.499 73.4975C139.924 73.4975 139.398 73.3774 138.92 73.1371C138.443 72.8902 138.062 72.5499 137.779 72.1161C137.504 71.6757 137.366 71.1785 137.366 70.6246ZM142.842 70.6446C142.842 70.2643 142.745 69.9339 142.551 69.6537C142.364 69.3734 142.118 69.1598 141.81 69.013C141.502 68.8662 141.171 68.7928 140.814 68.7928C140.458 68.7928 140.126 68.8662 139.819 69.013C139.511 69.1532 139.26 69.3634 139.066 69.6436C138.88 69.9173 138.787 70.2442 138.787 70.6246C138.787 71.005 138.88 71.3387 139.066 71.6256C139.26 71.9126 139.511 72.1328 139.819 72.2863C140.134 72.4331 140.466 72.5065 140.814 72.5065C141.171 72.5065 141.502 72.4331 141.81 72.2863C142.118 72.1395 142.364 71.9259 142.551 71.6456C142.745 71.3587 142.842 71.025 142.842 70.6446Z" fill="#6FB1FF"/>
<path d="M149.432 67.8018C149.958 67.8018 150.427 67.8919 150.84 68.0721C151.261 68.2523 151.589 68.5192 151.823 68.8729C152.058 69.2266 152.176 69.6537 152.176 70.1542V73.4074H150.804V70.3243C150.804 69.8305 150.654 69.4535 150.354 69.1932C150.055 68.9263 149.646 68.7928 149.128 68.7928C148.61 68.7928 148.197 68.9263 147.89 69.1932C147.59 69.4535 147.44 69.8305 147.44 70.3243V73.4074H146.056V67.8919H147.44V68.5225C147.667 68.2956 147.954 68.1188 148.302 67.992C148.659 67.8652 149.035 67.8018 149.432 67.8018Z" fill="#6FB1FF"/>
<path d="M154.5 73.4775C154.249 73.4775 154.038 73.4074 153.868 73.2673C153.698 73.1271 153.613 72.9536 153.613 72.7467C153.613 72.5399 153.698 72.3664 153.868 72.2262C154.038 72.0861 154.249 72.016 154.5 72.016C154.742 72.016 154.949 72.0861 155.119 72.2262C155.289 72.3664 155.374 72.5399 155.374 72.7467C155.374 72.9536 155.289 73.1271 155.119 73.2673C154.949 73.4074 154.742 73.4775 154.5 73.4775Z" fill="#6FB1FF"/>
<path d="M163.001 70.5145C163.001 70.7214 162.985 70.9082 162.953 71.0751H157.841C157.882 71.5155 158.08 71.8692 158.436 72.1361C158.792 72.4031 159.229 72.5365 159.747 72.5365C160.492 72.5365 161.018 72.2796 161.326 71.7658H162.819C162.617 72.2729 162.248 72.69 161.714 73.017C161.188 73.3373 160.532 73.4975 159.747 73.4975C159.108 73.4975 158.533 73.3807 158.023 73.1471C157.521 72.9069 157.125 72.5732 156.833 72.1461C156.55 71.7124 156.408 71.2119 156.408 70.6446C156.408 70.0774 156.546 69.5802 156.821 69.1532C157.104 68.7194 157.497 68.3857 157.999 68.1522C158.509 67.9186 159.092 67.8018 159.747 67.8018C160.379 67.8018 160.941 67.9152 161.435 68.1421C161.929 68.369 162.313 68.6894 162.588 69.1031C162.864 69.5102 163.001 69.9806 163.001 70.5145ZM161.556 70.1542C161.548 69.7337 161.366 69.3967 161.01 69.1431C160.654 68.8896 160.213 68.7628 159.687 68.7628C159.209 68.7628 158.8 68.8896 158.46 69.1431C158.12 69.3901 157.918 69.7271 157.853 70.1542H161.556Z" fill="#6FB1FF"/>
<path d="M165.978 68.8228V71.8759C165.978 72.0827 166.035 72.2329 166.148 72.3263C166.269 72.4131 166.472 72.4565 166.755 72.4565H167.605V73.4074H166.512C165.889 73.4074 165.411 73.2873 165.08 73.047C164.748 72.8068 164.582 72.4164 164.582 71.8759V68.8228H163.793V67.8919H164.582V66.5205H165.978V67.8919H167.605V68.8228H165.978Z" fill="#6FB1FF"/>
<path d="M172.341 67.8018C172.851 67.8018 173.304 67.8919 173.701 68.0721C174.106 68.2523 174.421 68.5192 174.648 68.8729C174.883 69.2266 175 69.6537 175 70.1542V73.4074H173.628V70.3243C173.628 69.8305 173.478 69.4535 173.179 69.1932C172.879 68.9263 172.471 68.7928 171.953 68.7928C171.434 68.7928 171.022 68.9263 170.714 69.1932C170.415 69.4535 170.265 69.8305 170.265 70.3243V73.4074H168.881V66H170.265V68.5325C170.5 68.299 170.795 68.1188 171.151 67.992C171.515 67.8652 171.912 67.8018 172.341 67.8018Z" fill="#6FB1FF"/>
<path d="M125 17C125 26.3888 105.748 34 82 34C58.2518 34 39 26.3888 39 17C39 7.61116 58.2518 0 82 0C105.748 0 125 7.61116 125 17Z" fill="white"/>
<path d="M125 17C125 26.3888 105.748 34 82 34C58.2518 34 39 26.3888 39 17M125 17C125 7.61116 105.748 0 82 0C58.2518 0 39 7.61116 39 17M125 17V20.8819C125 21.6255 124.927 22.3672 124.781 23.0964V23.0964C124.596 24.0187 124.193 24.8833 123.606 25.6177L123.573 25.6584C122.86 26.5497 122.045 27.354 121.144 28.0548L120.159 28.8208C118.724 29.9367 117.169 30.888 115.521 31.6567L110.5 34L104 36V36C90.8169 38.9662 77.1544 39.0998 63.9158 36.3919L62 36L55 34L51.1279 32.5107C49.3788 31.838 47.6867 31.0256 46.068 30.0813L44.816 29.351C43.2837 28.4572 41.9191 27.303 40.7835 25.9402L40.7169 25.8602C40.2431 25.2918 39.8799 24.6397 39.6459 23.9377V23.9377C39.2181 22.6543 39 21.3103 39 19.9575V17" stroke="#6F7DFF"/>
<path d="M51.9268 28.5572C59.4741 31.6036 70.0322 33.5 82 33.5C93.9678 33.5 104.526 31.6036 112.073 28.5572C115.848 27.0335 118.845 25.2319 120.891 23.2574C122.935 21.2848 124.5 19.1705 124.5 17H125C125 17.3364 124.978 17.6698 124.934 18H125C125 18.3364 124.978 18.6698 124.934 19H125C125 19.3364 124.978 19.6698 124.934 20H125C125 20.3364 124.978 20.6698 124.934 21H125C125 23.524 123.756 25.8818 121.585 27.9769C119.417 30.0702 116.294 31.9318 112.448 33.4845C104.752 36.5908 94.0598 38.5 82 38.5C69.9402 38.5 59.2483 36.5908 51.5525 33.4845C47.7058 31.9318 44.5833 30.0702 42.4145 27.9769C40.2438 25.8818 39 23.524 39 21H39.0655C39.0221 20.6698 39 20.3364 39 20H39.0655C39.0221 19.6698 39 19.3364 39 19H39.0655C39.0221 18.6698 39 18.3364 39 18H39.0655C39.0221 17.6698 39 17.3364 39 17H39.5C39.5 19.1705 41.0652 21.2848 43.109 23.2574C45.1546 25.2319 48.1519 27.0335 51.9268 28.5572Z" fill="#6F7DFF"/>
<path d="M284 71C284 80.3888 264.748 88 241 88C217.252 88 198 80.3888 198 71C198 61.6112 217.252 54 241 54C264.748 54 284 61.6112 284 71Z" fill="#F2F2F2"/>
<path d="M284 71C284 80.3888 264.748 88 241 88C217.252 88 198 80.3888 198 71M284 71C284 61.6112 264.748 54 241 54C217.252 54 198 61.6112 198 71M284 71V74.8819C284 75.6255 283.927 76.3672 283.781 77.0964V77.0964C283.596 78.0187 283.193 78.8833 282.606 79.6177L282.573 79.6584C281.86 80.5497 281.045 81.354 280.144 82.0548L279.159 82.8208C277.724 83.9367 276.169 84.888 274.521 85.6567L269.5 88L263 90V90C249.817 92.9662 236.154 93.0998 222.916 90.3919L221 90L214 88L210.128 86.5107C208.379 85.838 206.687 85.0256 205.068 84.0813L203.816 83.351C202.284 82.4572 200.919 81.303 199.784 79.9402L199.717 79.8602C199.243 79.2918 198.88 78.6397 198.646 77.9377V77.9377C198.218 76.6543 198 75.3103 198 73.9575V71" stroke="#6E7DFF"/>
<path d="M210.927 82.5572C218.474 85.6036 229.032 87.5 241 87.5C252.968 87.5 263.526 85.6036 271.073 82.5572C274.848 81.0335 277.845 79.2319 279.891 77.2574C281.935 75.2848 283.5 73.1705 283.5 71H284C284 71.3364 283.978 71.6698 283.934 72H284C284 72.3364 283.978 72.6698 283.934 73H284C284 73.3364 283.978 73.6698 283.934 74H284C284 74.3364 283.978 74.6698 283.934 75H284C284 77.524 282.756 79.8818 280.585 81.9769C278.417 84.0702 275.294 85.9318 271.448 87.4845C263.752 90.5908 253.06 92.5 241 92.5C228.94 92.5 218.248 90.5908 210.552 87.4845C206.706 85.9318 203.583 84.0702 201.415 81.9769C199.244 79.8818 198 77.524 198 75H198.066C198.022 74.6698 198 74.3364 198 74H198.066C198.022 73.6698 198 73.3364 198 73H198.066C198.022 72.6698 198 72.3364 198 72H198.066C198.022 71.6698 198 71.3364 198 71H198.5C198.5 73.1705 200.065 75.2848 202.109 77.2574C204.155 79.2319 207.152 81.0335 210.927 82.5572Z" fill="#6E7DFF"/>
<path d="M241 125C241 134.389 221.748 142 198 142C174.252 142 155 134.389 155 125C155 115.611 174.252 108 198 108C221.748 108 241 115.611 241 125Z" fill="white"/>
<path d="M178 144L177.863 144.481L177.881 144.486L177.9 144.49L178 144ZM171 142L170.821 142.467L170.841 142.475L170.863 142.481L171 142ZM226.5 142L226.647 142.478L226.68 142.468L226.711 142.453L226.5 142ZM156.717 133.86L157.101 133.54L156.717 133.86ZM160.816 137.351L160.564 137.783L160.816 137.351ZM239.573 133.658L239.964 133.971L239.573 133.658ZM237.144 136.055L237.451 136.449L237.144 136.055ZM239.606 133.618L239.996 133.93L239.606 133.618ZM231.521 139.657L231.733 140.11L231.521 139.657ZM236.159 136.821L235.852 136.426L236.159 136.821ZM167.128 140.511L166.948 140.977L167.128 140.511ZM240.5 125C240.5 127.163 239.393 129.276 237.279 131.252C235.165 133.228 232.078 135.031 228.222 136.556C220.512 139.604 209.827 141.5 198 141.5V142.5C209.921 142.5 220.736 140.591 228.589 137.486C232.515 135.934 235.725 134.074 237.962 131.982C240.2 129.89 241.5 127.531 241.5 125H240.5ZM198 141.5C186.173 141.5 175.488 139.604 167.778 136.556C163.922 135.031 160.835 133.228 158.721 131.252C156.607 129.276 155.5 127.163 155.5 125H154.5C154.5 127.531 155.8 129.89 158.038 131.982C160.275 134.074 163.485 135.934 167.411 137.486C175.264 140.591 186.079 142.5 198 142.5V141.5ZM155.5 125C155.5 122.837 156.607 120.724 158.721 118.748C160.835 116.772 163.922 114.969 167.778 113.444C175.488 110.396 186.173 108.5 198 108.5V107.5C186.079 107.5 175.264 109.409 167.411 112.514C163.485 114.066 160.275 115.926 158.038 118.018C155.8 120.11 154.5 122.469 154.5 125H155.5ZM198 108.5C209.827 108.5 220.512 110.396 228.222 113.444C232.078 114.969 235.165 116.772 237.279 118.748C239.393 120.724 240.5 122.837 240.5 125H241.5C241.5 122.469 240.2 120.11 237.962 118.018C235.725 115.926 232.515 114.066 228.589 112.514C220.736 109.409 209.921 107.5 198 107.5V108.5ZM154.5 125V127.957H155.5V125H154.5ZM241.5 128.882V125H240.5V128.882H241.5ZM177.9 144.49L179.816 144.882L180.016 143.902L178.1 143.51L177.9 144.49ZM239.964 133.971L239.996 133.93L239.215 133.305L239.183 133.346L239.964 133.971ZM156.333 134.18L156.399 134.26L157.168 133.62L157.101 133.54L156.333 134.18ZM166.948 140.977L170.821 142.467L171.179 141.533L167.307 140.044L166.948 140.977ZM170.863 142.481L177.863 144.481L178.137 143.519L171.137 141.519L170.863 142.481ZM220.147 144.478L226.647 142.478L226.353 141.522L219.853 143.522L220.147 144.478ZM226.711 142.453L231.733 140.11L231.31 139.204L226.289 141.547L226.711 142.453ZM236.466 137.215L237.451 136.449L236.837 135.66L235.852 136.426L236.466 137.215ZM160.564 137.783L161.816 138.513L162.32 137.649L161.068 136.919L160.564 137.783ZM155.172 132.096C155.425 132.857 155.819 133.564 156.333 134.18L157.101 133.54C156.667 133.02 156.335 132.422 156.12 131.78L155.172 132.096ZM156.399 134.26C157.572 135.668 158.982 136.86 160.564 137.783L161.068 136.919C159.586 136.055 158.266 134.938 157.168 133.62L156.399 134.26ZM239.183 133.346C238.494 134.207 237.707 134.983 236.837 135.66L237.451 136.449C238.383 135.725 239.226 134.893 239.964 133.971L239.183 133.346ZM240.29 130.998C240.122 131.842 239.753 132.633 239.215 133.305L239.996 133.93C240.634 133.133 241.071 132.195 241.271 131.194L240.29 130.998ZM179.816 144.882C193.124 147.604 206.858 147.47 220.11 144.488L219.89 143.512C206.776 146.463 193.185 146.596 180.016 143.902L179.816 144.882ZM231.733 140.11C233.414 139.325 235.002 138.354 236.466 137.215L235.852 136.426C234.447 137.519 232.923 138.451 231.31 139.204L231.733 140.11ZM240.5 128.882C240.5 129.593 240.43 130.301 240.29 130.998L241.271 131.194C241.423 130.433 241.5 129.658 241.5 128.882H240.5ZM167.307 140.044C165.583 139.381 163.915 138.58 162.32 137.649L161.816 138.513C163.458 139.471 165.174 140.295 166.948 140.977L167.307 140.044ZM154.5 127.957C154.5 129.364 154.727 130.761 155.172 132.096L156.12 131.78C155.709 130.547 155.5 129.257 155.5 127.957H154.5Z" fill="#6E7DFF"/>
<path d="M167.927 136.557C175.474 139.604 186.032 141.5 198 141.5C209.968 141.5 220.526 139.604 228.073 136.557C231.848 135.033 234.845 133.232 236.891 131.257C238.935 129.285 240.5 127.17 240.5 125H241C241 125.336 240.978 125.67 240.934 126H241C241 126.336 240.978 126.67 240.934 127H241C241 127.336 240.978 127.67 240.934 128H241C241 128.336 240.978 128.67 240.934 129H241C241 131.524 239.756 133.882 237.585 135.977C235.417 138.07 232.294 139.932 228.448 141.484C220.752 144.591 210.06 146.5 198 146.5C185.94 146.5 175.248 144.591 167.552 141.484C163.706 139.932 160.583 138.07 158.415 135.977C156.244 133.882 155 131.524 155 129H155.066C155.022 128.67 155 128.336 155 128H155.066C155.022 127.67 155 127.336 155 127H155.066C155.022 126.67 155 126.336 155 126H155.066C155.022 125.67 155 125.336 155 125H155.5C155.5 127.17 157.065 129.285 159.109 131.257C161.155 133.232 164.152 135.033 167.927 136.557Z" fill="#6E7DFF"/>
<path d="M140 125C140 134.389 120.748 142 97 142C73.2518 142 54 134.389 54 125C54 115.611 73.2518 108 97 108C120.748 108 140 115.611 140 125Z" fill="#F2F2F2"/>
<path d="M77 144L76.8626 144.481L76.881 144.486L76.8998 144.49L77 144ZM70 142L69.8205 142.467L69.8413 142.475L69.8626 142.481L70 142ZM125.5 142L125.647 142.478L125.68 142.468L125.711 142.453L125.5 142ZM55.7169 133.86L56.101 133.54L55.7169 133.86ZM59.816 137.351L59.564 137.783L59.816 137.351ZM138.573 133.658L138.964 133.971L138.573 133.658ZM136.144 136.055L136.451 136.449L136.144 136.055ZM138.606 133.618L138.996 133.93L138.606 133.618ZM130.521 139.657L130.733 140.11L130.521 139.657ZM135.159 136.821L134.852 136.426L135.159 136.821ZM66.1279 140.511L65.9484 140.977L66.1279 140.511ZM139.5 125C139.5 127.163 138.393 129.276 136.279 131.252C134.165 133.228 131.078 135.031 127.222 136.556C119.512 139.604 108.827 141.5 97 141.5V142.5C108.921 142.5 119.736 140.591 127.589 137.486C131.515 135.934 134.725 134.074 136.962 131.982C139.2 129.89 140.5 127.531 140.5 125H139.5ZM97 141.5C85.1726 141.5 74.4878 139.604 66.7782 136.556C62.922 135.031 59.8351 133.228 57.7206 131.252C55.6069 129.276 54.5 127.163 54.5 125H53.5C53.5 127.531 54.7996 129.89 57.0377 131.982C59.2751 134.074 62.4854 135.934 66.4106 137.486C74.264 140.591 85.0792 142.5 97 142.5V141.5ZM54.5 125C54.5 122.837 55.6069 120.724 57.7206 118.748C59.8351 116.772 62.922 114.969 66.7782 113.444C74.4878 110.396 85.1726 108.5 97 108.5V107.5C85.0792 107.5 74.264 109.409 66.4106 112.514C62.4854 114.066 59.2751 115.926 57.0377 118.018C54.7996 120.11 53.5 122.469 53.5 125H54.5ZM97 108.5C108.827 108.5 119.512 110.396 127.222 113.444C131.078 114.969 134.165 116.772 136.279 118.748C138.393 120.724 139.5 122.837 139.5 125H140.5C140.5 122.469 139.2 120.11 136.962 118.018C134.725 115.926 131.515 114.066 127.589 112.514C119.736 109.409 108.921 107.5 97 107.5V108.5ZM53.5 125V127.957H54.5V125H53.5ZM140.5 128.882V125H139.5V128.882H140.5ZM76.8998 144.49L78.8156 144.882L79.016 143.902L77.1002 143.51L76.8998 144.49ZM138.964 133.971L138.996 133.93L138.215 133.305L138.183 133.346L138.964 133.971ZM55.3327 134.18L55.3994 134.26L56.1676 133.62L56.101 133.54L55.3327 134.18ZM65.9484 140.977L69.8205 142.467L70.1795 141.533L66.3074 140.044L65.9484 140.977ZM69.8626 142.481L76.8626 144.481L77.1374 143.519L70.1374 141.519L69.8626 142.481ZM119.147 144.478L125.647 142.478L125.353 141.522L118.853 143.522L119.147 144.478ZM125.711 142.453L130.733 140.11L130.31 139.204L125.289 141.547L125.711 142.453ZM135.466 137.215L136.451 136.449L135.837 135.66L134.852 136.426L135.466 137.215ZM59.564 137.783L60.8161 138.513L61.3199 137.649L60.0679 136.919L59.564 137.783ZM54.1716 132.096C54.4253 132.857 54.8191 133.564 55.3327 134.18L56.101 133.54C55.6672 133.02 55.3345 132.422 55.1202 131.78L54.1716 132.096ZM55.3994 134.26C56.5723 135.668 57.9816 136.86 59.564 137.783L60.0679 136.919C58.5859 136.055 57.266 134.938 56.1676 133.62L55.3994 134.26ZM138.183 133.346C137.494 134.207 136.707 134.983 135.837 135.66L136.451 136.449C137.383 135.725 138.226 134.893 138.964 133.971L138.183 133.346ZM139.29 130.998C139.122 131.842 138.753 132.633 138.215 133.305L138.996 133.93C139.634 133.133 140.071 132.195 140.271 131.194L139.29 130.998ZM78.8156 144.882C92.1235 147.604 105.858 147.47 119.11 144.488L118.89 143.512C105.776 146.463 92.1852 146.596 79.016 143.902L78.8156 144.882ZM130.733 140.11C132.414 139.325 134.002 138.354 135.466 137.215L134.852 136.426C133.447 137.519 131.923 138.451 130.31 139.204L130.733 140.11ZM139.5 128.882C139.5 129.593 139.43 130.301 139.29 130.998L140.271 131.194C140.423 130.433 140.5 129.658 140.5 128.882H139.5ZM66.3074 140.044C64.5833 139.381 62.9155 138.58 61.3199 137.649L60.8161 138.513C62.458 139.471 64.1743 140.295 65.9484 140.977L66.3074 140.044ZM53.5 127.957C53.5 129.364 53.7268 130.761 54.1716 132.096L55.1202 131.78C54.7094 130.547 54.5 129.257 54.5 127.957H53.5Z" fill="#6FB1FF"/>
<path d="M66.9268 136.557C74.4741 139.604 85.0322 141.5 97 141.5C108.968 141.5 119.526 139.604 127.073 136.557C130.848 135.033 133.845 133.232 135.891 131.257C137.935 129.285 139.5 127.17 139.5 125H140C140 125.336 139.978 125.67 139.934 126H140C140 126.336 139.978 126.67 139.934 127H140C140 127.336 139.978 127.67 139.934 128H140C140 128.336 139.978 128.67 139.934 129H140C140 131.524 138.756 133.882 136.585 135.977C134.417 138.07 131.294 139.932 127.448 141.484C119.752 144.591 109.06 146.5 97 146.5C84.9402 146.5 74.2483 144.591 66.5525 141.484C62.7058 139.932 59.5833 138.07 57.4145 135.977C55.2438 133.882 54 131.524 54 129H54.0655C54.0221 128.67 54 128.336 54 128H54.0655C54.0221 127.67 54 127.336 54 127H54.0655C54.0221 126.67 54 126.336 54 126H54.0655C54.0221 125.67 54 125.336 54 125H54.5C54.5 127.17 56.0652 129.285 58.109 131.257C60.1546 133.232 63.1519 135.033 66.9268 136.557Z" fill="#6FB1FF"/>
<path d="M39 125C39 134.389 19.7482 142 -4 142C-27.7482 142 -47 134.389 -47 125C-47 115.611 -27.7482 108 -4 108C19.7482 108 39 115.611 39 125Z" fill="#F2F2F2"/>
<path d="M-24 144L-24.1374 144.481L-24.119 144.486L-24.1002 144.49L-24 144ZM-31 142L-31.1795 142.467L-31.1587 142.475L-31.1374 142.481L-31 142ZM24.5 142L24.647 142.478L24.6801 142.468L24.7114 142.453L24.5 142ZM-45.2831 133.86L-44.899 133.54L-45.2831 133.86ZM-41.184 137.351L-41.436 137.783L-41.184 137.351ZM37.5733 133.658L37.9637 133.971L37.5733 133.658ZM35.1438 136.055L35.4508 136.449L35.1438 136.055ZM37.6058 133.618L37.9962 133.93L37.6058 133.618ZM29.5214 139.657L29.7329 140.11L29.5214 139.657ZM34.159 136.821L33.8521 136.426L34.159 136.821ZM-34.8721 140.511L-35.0516 140.977L-34.8721 140.511ZM38.5 125C38.5 127.163 37.3931 129.276 35.2794 131.252C33.1649 133.228 30.078 135.031 26.2218 136.556C18.5122 139.604 7.8274 141.5 -4 141.5V142.5C7.92084 142.5 18.736 140.591 26.5894 137.486C30.5146 135.934 33.7249 134.074 35.9623 131.982C38.2004 129.89 39.5 127.531 39.5 125H38.5ZM-4 141.5C-15.8274 141.5 -26.5122 139.604 -34.2218 136.556C-38.078 135.031 -41.1649 133.228 -43.2794 131.252C-45.3931 129.276 -46.5 127.163 -46.5 125H-47.5C-47.5 127.531 -46.2004 129.89 -43.9623 131.982C-41.7249 134.074 -38.5146 135.934 -34.5894 137.486C-26.736 140.591 -15.9208 142.5 -4 142.5V141.5ZM-46.5 125C-46.5 122.837 -45.3931 120.724 -43.2794 118.748C-41.1649 116.772 -38.078 114.969 -34.2218 113.444C-26.5122 110.396 -15.8274 108.5 -4 108.5V107.5C-15.9208 107.5 -26.736 109.409 -34.5894 112.514C-38.5146 114.066 -41.7249 115.926 -43.9623 118.018C-46.2004 120.11 -47.5 122.469 -47.5 125H-46.5ZM-4 108.5C7.8274 108.5 18.5122 110.396 26.2218 113.444C30.078 114.969 33.1649 116.772 35.2794 118.748C37.3931 120.724 38.5 122.837 38.5 125H39.5C39.5 122.469 38.2004 120.11 35.9623 118.018C33.7249 115.926 30.5146 114.066 26.5894 112.514C18.736 109.409 7.92084 107.5 -4 107.5V108.5ZM-47.5 125V127.957H-46.5V125H-47.5ZM39.5 128.882V125H38.5V128.882H39.5ZM-24.1002 144.49L-22.1844 144.882L-21.984 143.902L-23.8998 143.51L-24.1002 144.49ZM37.9637 133.971L37.9962 133.93L37.2154 133.305L37.1829 133.346L37.9637 133.971ZM-45.6673 134.18L-45.6006 134.26L-44.8324 133.62L-44.899 133.54L-45.6673 134.18ZM-35.0516 140.977L-31.1795 142.467L-30.8205 141.533L-34.6926 140.044L-35.0516 140.977ZM-31.1374 142.481L-24.1374 144.481L-23.8626 143.519L-30.8626 141.519L-31.1374 142.481ZM18.147 144.478L24.647 142.478L24.353 141.522L17.853 143.522L18.147 144.478ZM24.7114 142.453L29.7329 140.11L29.31 139.204L24.2886 141.547L24.7114 142.453ZM34.466 137.215L35.4508 136.449L34.8368 135.66L33.8521 136.426L34.466 137.215ZM-41.436 137.783L-40.1839 138.513L-39.6801 137.649L-40.9321 136.919L-41.436 137.783ZM-46.8284 132.096C-46.5747 132.857 -46.1809 133.564 -45.6673 134.18L-44.899 133.54C-45.3328 133.02 -45.6655 132.422 -45.8798 131.78L-46.8284 132.096ZM-45.6006 134.26C-44.4277 135.668 -43.0184 136.86 -41.436 137.783L-40.9321 136.919C-42.4141 136.055 -43.734 134.938 -44.8324 133.62L-45.6006 134.26ZM37.1829 133.346C36.4943 134.207 35.7069 134.983 34.8368 135.66L35.4508 136.449C36.3827 135.725 37.2262 134.893 37.9637 133.971L37.1829 133.346ZM38.2904 130.998C38.1217 131.842 37.753 132.633 37.2154 133.305L37.9962 133.93C38.6337 133.133 39.0709 132.195 39.271 131.194L38.2904 130.998ZM-22.1844 144.882C-8.8765 147.604 4.85765 147.47 18.1098 144.488L17.8902 143.512C4.77624 146.463 -8.81478 146.596 -21.984 143.902L-22.1844 144.882ZM29.7329 140.11C31.414 139.325 33.0016 138.354 34.466 137.215L33.8521 136.426C32.4468 137.519 30.9232 138.451 29.31 139.204L29.7329 140.11ZM38.5 128.882C38.5 129.593 38.4298 130.301 38.2904 130.998L39.271 131.194C39.4233 130.433 39.5 129.658 39.5 128.882H38.5ZM-34.6926 140.044C-36.4167 139.381 -38.0845 138.58 -39.6801 137.649L-40.1839 138.513C-38.542 139.471 -36.8257 140.295 -35.0516 140.977L-34.6926 140.044ZM-47.5 127.957C-47.5 129.364 -47.2732 130.761 -46.8284 132.096L-45.8798 131.78C-46.2906 130.547 -46.5 129.257 -46.5 127.957H-47.5Z" fill="#BF6FFF"/>
<path d="M-34.0732 136.557C-26.5259 139.604 -15.9678 141.5 -4 141.5C7.9678 141.5 18.5259 139.604 26.0732 136.557C29.8481 135.033 32.8454 133.232 34.891 131.257C36.9348 129.285 38.5 127.17 38.5 125H39C39 125.336 38.9779 125.67 38.9345 126H39C39 126.336 38.9779 126.67 38.9345 127H39C39 127.336 38.9779 127.67 38.9345 128H39C39 128.336 38.9779 128.67 38.9345 129H39C39 131.524 37.7562 133.882 35.5855 135.977C33.4167 138.07 30.2942 139.932 26.4475 141.484C18.7517 144.591 8.05984 146.5 -4 146.5C-16.0598 146.5 -26.7517 144.591 -34.4475 141.484C-38.2942 139.932 -41.4167 138.07 -43.5855 135.977C-45.7562 133.882 -47 131.524 -47 129H-46.9345C-46.9779 128.67 -47 128.336 -47 128H-46.9345C-46.9779 127.67 -47 127.336 -47 127H-46.9345C-46.9779 126.67 -47 126.336 -47 126H-46.9345C-46.9779 125.67 -47 125.336 -47 125H-46.5C-46.5 127.17 -44.9348 129.285 -42.891 131.257C-40.8454 133.232 -37.8481 135.033 -34.0732 136.557Z" fill="#BF6FFF"/>
<path d="M226 17C226 26.3888 206.748 34 183 34C159.252 34 140 26.3888 140 17C140 7.61116 159.252 0 183 0C206.748 0 226 7.61116 226 17Z" fill="#F2F2F2"/>
<path d="M163 36L162.863 36.4808L162.881 36.486L162.9 36.4899L163 36ZM156 34L155.821 34.4667L155.841 34.4747L155.863 34.4808L156 34ZM211.5 34L211.647 34.4779L211.68 34.4677L211.711 34.4531L211.5 34ZM141.717 25.8602L142.101 25.5401L141.717 25.8602ZM145.816 29.351L145.564 29.7829L145.816 29.351ZM224.573 25.6584L224.964 25.9707L224.573 25.6584ZM222.144 28.0548L222.451 28.4495L222.144 28.0548ZM224.606 25.6177L224.996 25.9301L224.606 25.6177ZM216.521 31.6567L216.733 32.1098L216.521 31.6567ZM221.159 28.8208L220.852 28.4261L221.159 28.8208ZM152.128 32.5107L151.948 32.9774L152.128 32.5107ZM225.5 17C225.5 19.1632 224.393 21.2762 222.279 23.2519C220.165 25.2283 217.078 27.0313 213.222 28.5558C205.512 31.6038 194.827 33.5 183 33.5V34.5C194.921 34.5 205.736 32.5906 213.589 29.4858C217.515 27.934 220.725 26.0737 222.962 23.9824C225.2 21.8904 226.5 19.5312 226.5 17H225.5ZM183 33.5C171.173 33.5 160.488 31.6038 152.778 28.5558C148.922 27.0313 145.835 25.2283 143.721 23.2519C141.607 21.2762 140.5 19.1632 140.5 17H139.5C139.5 19.5312 140.8 21.8904 143.038 23.9824C145.275 26.0737 148.485 27.934 152.411 29.4858C160.264 32.5906 171.079 34.5 183 34.5V33.5ZM140.5 17C140.5 14.8368 141.607 12.7238 143.721 10.7481C145.835 8.77166 148.922 6.96873 152.778 5.44417C160.488 2.3962 171.173 0.5 183 0.5V-0.5C171.079 -0.5 160.264 1.40938 152.411 4.5142C148.485 6.06604 145.275 7.92631 143.038 10.0176C140.8 12.1096 139.5 14.4688 139.5 17H140.5ZM183 0.5C194.827 0.5 205.512 2.3962 213.222 5.44417C217.078 6.96873 220.165 8.77166 222.279 10.7481C224.393 12.7238 225.5 14.8368 225.5 17H226.5C226.5 14.4688 225.2 12.1096 222.962 10.0176C220.725 7.92631 217.515 6.06604 213.589 4.5142C205.736 1.40938 194.921 -0.5 183 -0.5V0.5ZM139.5 17V19.9575H140.5V17H139.5ZM226.5 20.8819V17H225.5V20.8819H226.5ZM162.9 36.4899L164.816 36.8817L165.016 35.902L163.1 35.5101L162.9 36.4899ZM224.964 25.9707L224.996 25.9301L224.215 25.3054L224.183 25.346L224.964 25.9707ZM141.333 26.1803L141.399 26.2603L142.168 25.6202L142.101 25.5401L141.333 26.1803ZM151.948 32.9774L155.821 34.4667L156.179 33.5333L152.307 32.044L151.948 32.9774ZM155.863 34.4808L162.863 36.4808L163.137 35.5192L156.137 33.5192L155.863 34.4808ZM205.147 36.4779L211.647 34.4779L211.353 33.5221L204.853 35.5221L205.147 36.4779ZM211.711 34.4531L216.733 32.1098L216.31 31.2036L211.289 33.5469L211.711 34.4531ZM221.466 29.2154L222.451 28.4495L221.837 27.6601L220.852 28.4261L221.466 29.2154ZM145.564 29.7829L146.816 30.5132L147.32 29.6494L146.068 28.9191L145.564 29.7829ZM140.172 24.0958C140.425 24.857 140.819 25.564 141.333 26.1803L142.101 25.5401C141.667 25.0196 141.335 24.4224 141.12 23.7796L140.172 24.0958ZM141.399 26.2603C142.572 27.6677 143.982 28.8598 145.564 29.7829L146.068 28.9191C144.586 28.0546 143.266 26.9382 142.168 25.6202L141.399 26.2603ZM224.183 25.346C223.494 26.2067 222.707 26.9834 221.837 27.6601L222.451 28.4495C223.383 27.7246 224.226 26.8927 224.964 25.9707L224.183 25.346ZM225.29 22.9983C225.122 23.8422 224.753 24.6334 224.215 25.3054L224.996 25.9301C225.634 25.1332 226.071 24.1951 226.271 23.1944L225.29 22.9983ZM164.816 36.8817C178.124 39.6038 191.858 39.4695 205.11 36.4878L204.89 35.5122C191.776 38.4628 178.185 38.5957 165.016 35.902L164.816 36.8817ZM216.733 32.1098C218.414 31.3252 220.002 30.3544 221.466 29.2154L220.852 28.4261C219.447 29.5191 217.923 30.4507 216.31 31.2036L216.733 32.1098ZM225.5 20.8819C225.5 21.5926 225.43 22.3015 225.29 22.9983L226.271 23.1944C226.423 22.433 226.5 21.6584 226.5 20.8819H225.5ZM152.307 32.044C150.583 31.381 148.915 30.5802 147.32 29.6494L146.816 30.5132C148.458 31.471 150.174 32.295 151.948 32.9774L152.307 32.044ZM139.5 19.9575C139.5 21.3641 139.727 22.7614 140.172 24.0958L141.12 23.7796C140.709 22.5472 140.5 21.2566 140.5 19.9575H139.5Z" fill="#6FB1FF"/>
<path d="M152.927 28.5572C160.474 31.6036 171.032 33.5 183 33.5C194.968 33.5 205.526 31.6036 213.073 28.5572C216.848 27.0335 219.845 25.2319 221.891 23.2574C223.935 21.2848 225.5 19.1705 225.5 17H226C226 17.3364 225.978 17.6698 225.934 18H226C226 18.3364 225.978 18.6698 225.934 19H226C226 19.3364 225.978 19.6698 225.934 20H226C226 20.3364 225.978 20.6698 225.934 21H226C226 23.524 224.756 25.8818 222.585 27.9769C220.417 30.0702 217.294 31.9318 213.448 33.4845C205.752 36.5908 195.06 38.5 183 38.5C170.94 38.5 160.248 36.5908 152.552 33.4845C148.706 31.9318 145.583 30.0702 143.415 27.9769C141.244 25.8818 140 23.524 140 21H140.066C140.022 20.6698 140 20.3364 140 20H140.066C140.022 19.6698 140 19.3364 140 19H140.066C140.022 18.6698 140 18.3364 140 18H140.066C140.022 17.6698 140 17.3364 140 17H140.5C140.5 19.1705 142.065 21.2848 144.109 23.2574C146.155 25.2319 149.152 27.0335 152.927 28.5572Z" fill="#6FB1FF"/>
<path d="M82 70C82 79.3888 62.7482 87 39 87C15.2518 87 -4 79.3888 -4 70C-4 60.6112 15.2518 53 39 53C62.7482 53 82 60.6112 82 70Z" fill="#F2F2F2"/>
<path d="M19 89L18.8626 89.4808L18.881 89.486L18.8998 89.4899L19 89ZM12 87L11.8205 87.4667L11.8413 87.4747L11.8626 87.4808L12 87ZM67.5 87L67.647 87.4779L67.6801 87.4677L67.7114 87.4531L67.5 87ZM-2.28314 78.8602L-1.89903 78.5401L-2.28314 78.8602ZM1.81596 82.351L1.56403 82.7829L1.81596 82.351ZM80.5733 78.6584L80.9637 78.9707L80.5733 78.6584ZM78.1438 81.0548L78.4508 81.4495L78.1438 81.0548ZM80.6058 78.6177L80.9962 78.9301L80.6058 78.6177ZM72.5214 84.6567L72.7329 85.1098L72.5214 84.6567ZM77.159 81.8208L76.8521 81.4261L77.159 81.8208ZM8.12786 85.5107L7.94837 85.9774L8.12786 85.5107ZM81.5 70C81.5 72.1632 80.3931 74.2762 78.2794 76.2519C76.1649 78.2283 73.078 80.0313 69.2218 81.5558C61.5122 84.6038 50.8274 86.5 39 86.5V87.5C50.9208 87.5 61.736 85.5906 69.5894 82.4858C73.5146 80.934 76.7249 79.0737 78.9623 76.9824C81.2004 74.8904 82.5 72.5312 82.5 70H81.5ZM39 86.5C27.1726 86.5 16.4878 84.6038 8.77824 81.5558C4.92199 80.0313 1.83509 78.2283 -0.279419 76.2519C-2.39312 74.2762 -3.5 72.1632 -3.5 70H-4.5C-4.5 72.5312 -3.20041 74.8904 -0.962274 76.9824C1.27505 79.0737 4.48536 80.934 8.41058 82.4858C16.264 85.5906 27.0792 87.5 39 87.5V86.5ZM-3.5 70C-3.5 67.8368 -2.39312 65.7238 -0.279419 63.7481C1.83509 61.7717 4.92199 59.9687 8.77824 58.4442C16.4878 55.3962 27.1726 53.5 39 53.5V52.5C27.0792 52.5 16.264 54.4094 8.41058 57.5142C4.48536 59.066 1.27505 60.9263 -0.962274 63.0176C-3.20041 65.1096 -4.5 67.4688 -4.5 70H-3.5ZM39 53.5C50.8274 53.5 61.5122 55.3962 69.2218 58.4442C73.078 59.9687 76.1649 61.7717 78.2794 63.7481C80.3931 65.7238 81.5 67.8368 81.5 70H82.5C82.5 67.4688 81.2004 65.1096 78.9623 63.0176C76.7249 60.9263 73.5146 59.066 69.5894 57.5142C61.736 54.4094 50.9208 52.5 39 52.5V53.5ZM-4.5 70V72.9575H-3.5V70H-4.5ZM82.5 73.8819V70H81.5V73.8819H82.5ZM18.8998 89.4899L20.8156 89.8817L21.016 88.902L19.1002 88.5101L18.8998 89.4899ZM80.9637 78.9707L80.9962 78.9301L80.2154 78.3054L80.1829 78.346L80.9637 78.9707ZM-2.66725 79.1803L-2.60057 79.2603L-1.83235 78.6202L-1.89903 78.5401L-2.66725 79.1803ZM7.94837 85.9774L11.8205 87.4667L12.1795 86.5333L8.30735 85.044L7.94837 85.9774ZM11.8626 87.4808L18.8626 89.4808L19.1374 88.5192L12.1374 86.5192L11.8626 87.4808ZM61.147 89.4779L67.647 87.4779L67.353 86.5221L60.853 88.5221L61.147 89.4779ZM67.7114 87.4531L72.7329 85.1098L72.31 84.2036L67.2886 86.5469L67.7114 87.4531ZM77.466 82.2154L78.4508 81.4495L77.8368 80.6601L76.8521 81.4261L77.466 82.2154ZM1.56403 82.7829L2.81607 83.5132L3.31994 82.6494L2.0679 81.9191L1.56403 82.7829ZM-3.82844 77.0958C-3.57473 77.857 -3.18089 78.564 -2.66725 79.1803L-1.89903 78.5401C-2.33284 78.0196 -2.66547 77.4224 -2.87976 76.7796L-3.82844 77.0958ZM-2.60057 79.2603C-1.42775 80.6677 -0.0184257 81.8598 1.56403 82.7829L2.0679 81.9191C0.585892 81.0546 -0.73397 79.9382 -1.83235 78.6202L-2.60057 79.2603ZM80.1829 78.346C79.4943 79.2067 78.7069 79.9834 77.8368 80.6601L78.4508 81.4495C79.3827 80.7246 80.2262 79.8927 80.9637 78.9707L80.1829 78.346ZM81.2904 75.9983C81.1217 76.8422 80.753 77.6334 80.2154 78.3054L80.9962 78.9301C81.6337 78.1332 82.0709 77.1951 82.271 76.1944L81.2904 75.9983ZM20.8156 89.8817C34.1235 92.6038 47.8577 92.4695 61.1098 89.4878L60.8902 88.5122C47.7762 91.4628 34.1852 91.5957 21.016 88.902L20.8156 89.8817ZM72.7329 85.1098C74.414 84.3252 76.0016 83.3544 77.466 82.2154L76.8521 81.4261C75.4468 82.5191 73.9232 83.4507 72.31 84.2036L72.7329 85.1098ZM81.5 73.8819C81.5 74.5926 81.4298 75.3015 81.2904 75.9983L82.271 76.1944C82.4233 75.433 82.5 74.6584 82.5 73.8819H81.5ZM8.30735 85.044C6.58332 84.381 4.91547 83.5802 3.31994 82.6494L2.81607 83.5132C4.45795 84.471 6.17426 85.295 7.94837 85.9774L8.30735 85.044ZM-4.5 72.9575C-4.5 74.3641 -4.27324 75.7614 -3.82844 77.0958L-2.87976 76.7796C-3.29057 75.5472 -3.5 74.2566 -3.5 72.9575H-4.5Z" fill="#6FB1FF"/>
<path d="M8.92679 81.5572C16.4741 84.6036 27.0322 86.5 39 86.5C50.9678 86.5 61.5259 84.6036 69.0732 81.5572C72.8481 80.0335 75.8454 78.2319 77.891 76.2574C79.9348 74.2848 81.5 72.1705 81.5 70H82C82 70.3364 81.9779 70.6698 81.9345 71H82C82 71.3364 81.9779 71.6698 81.9345 72H82C82 72.3364 81.9779 72.6698 81.9345 73H82C82 73.3364 81.9779 73.6698 81.9345 74H82C82 76.524 80.7562 78.8818 78.5855 80.9769C76.4167 83.0702 73.2942 84.9318 69.4475 86.4845C61.7517 89.5908 51.0598 91.5 39 91.5C26.9402 91.5 16.2483 89.5908 8.55249 86.4845C4.70581 84.9318 1.58327 83.0702 -0.585496 80.9769C-2.75619 78.8818 -4 76.524 -4 74H-3.93448C-3.97791 73.6698 -4 73.3364 -4 73H-3.93448C-3.97791 72.6698 -4 72.3364 -4 72H-3.93448C-3.97791 71.6698 -4 71.3364 -4 71H-3.93448C-3.97791 70.6698 -4 70.3364 -4 70H-3.5C-3.5 72.1705 -1.93476 74.2848 0.108974 76.2574C2.15464 78.2319 5.15192 80.0335 8.92679 81.5572Z" fill="#6FB1FF"/>
<rect width="300" height="26" transform="translate(0 136)" fill="white"/>
<path d="M119.406 144.984C120.35 144.984 121.174 145.164 121.878 145.524C122.582 145.876 123.122 146.376 123.498 147.024C123.882 147.664 124.074 148.404 124.074 149.244C124.074 149.924 123.954 150.556 123.714 151.14C123.482 151.724 123.134 152.192 122.67 152.544C122.214 152.888 121.67 153.06 121.038 153.06C120.614 153.06 120.262 152.976 119.982 152.808C119.71 152.64 119.526 152.404 119.43 152.1C119.206 152.412 118.918 152.656 118.566 152.832C118.214 153 117.83 153.084 117.414 153.084C116.822 153.084 116.354 152.908 116.01 152.556C115.674 152.196 115.506 151.708 115.506 151.092C115.506 150.508 115.626 149.96 115.866 149.448C116.106 148.928 116.438 148.512 116.862 148.2C117.286 147.888 117.762 147.732 118.29 147.732C118.962 147.732 119.418 147.972 119.658 148.452L119.766 147.816H121.422L120.894 150.828C120.87 150.972 120.858 151.1 120.858 151.212C120.858 151.564 121.014 151.74 121.326 151.74C121.71 151.74 122.002 151.496 122.202 151.008C122.41 150.512 122.514 149.944 122.514 149.304C122.514 148.384 122.222 147.664 121.638 147.144C121.062 146.624 120.25 146.364 119.202 146.364C118.306 146.364 117.49 146.58 116.754 147.012C116.026 147.444 115.454 148.036 115.038 148.788C114.622 149.532 114.414 150.352 114.414 151.248C114.414 152.216 114.694 152.968 115.254 153.504C115.822 154.04 116.614 154.308 117.63 154.308C118.422 154.308 119.13 154.164 119.754 153.876L120.078 155.184C119.294 155.528 118.414 155.7 117.438 155.7C116.526 155.7 115.722 155.524 115.026 155.172C114.338 154.82 113.806 154.32 113.43 153.672C113.054 153.024 112.866 152.268 112.866 151.404C112.866 150.196 113.15 149.104 113.718 148.128C114.286 147.144 115.066 146.376 116.058 145.824C117.058 145.264 118.174 144.984 119.406 144.984ZM118.086 151.608C118.31 151.608 118.518 151.54 118.71 151.404C118.91 151.268 119.066 151.088 119.178 150.864C119.298 150.632 119.358 150.384 119.358 150.12C119.358 149.848 119.282 149.628 119.13 149.46C118.978 149.284 118.77 149.196 118.506 149.196C118.154 149.196 117.862 149.348 117.63 149.652C117.398 149.956 117.282 150.316 117.282 150.732C117.282 150.996 117.35 151.208 117.486 151.368C117.622 151.528 117.822 151.608 118.086 151.608ZM134.239 146.232C135.071 146.232 135.731 146.484 136.219 146.988C136.715 147.492 136.963 148.192 136.963 149.088V153H134.923V149.364C134.923 148.932 134.807 148.6 134.575 148.368C134.351 148.128 134.039 148.008 133.639 148.008C133.239 148.008 132.923 148.128 132.691 148.368C132.467 148.6 132.355 148.932 132.355 149.364V153H130.315V149.364C130.315 148.932 130.199 148.6 129.967 148.368C129.743 148.128 129.431 148.008 129.031 148.008C128.631 148.008 128.315 148.128 128.083 148.368C127.859 148.6 127.747 148.932 127.747 149.364V153H125.695V146.304H127.747V147.144C127.955 146.864 128.227 146.644 128.563 146.484C128.899 146.316 129.279 146.232 129.703 146.232C130.207 146.232 130.655 146.34 131.047 146.556C131.447 146.772 131.759 147.08 131.983 147.48C132.215 147.112 132.531 146.812 132.931 146.58C133.331 146.348 133.767 146.232 134.239 146.232ZM146.942 146.232C147.774 146.232 148.434 146.484 148.922 146.988C149.418 147.492 149.666 148.192 149.666 149.088V153H147.626V149.364C147.626 148.932 147.51 148.6 147.278 148.368C147.054 148.128 146.742 148.008 146.342 148.008C145.942 148.008 145.626 148.128 145.394 148.368C145.17 148.6 145.058 148.932 145.058 149.364V153H143.018V149.364C143.018 148.932 142.902 148.6 142.67 148.368C142.446 148.128 142.134 148.008 141.734 148.008C141.334 148.008 141.018 148.128 140.786 148.368C140.562 148.6 140.45 148.932 140.45 149.364V153H138.398V146.304H140.45V147.144C140.658 146.864 140.93 146.644 141.266 146.484C141.602 146.316 141.982 146.232 142.406 146.232C142.91 146.232 143.358 146.34 143.75 146.556C144.15 146.772 144.462 147.08 144.686 147.48C144.918 147.112 145.234 146.812 145.634 146.58C146.034 146.348 146.47 146.232 146.942 146.232ZM150.693 149.64C150.693 148.952 150.821 148.348 151.077 147.828C151.341 147.308 151.697 146.908 152.145 146.628C152.593 146.348 153.093 146.208 153.645 146.208C154.117 146.208 154.529 146.304 154.881 146.496C155.241 146.688 155.517 146.94 155.709 147.252V146.304H157.761V153H155.709V152.052C155.509 152.364 155.229 152.616 154.869 152.808C154.517 153 154.105 153.096 153.633 153.096C153.089 153.096 152.593 152.956 152.145 152.676C151.697 152.388 151.341 151.984 151.077 151.464C150.821 150.936 150.693 150.328 150.693 149.64ZM155.709 149.652C155.709 149.14 155.565 148.736 155.277 148.44C154.997 148.144 154.653 147.996 154.245 147.996C153.837 147.996 153.489 148.144 153.201 148.44C152.921 148.728 152.781 149.128 152.781 149.64C152.781 150.152 152.921 150.56 153.201 150.864C153.489 151.16 153.837 151.308 154.245 151.308C154.653 151.308 154.997 151.16 155.277 150.864C155.565 150.568 155.709 150.164 155.709 149.652ZM160.278 145.608C159.918 145.608 159.622 145.504 159.39 145.296C159.166 145.08 159.054 144.816 159.054 144.504C159.054 144.184 159.166 143.92 159.39 143.712C159.622 143.496 159.918 143.388 160.278 143.388C160.63 143.388 160.918 143.496 161.142 143.712C161.374 143.92 161.49 144.184 161.49 144.504C161.49 144.816 161.374 145.08 161.142 145.296C160.918 145.504 160.63 145.608 160.278 145.608ZM161.298 146.304V153H159.246V146.304H161.298ZM164.837 144.12V153H162.785V144.12H164.837ZM167.284 153.096C166.924 153.096 166.628 152.992 166.396 152.784C166.172 152.568 166.06 152.304 166.06 151.992C166.06 151.672 166.172 151.404 166.396 151.188C166.628 150.972 166.924 150.864 167.284 150.864C167.636 150.864 167.924 150.972 168.148 151.188C168.38 151.404 168.496 151.672 168.496 151.992C168.496 152.304 168.38 152.568 168.148 152.784C167.924 152.992 167.636 153.096 167.284 153.096ZM170.743 145.608C170.383 145.608 170.087 145.504 169.855 145.296C169.631 145.08 169.519 144.816 169.519 144.504C169.519 144.184 169.631 143.92 169.855 143.712C170.087 143.496 170.383 143.388 170.743 143.388C171.095 143.388 171.383 143.496 171.607 143.712C171.839 143.92 171.955 144.184 171.955 144.504C171.955 144.816 171.839 145.08 171.607 145.296C171.383 145.504 171.095 145.608 170.743 145.608ZM171.763 146.304V153H169.711V146.304H171.763ZM177.33 146.232C178.114 146.232 178.738 146.488 179.202 147C179.674 147.504 179.91 148.2 179.91 149.088V153H177.87V149.364C177.87 148.916 177.754 148.568 177.522 148.32C177.29 148.072 176.978 147.948 176.586 147.948C176.194 147.948 175.882 148.072 175.65 148.32C175.418 148.568 175.302 148.916 175.302 149.364V153H173.25V146.304H175.302V147.192C175.51 146.896 175.79 146.664 176.142 146.496C176.494 146.32 176.89 146.232 177.33 146.232ZM185.428 153L183.388 150.192V153H181.336V144.12H183.388V149.028L185.416 146.304H187.948L185.164 149.664L187.972 153H185.428Z" fill="#0069E5"/>
<path d="M327 17C327 26.3888 307.748 34 284 34C260.252 34 241 26.3888 241 17C241 7.61116 260.252 0 284 0C307.748 0 327 7.61116 327 17Z" fill="white"/>
<path d="M264 36L263.863 36.4808L263.881 36.486L263.9 36.4899L264 36ZM257 34L256.821 34.4667L256.841 34.4747L256.863 34.4808L257 34ZM312.5 34L312.647 34.4779L312.68 34.4677L312.711 34.4531L312.5 34ZM242.717 25.8602L243.101 25.5401L242.717 25.8602ZM246.816 29.351L246.564 29.7829L246.816 29.351ZM325.573 25.6584L325.964 25.9707L325.573 25.6584ZM323.144 28.0548L323.451 28.4495L323.144 28.0548ZM325.606 25.6177L325.996 25.9301L325.606 25.6177ZM317.521 31.6567L317.733 32.1098L317.521 31.6567ZM322.159 28.8208L321.852 28.4261L322.159 28.8208ZM253.128 32.5107L252.948 32.9774L253.128 32.5107ZM326.5 17C326.5 19.1632 325.393 21.2762 323.279 23.2519C321.165 25.2283 318.078 27.0313 314.222 28.5558C306.512 31.6038 295.827 33.5 284 33.5V34.5C295.921 34.5 306.736 32.5906 314.589 29.4858C318.515 27.934 321.725 26.0737 323.962 23.9824C326.2 21.8904 327.5 19.5312 327.5 17H326.5ZM284 33.5C272.173 33.5 261.488 31.6038 253.778 28.5558C249.922 27.0313 246.835 25.2283 244.721 23.2519C242.607 21.2762 241.5 19.1632 241.5 17H240.5C240.5 19.5312 241.8 21.8904 244.038 23.9824C246.275 26.0737 249.485 27.934 253.411 29.4858C261.264 32.5906 272.079 34.5 284 34.5V33.5ZM241.5 17C241.5 14.8368 242.607 12.7238 244.721 10.7481C246.835 8.77166 249.922 6.96873 253.778 5.44417C261.488 2.3962 272.173 0.5 284 0.5V-0.5C272.079 -0.5 261.264 1.40938 253.411 4.5142C249.485 6.06604 246.275 7.92631 244.038 10.0176C241.8 12.1096 240.5 14.4688 240.5 17H241.5ZM284 0.5C295.827 0.5 306.512 2.3962 314.222 5.44417C318.078 6.96873 321.165 8.77166 323.279 10.7481C325.393 12.7238 326.5 14.8368 326.5 17H327.5C327.5 14.4688 326.2 12.1096 323.962 10.0176C321.725 7.92631 318.515 6.06604 314.589 4.5142C306.736 1.40938 295.921 -0.5 284 -0.5V0.5ZM240.5 17V19.9575H241.5V17H240.5ZM327.5 20.8819V17H326.5V20.8819H327.5ZM263.9 36.4899L265.816 36.8817L266.016 35.902L264.1 35.5101L263.9 36.4899ZM325.964 25.9707L325.996 25.9301L325.215 25.3054L325.183 25.346L325.964 25.9707ZM242.333 26.1803L242.399 26.2603L243.168 25.6202L243.101 25.5401L242.333 26.1803ZM252.948 32.9774L256.821 34.4667L257.179 33.5333L253.307 32.044L252.948 32.9774ZM256.863 34.4808L263.863 36.4808L264.137 35.5192L257.137 33.5192L256.863 34.4808ZM306.147 36.4779L312.647 34.4779L312.353 33.5221L305.853 35.5221L306.147 36.4779ZM312.711 34.4531L317.733 32.1098L317.31 31.2036L312.289 33.5469L312.711 34.4531ZM322.466 29.2154L323.451 28.4495L322.837 27.6601L321.852 28.4261L322.466 29.2154ZM246.564 29.7829L247.816 30.5132L248.32 29.6494L247.068 28.9191L246.564 29.7829ZM241.172 24.0958C241.425 24.857 241.819 25.564 242.333 26.1803L243.101 25.5401C242.667 25.0196 242.335 24.4224 242.12 23.7796L241.172 24.0958ZM242.399 26.2603C243.572 27.6677 244.982 28.8598 246.564 29.7829L247.068 28.9191C245.586 28.0546 244.266 26.9382 243.168 25.6202L242.399 26.2603ZM325.183 25.346C324.494 26.2067 323.707 26.9834 322.837 27.6601L323.451 28.4495C324.383 27.7246 325.226 26.8927 325.964 25.9707L325.183 25.346ZM326.29 22.9983C326.122 23.8422 325.753 24.6334 325.215 25.3054L325.996 25.9301C326.634 25.1332 327.071 24.1951 327.271 23.1944L326.29 22.9983ZM265.816 36.8817C279.124 39.6038 292.858 39.4695 306.11 36.4878L305.89 35.5122C292.776 38.4628 279.185 38.5957 266.016 35.902L265.816 36.8817ZM317.733 32.1098C319.414 31.3252 321.002 30.3544 322.466 29.2154L321.852 28.4261C320.447 29.5191 318.923 30.4507 317.31 31.2036L317.733 32.1098ZM326.5 20.8819C326.5 21.5926 326.43 22.3015 326.29 22.9983L327.271 23.1944C327.423 22.433 327.5 21.6584 327.5 20.8819H326.5ZM253.307 32.044C251.583 31.381 249.915 30.5802 248.32 29.6494L247.816 30.5132C249.458 31.471 251.174 32.295 252.948 32.9774L253.307 32.044ZM240.5 19.9575C240.5 21.3641 240.727 22.7614 241.172 24.0958L242.12 23.7796C241.709 22.5472 241.5 21.2566 241.5 19.9575H240.5Z" fill="#BF6FFF"/>
<path d="M253.927 28.5572C261.474 31.6036 272.032 33.5 284 33.5C295.968 33.5 306.526 31.6036 314.073 28.5572C317.848 27.0335 320.845 25.2319 322.891 23.2574C324.935 21.2848 326.5 19.1705 326.5 17H327C327 17.3364 326.978 17.6698 326.934 18H327C327 18.3364 326.978 18.6698 326.934 19H327C327 19.3364 326.978 19.6698 326.934 20H327C327 20.3364 326.978 20.6698 326.934 21H327C327 23.524 325.756 25.8818 323.585 27.9769C321.417 30.0702 318.294 31.9318 314.448 33.4845C306.752 36.5908 296.06 38.5 284 38.5C271.94 38.5 261.248 36.5908 253.552 33.4845C249.706 31.9318 246.583 30.0702 244.415 27.9769C242.244 25.8818 241 23.524 241 21H241.066C241.022 20.6698 241 20.3364 241 20H241.066C241.022 19.6698 241 19.3364 241 19H241.066C241.022 18.6698 241 18.3364 241 18H241.066C241.022 17.6698 241 17.3364 241 17H241.5C241.5 19.1705 243.065 21.2848 245.109 23.2574C247.155 25.2319 250.152 27.0335 253.927 28.5572Z" fill="#BF6FFF"/>
<path d="M251 16.0304C251 14.8624 251.231 13.9511 251.694 13.2962C252.165 12.6346 252.97 12.3038 254.111 12.3038C255.252 12.3038 256.053 12.6346 256.516 13.2962C256.987 13.9511 257.222 14.8624 257.222 16.0304C257.222 17.2118 256.987 18.1367 256.516 18.8051C256.053 19.4667 255.252 19.7975 254.111 19.7975C252.97 19.7975 252.165 19.4667 251.694 18.8051C251.231 18.1367 251 17.2118 251 16.0304ZM255.882 16.0304C255.882 15.4835 255.838 15.0211 255.75 14.643C255.671 14.265 255.503 13.9578 255.248 13.7215C254.993 13.4785 254.614 13.357 254.111 13.357C253.609 13.357 253.23 13.4785 252.974 13.7215C252.719 13.9578 252.548 14.265 252.46 14.643C252.38 15.0211 252.34 15.4835 252.34 16.0304C252.34 16.5975 252.38 17.0734 252.46 17.4582C252.54 17.843 252.707 18.1536 252.962 18.3899C253.226 18.6262 253.609 18.7443 254.111 18.7443C254.614 18.7443 254.993 18.6262 255.248 18.3899C255.511 18.1536 255.683 17.843 255.762 17.4582C255.842 17.0734 255.882 16.5975 255.882 16.0304Z" fill="#BF6FFF"/>
<path d="M261.669 16.9924L263.799 19.8177H262.255L260.831 17.9241L259.491 19.8177H258.067L260.197 17.0734L258.067 14.238H259.611L261.035 16.1316L262.375 14.238H263.799L261.669 16.9924Z" fill="#BF6FFF"/>
<path d="M266.18 15.0684C266.411 14.7983 266.727 14.5789 267.125 14.4101C267.532 14.2346 267.983 14.1468 268.478 14.1468C269.06 14.1468 269.586 14.265 270.057 14.5013C270.528 14.7376 270.899 15.0751 271.17 15.5139C271.441 15.946 271.577 16.4422 271.577 17.0025C271.577 17.5629 271.441 18.0658 271.17 18.5114C270.899 18.9502 270.524 19.2945 270.045 19.5443C269.574 19.7873 269.052 19.9089 268.478 19.9089C267.967 19.9089 267.512 19.8245 267.113 19.6557C266.723 19.4869 266.411 19.2709 266.18 19.0076V19.8177H264.816V12.3241H266.18V15.0684ZM270.189 17.0025C270.189 16.6177 270.093 16.2869 269.901 16.0101C269.718 15.7266 269.471 15.5139 269.16 15.3722C268.856 15.2236 268.529 15.1494 268.178 15.1494C267.835 15.1494 267.508 15.2236 267.197 15.3722C266.894 15.5207 266.647 15.7367 266.455 16.0203C266.272 16.3038 266.18 16.638 266.18 17.0228C266.18 17.4076 266.272 17.7451 266.455 18.0354C266.647 18.319 266.894 18.535 267.197 18.6835C267.508 18.8321 267.835 18.9063 268.178 18.9063C268.529 18.9063 268.856 18.8321 269.16 18.6835C269.471 18.5283 269.718 18.3055 269.901 18.0152C270.093 17.7249 270.189 17.3873 270.189 17.0025Z" fill="#BF6FFF"/>
<path d="M272.722 14.2582C272.77 13.6304 273.053 13.1409 273.572 12.7899C274.098 12.4388 274.768 12.2633 275.582 12.2633C276.14 12.2633 276.623 12.3477 277.03 12.5165C277.437 12.6852 277.744 12.9148 277.951 13.2051C278.159 13.4954 278.262 13.8228 278.262 14.1873C278.262 14.6059 278.131 14.9637 277.867 15.2608C277.604 15.5578 277.289 15.757 276.922 15.8582V15.8987C277.393 16.0203 277.76 16.243 278.023 16.5671C278.286 16.8844 278.418 17.2928 278.418 17.7924C278.418 18.1907 278.31 18.5451 278.095 18.8557C277.879 19.1662 277.56 19.4127 277.137 19.5949C276.715 19.7705 276.208 19.8582 275.618 19.8582C274.756 19.8582 274.046 19.6726 273.488 19.3013C272.938 18.9232 272.642 18.3831 272.602 17.681H273.919C273.951 18.0388 274.114 18.3325 274.409 18.562C274.704 18.7848 275.103 18.8962 275.606 18.8962C276.092 18.8962 276.467 18.7848 276.731 18.562C276.994 18.3325 277.125 18.0388 277.125 17.681C277.125 17.2084 276.946 16.8743 276.587 16.6785C276.236 16.4759 275.694 16.3747 274.96 16.3747H274.649V15.4228H274.972C275.618 15.416 276.108 15.3249 276.443 15.1494C276.786 14.9738 276.958 14.697 276.958 14.319C276.958 13.9949 276.834 13.7384 276.587 13.5494C276.34 13.3536 275.989 13.2557 275.534 13.2557C275.087 13.2557 274.74 13.3536 274.493 13.5494C274.246 13.7384 274.098 13.9747 274.05 14.2582H272.722Z" fill="#BF6FFF"/>
<path d="M281.322 15.9595C280.493 15.6084 280.078 15.0549 280.078 14.2987C280.078 13.9342 280.186 13.6 280.401 13.2962C280.616 12.9924 280.94 12.7527 281.37 12.5772C281.801 12.3949 282.328 12.3038 282.95 12.3038C283.564 12.3038 284.086 12.3949 284.517 12.5772C284.956 12.7527 285.283 12.9924 285.498 13.2962C285.714 13.6 285.821 13.9342 285.821 14.2987C285.821 14.6768 285.706 15.011 285.474 15.3013C285.251 15.5848 284.952 15.8042 284.577 15.9595C285.032 16.1013 285.391 16.3342 285.654 16.6582C285.917 16.9755 286.049 17.3502 286.049 17.7823C286.049 18.2211 285.917 18.6093 285.654 18.9468C285.391 19.2844 285.024 19.5443 284.553 19.7266C284.082 19.9089 283.548 20 282.95 20C282.351 20 281.817 19.9089 281.346 19.7266C280.884 19.5443 280.521 19.2844 280.257 18.9468C279.994 18.6093 279.863 18.2211 279.863 17.7823C279.863 17.3435 279.994 16.9654 280.257 16.6481C280.521 16.3308 280.876 16.1013 281.322 15.9595ZM284.517 14.4405C284.517 14.0624 284.378 13.7722 284.098 13.5696C283.819 13.3671 283.436 13.2658 282.95 13.2658C282.471 13.2658 282.092 13.3671 281.813 13.5696C281.534 13.7722 281.394 14.0658 281.394 14.4506C281.394 14.7882 281.538 15.065 281.825 15.281C282.12 15.4903 282.495 15.5949 282.95 15.5949C283.404 15.5949 283.779 15.4869 284.075 15.2709C284.37 15.0549 284.517 14.7781 284.517 14.4405ZM282.95 16.4658C282.423 16.4658 281.992 16.5772 281.657 16.8C281.33 17.016 281.167 17.33 281.167 17.7418C281.167 18.1266 281.326 18.4405 281.645 18.6835C281.965 18.9198 282.399 19.038 282.95 19.038C283.492 19.038 283.919 18.9165 284.23 18.6734C284.549 18.4304 284.709 18.1198 284.709 17.7418C284.709 17.3367 284.545 17.0228 284.218 16.8C283.899 16.5772 283.476 16.4658 282.95 16.4658Z" fill="#BF6FFF"/>
<path d="M287.457 14.2582C287.505 13.6304 287.788 13.1409 288.307 12.7899C288.833 12.4388 289.503 12.2633 290.317 12.2633C290.875 12.2633 291.358 12.3477 291.765 12.5165C292.172 12.6852 292.479 12.9148 292.686 13.2051C292.893 13.4954 292.997 13.8228 292.997 14.1873C292.997 14.6059 292.866 14.9637 292.602 15.2608C292.339 15.5578 292.024 15.757 291.657 15.8582V15.8987C292.128 16.0203 292.495 16.243 292.758 16.5671C293.021 16.8844 293.153 17.2928 293.153 17.7924C293.153 18.1907 293.045 18.5451 292.83 18.8557C292.614 19.1662 292.295 19.4127 291.872 19.5949C291.45 19.7705 290.943 19.8582 290.353 19.8582C289.491 19.8582 288.781 19.6726 288.223 19.3013C287.673 18.9232 287.377 18.3831 287.337 17.681H288.654C288.686 18.0388 288.849 18.3325 289.144 18.562C289.439 18.7848 289.838 18.8962 290.341 18.8962C290.827 18.8962 291.202 18.7848 291.466 18.562C291.729 18.3325 291.86 18.0388 291.86 17.681C291.86 17.2084 291.681 16.8743 291.322 16.6785C290.971 16.4759 290.429 16.3747 289.695 16.3747H289.384V15.4228H289.707C290.353 15.416 290.843 15.3249 291.178 15.1494C291.521 14.9738 291.693 14.697 291.693 14.319C291.693 13.9949 291.569 13.7384 291.322 13.5494C291.075 13.3536 290.724 13.2557 290.269 13.2557C289.822 13.2557 289.475 13.3536 289.228 13.5494C288.981 13.7384 288.833 13.9747 288.785 14.2582H287.457Z" fill="#BF6FFF"/>
<path d="M294.562 14.2582C294.61 13.6304 294.893 13.1409 295.411 12.7899C295.938 12.4388 296.608 12.2633 297.421 12.2633C297.98 12.2633 298.462 12.3477 298.869 12.5165C299.276 12.6852 299.583 12.9148 299.791 13.2051C299.998 13.4954 300.102 13.8228 300.102 14.1873C300.102 14.6059 299.97 14.9637 299.707 15.2608C299.444 15.5578 299.129 15.757 298.762 15.8582V15.8987C299.232 16.0203 299.599 16.243 299.862 16.5671C300.126 16.8844 300.257 17.2928 300.257 17.7924C300.257 18.1907 300.15 18.5451 299.934 18.8557C299.719 19.1662 299.4 19.4127 298.977 19.5949C298.554 19.7705 298.048 19.8582 297.457 19.8582C296.596 19.8582 295.886 19.6726 295.327 19.3013C294.777 18.9232 294.482 18.3831 294.442 17.681H295.758C295.79 18.0388 295.954 18.3325 296.249 18.562C296.544 18.7848 296.943 18.8962 297.445 18.8962C297.932 18.8962 298.307 18.7848 298.57 18.562C298.833 18.3325 298.965 18.0388 298.965 17.681C298.965 17.2084 298.786 16.8743 298.427 16.6785C298.076 16.4759 297.533 16.3747 296.799 16.3747H296.488V15.4228H296.811C297.457 15.416 297.948 15.3249 298.283 15.1494C298.626 14.9738 298.798 14.697 298.798 14.319C298.798 13.9949 298.674 13.7384 298.427 13.5494C298.179 13.3536 297.828 13.2557 297.374 13.2557C296.927 13.2557 296.58 13.3536 296.333 13.5494C296.085 13.7384 295.938 13.9747 295.89 14.2582H294.562Z" fill="#BF6FFF"/>
<path d="M304.634 15.1797H303.413V19.8177H302.037V15.1797H301.259V14.238H302.037V13.843C302.037 13.2017 302.237 12.7359 302.635 12.4456C303.042 12.1485 303.676 12 304.538 12V12.962C304.123 12.962 303.832 13.0295 303.665 13.1646C303.497 13.2928 303.413 13.519 303.413 13.843V14.238H304.634V15.1797Z" fill="#BF6FFF"/>
<path d="M308.607 15.1797H307.386V19.8177H306.01V15.1797H305.232V14.238H306.01V13.843C306.01 13.2017 306.21 12.7359 306.608 12.4456C307.015 12.1485 307.649 12 308.511 12V12.962C308.096 12.962 307.805 13.0295 307.637 13.1646C307.47 13.2928 307.386 13.519 307.386 13.843V14.238H308.607V15.1797Z" fill="#BF6FFF"/>
<path d="M310.366 19.8886C310.119 19.8886 309.911 19.8177 309.744 19.6759C309.576 19.5342 309.493 19.3586 309.493 19.1494C309.493 18.9401 309.576 18.7646 309.744 18.6228C309.911 18.481 310.119 18.4101 310.366 18.4101C310.605 18.4101 310.809 18.481 310.976 18.6228C311.144 18.7646 311.228 18.9401 311.228 19.1494C311.228 19.3586 311.144 19.5342 310.976 19.6759C310.809 19.8177 310.605 19.8886 310.366 19.8886Z" fill="#BF6FFF"/>
<path d="M313.252 19.8886C313.005 19.8886 312.798 19.8177 312.63 19.6759C312.463 19.5342 312.379 19.3586 312.379 19.1494C312.379 18.9401 312.463 18.7646 312.63 18.6228C312.798 18.481 313.005 18.4101 313.252 18.4101C313.492 18.4101 313.695 18.481 313.862 18.6228C314.03 18.7646 314.114 18.9401 314.114 19.1494C314.114 19.3586 314.03 19.5342 313.862 19.6759C313.695 19.8177 313.492 19.8886 313.252 19.8886Z" fill="#BF6FFF"/>
<path d="M316.138 19.8886C315.891 19.8886 315.684 19.8177 315.516 19.6759C315.349 19.5342 315.265 19.3586 315.265 19.1494C315.265 18.9401 315.349 18.7646 315.516 18.6228C315.684 18.481 315.891 18.4101 316.138 18.4101C316.378 18.4101 316.581 18.481 316.749 18.6228C316.916 18.7646 317 18.9401 317 19.1494C317 19.3586 316.916 19.5342 316.749 19.6759C316.581 19.8177 316.378 19.8886 316.138 19.8886Z" fill="#BF6FFF"/>
<path d="M50.1225 21C49.5342 21 49.0048 20.9181 48.5341 20.7543C48.0725 20.5834 47.706 20.3556 47.4344 20.0708C47.1629 19.7788 47.0181 19.4548 47 19.0988H48.602C48.6291 19.348 48.7785 19.5581 49.05 19.729C49.3306 19.8927 49.679 19.9746 50.0954 19.9746C50.5298 19.9746 50.8647 19.9105 51.1 19.7824C51.3444 19.6471 51.4666 19.4762 51.4666 19.2697C51.4666 19.049 51.3308 18.8852 51.0593 18.7784C50.7968 18.6716 50.376 18.5541 49.7967 18.4259C49.2356 18.3049 48.7785 18.1874 48.4255 18.0734C48.0725 17.9595 47.7648 17.785 47.5023 17.5501C47.2489 17.3151 47.1222 17.0053 47.1222 16.6208C47.1222 16.3075 47.2398 16.0227 47.4752 15.7664C47.7105 15.5029 48.0454 15.2964 48.4798 15.1469C48.9233 14.9973 49.4301 14.9226 50.0003 14.9226C50.8511 14.9226 51.5345 15.0935 52.0504 15.4352C52.5753 15.7699 52.8559 16.2292 52.8921 16.8131H51.3444C51.3172 16.5496 51.1815 16.3396 50.9371 16.1829C50.6927 16.0263 50.3624 15.9479 49.946 15.9479C49.5388 15.9479 49.2265 16.0085 49.0093 16.1295C48.7921 16.2506 48.6835 16.4108 48.6835 16.6101C48.6835 16.7668 48.7559 16.8985 48.9007 17.0053C49.0455 17.1121 49.222 17.1976 49.4301 17.2617C49.6383 17.3186 49.946 17.3934 50.3533 17.486C50.8964 17.5999 51.3399 17.7174 51.6838 17.8385C52.0368 17.9524 52.34 18.1233 52.5934 18.3511C52.8468 18.579 52.9781 18.8816 52.9871 19.259C52.9871 19.5937 52.8695 19.8927 52.6341 20.1562C52.3988 20.4197 52.0639 20.6262 51.6295 20.7757C51.2041 20.9252 50.7018 21 50.1225 21Z" fill="#6E7DFF"/>
<path d="M61.434 15.0187V20.9039H59.8863V20.2096C59.6419 20.4517 59.3206 20.644 58.9224 20.7864C58.5332 20.9217 58.1168 20.9893 57.6734 20.9893C57.0851 20.9893 56.5556 20.8932 56.0849 20.7009C55.6233 20.5087 55.2568 20.2239 54.9853 19.8465C54.7228 19.4691 54.5916 19.0134 54.5916 18.4793V15.0187H56.1257V18.2977C56.1257 18.8247 56.2931 19.2305 56.628 19.5154C56.9629 19.7931 57.4199 19.9319 57.9992 19.9319C58.5784 19.9319 59.0355 19.7931 59.3704 19.5154C59.7143 19.2305 59.8863 18.8247 59.8863 18.2977V15.0187H61.434Z" fill="#6E7DFF"/>
<path d="M67.2502 14.9226C67.8385 14.9226 68.3635 15.0187 68.8251 15.2109C69.2957 15.4032 69.6623 15.688 69.9247 16.0654C70.1872 16.4428 70.3185 16.8985 70.3185 17.4326V20.9039H68.7843V17.6142C68.7843 17.0872 68.6169 16.6849 68.282 16.4072C67.9471 16.1224 67.4901 15.98 66.9108 15.98C66.3316 15.98 65.87 16.1224 65.526 16.4072C65.1912 16.6849 65.0237 17.0872 65.0237 17.6142V20.9039H63.476V15.0187H65.0237V15.6916C65.2771 15.4495 65.5984 15.2608 65.9876 15.1255C66.3859 14.9902 66.8067 14.9226 67.2502 14.9226Z" fill="#6E7DFF"/>
<path d="M79.1486 17.8171C79.1486 18.0378 79.1305 18.2372 79.0943 18.4152H73.3787C73.424 18.8852 73.6457 19.2626 74.044 19.5474C74.4422 19.8322 74.9309 19.9746 75.5102 19.9746C76.3429 19.9746 76.9312 19.7005 77.2751 19.1522H78.945C78.7187 19.6934 78.3069 20.1384 77.7095 20.4873C77.1212 20.8291 76.3881 21 75.5102 21C74.7952 21 74.1526 20.8754 73.5824 20.6262C73.0212 20.3698 72.5777 20.0138 72.2519 19.5581C71.9351 19.0952 71.7767 18.5612 71.7767 17.9559C71.7767 17.3507 71.9306 16.8202 72.2383 16.3645C72.5551 15.9016 72.9941 15.5456 73.5552 15.2964C74.1254 15.0472 74.7771 14.9226 75.5102 14.9226C76.2162 14.9226 76.8452 15.0436 77.3973 15.2857C77.9494 15.5278 78.3793 15.8696 78.687 16.3111C78.9948 16.7454 79.1486 17.2474 79.1486 17.8171ZM77.5331 17.4326C77.524 16.984 77.3204 16.6244 76.9221 16.3538C76.5239 16.0832 76.0306 15.9479 75.4423 15.9479C74.9083 15.9479 74.4512 16.0832 74.0711 16.3538C73.691 16.6173 73.4647 16.9769 73.3923 17.4326H77.5331Z" fill="#6E7DFF"/>
<path d="M80.1558 17.9346C80.1558 17.3436 80.3097 16.8202 80.6174 16.3645C80.9342 15.9088 81.3596 15.5563 81.8936 15.3071C82.4366 15.0507 83.034 14.9226 83.6856 14.9226C84.2739 14.9226 84.7853 15.0151 85.2197 15.2003C85.6632 15.3783 86.0162 15.6026 86.2787 15.8732V15.0187H87.84V20.9039H86.2787V20.028C86.0162 20.3057 85.6587 20.5372 85.2062 20.7223C84.7536 20.9074 84.2377 21 83.6585 21C83.0159 21 82.4276 20.8718 81.8936 20.6155C81.3596 20.352 80.9342 19.9889 80.6174 19.526C80.3097 19.0561 80.1558 18.5256 80.1558 17.9346ZM86.2787 17.9559C86.2787 17.5501 86.1701 17.1976 85.9529 16.8985C85.7447 16.5995 85.4686 16.3716 85.1247 16.215C84.7808 16.0583 84.4097 15.98 84.0115 15.98C83.6132 15.98 83.2421 16.0583 82.8982 16.215C82.5543 16.3645 82.2737 16.5888 82.0565 16.8879C81.8483 17.1798 81.7442 17.5287 81.7442 17.9346C81.7442 18.3405 81.8483 18.6965 82.0565 19.0027C82.2737 19.3089 82.5543 19.5438 82.8982 19.7076C83.2512 19.8643 83.6223 19.9426 84.0115 19.9426C84.4097 19.9426 84.7808 19.8643 85.1247 19.7076C85.4686 19.551 85.7447 19.3231 85.9529 19.024C86.1701 18.7178 86.2787 18.3618 86.2787 17.9559Z" fill="#6E7DFF"/>
<path d="M91.4205 13V20.9039H89.8728V13H91.4205Z" fill="#6E7DFF"/>
<path d="M94.077 20.9786C93.7964 20.9786 93.5611 20.9039 93.371 20.7543C93.1809 20.6048 93.0859 20.4197 93.0859 20.1989C93.0859 19.9782 93.1809 19.7931 93.371 19.6435C93.5611 19.494 93.7964 19.4192 94.077 19.4192C94.3485 19.4192 94.5793 19.494 94.7693 19.6435C94.9594 19.7931 95.0544 19.9782 95.0544 20.1989C95.0544 20.4197 94.9594 20.6048 94.7693 20.7543C94.5793 20.9039 94.3485 20.9786 94.077 20.9786Z" fill="#6E7DFF"/>
<path d="M103.583 17.8171C103.583 18.0378 103.565 18.2372 103.529 18.4152H97.8133C97.8585 18.8852 98.0803 19.2626 98.4785 19.5474C98.8768 19.8322 99.3655 19.9746 99.9448 19.9746C100.777 19.9746 101.366 19.7005 101.71 19.1522H103.38C103.153 19.6934 102.741 20.1384 102.144 20.4873C101.556 20.8291 100.823 21 99.9448 21C99.2297 21 98.5871 20.8754 98.0169 20.6262C97.4558 20.3698 97.0123 20.0138 96.6865 19.5581C96.3697 19.0952 96.2113 18.5612 96.2113 17.9559C96.2113 17.3507 96.3652 16.8202 96.6729 16.3645C96.9897 15.9016 97.4286 15.5456 97.9898 15.2964C98.56 15.0472 99.2116 14.9226 99.9448 14.9226C100.651 14.9226 101.28 15.0436 101.832 15.2857C102.384 15.5278 102.814 15.8696 103.122 16.3111C103.429 16.7454 103.583 17.2474 103.583 17.8171ZM101.968 17.4326C101.959 16.984 101.755 16.6244 101.357 16.3538C100.958 16.0832 100.465 15.9479 99.8769 15.9479C99.3429 15.9479 98.8858 16.0832 98.5057 16.3538C98.1255 16.6173 97.8993 16.9769 97.8269 17.4326H101.968Z" fill="#6E7DFF"/>
<path d="M106.912 16.012V19.2697C106.912 19.4904 106.975 19.6506 107.102 19.7503C107.238 19.8429 107.464 19.8892 107.781 19.8892H108.731V20.9039H107.509C106.812 20.9039 106.278 20.7757 105.907 20.5194C105.536 20.263 105.351 19.8465 105.351 19.2697V16.012H104.468V15.0187H105.351V13.5554H106.912V15.0187H108.731V16.012H106.912Z" fill="#6E7DFF"/>
<path d="M114.027 14.9226C114.597 14.9226 115.104 15.0187 115.547 15.2109C116 15.4032 116.353 15.688 116.606 16.0654C116.869 16.4428 117 16.8985 117 17.4326V20.9039H115.466V17.6142C115.466 17.0872 115.298 16.6849 114.964 16.4072C114.629 16.1224 114.172 15.98 113.592 15.98C113.013 15.98 112.552 16.1224 112.208 16.4072C111.873 16.6849 111.705 17.0872 111.705 17.6142V20.9039H110.158V13H111.705V15.7023C111.968 15.453 112.298 15.2608 112.696 15.1255C113.104 14.9902 113.547 14.9226 114.027 14.9226Z" fill="#6E7DFF"/>
<path d="M168 124.92C168 123.692 168.248 122.733 168.743 122.044C169.246 121.348 170.109 121 171.329 121C172.55 121 173.408 121.348 173.903 122.044C174.407 122.733 174.659 123.692 174.659 124.92C174.659 126.163 174.407 127.136 173.903 127.839C173.408 128.535 172.55 128.883 171.329 128.883C170.109 128.883 169.246 128.535 168.743 127.839C168.248 127.136 168 126.163 168 124.92ZM173.224 124.92C173.224 124.345 173.177 123.858 173.084 123.461C172.998 123.063 172.819 122.74 172.546 122.491C172.273 122.236 171.867 122.108 171.329 122.108C170.791 122.108 170.386 122.236 170.113 122.491C169.84 122.74 169.656 123.063 169.562 123.461C169.477 123.858 169.434 124.345 169.434 124.92C169.434 125.517 169.477 126.017 169.562 126.422C169.648 126.827 169.827 127.154 170.1 127.402C170.382 127.651 170.791 127.775 171.329 127.775C171.867 127.775 172.273 127.651 172.546 127.402C172.827 127.154 173.011 126.827 173.096 126.422C173.182 126.017 173.224 125.517 173.224 124.92Z" fill="#BF6FFF"/>
<path d="M179.417 125.932L181.696 128.904H180.045L178.521 126.912L177.087 128.904H175.563L177.842 126.017L175.563 123.035H177.215L178.738 125.027L180.173 123.035H181.696L179.417 125.932Z" fill="#BF6FFF"/>
<path d="M188.611 122.182H184.322V124.302C184.501 124.103 184.766 123.937 185.116 123.802C185.474 123.667 185.854 123.599 186.255 123.599C186.972 123.599 187.553 123.727 187.997 123.983C188.449 124.238 188.769 124.561 188.957 124.952C189.153 125.343 189.252 125.755 189.252 126.188C189.252 126.713 189.128 127.182 188.88 127.594C188.641 127.999 188.278 128.318 187.792 128.553C187.314 128.787 186.725 128.904 186.025 128.904C185.094 128.904 184.347 128.712 183.784 128.329C183.22 127.945 182.883 127.438 182.772 126.806H184.194C184.288 127.139 184.497 127.406 184.821 127.605C185.145 127.796 185.551 127.892 186.037 127.892C186.644 127.892 187.096 127.739 187.395 127.434C187.702 127.129 187.856 126.724 187.856 126.22C187.856 125.708 187.702 125.318 187.395 125.048C187.087 124.771 186.635 124.632 186.037 124.632C185.619 124.632 185.265 124.721 184.975 124.899C184.693 125.069 184.488 125.304 184.36 125.602H182.977V121.117H188.611V122.182Z" fill="#BF6FFF"/>
<path d="M190.579 122.246V121.138H193.242V128.904H191.77V122.246H190.579Z" fill="#BF6FFF"/>
<path d="M194.953 125.943C194.953 125.353 195.098 124.831 195.389 124.377C195.687 123.922 196.089 123.571 196.592 123.322C197.104 123.067 197.668 122.939 198.283 122.939C198.837 122.939 199.32 123.031 199.729 123.216C200.148 123.393 200.481 123.617 200.728 123.887V123.035H202.201V128.904H200.728V128.031C200.481 128.308 200.143 128.538 199.717 128.723C199.29 128.908 198.803 129 198.257 129C197.651 129 197.096 128.872 196.592 128.617C196.089 128.354 195.687 127.992 195.389 127.53C195.098 127.061 194.953 126.532 194.953 125.943ZM200.728 125.964C200.728 125.559 200.626 125.208 200.421 124.909C200.225 124.611 199.964 124.384 199.64 124.228C199.315 124.071 198.965 123.993 198.59 123.993C198.214 123.993 197.864 124.071 197.54 124.228C197.215 124.377 196.951 124.601 196.746 124.899C196.55 125.19 196.451 125.538 196.451 125.943C196.451 126.348 196.55 126.703 196.746 127.008C196.951 127.313 197.215 127.548 197.54 127.711C197.873 127.867 198.223 127.945 198.59 127.945C198.965 127.945 199.315 127.867 199.64 127.711C199.964 127.555 200.225 127.328 200.421 127.029C200.626 126.724 200.728 126.369 200.728 125.964Z" fill="#BF6FFF"/>
<path d="M210.585 125.826C210.585 126.046 210.567 126.245 210.533 126.422H205.142C205.185 126.891 205.394 127.267 205.77 127.551C206.146 127.835 206.607 127.977 207.153 127.977C207.938 127.977 208.493 127.704 208.817 127.157H210.392C210.179 127.697 209.791 128.141 209.227 128.489C208.672 128.83 207.981 129 207.153 129C206.478 129 205.872 128.876 205.335 128.627C204.805 128.372 204.387 128.016 204.08 127.562C203.781 127.1 203.632 126.568 203.632 125.964C203.632 125.36 203.777 124.831 204.067 124.377C204.366 123.915 204.78 123.56 205.309 123.312C205.847 123.063 206.461 122.939 207.153 122.939C207.819 122.939 208.412 123.059 208.933 123.301C209.453 123.542 209.859 123.883 210.149 124.324C210.439 124.757 210.585 125.257 210.585 125.826ZM209.061 125.442C209.052 124.995 208.86 124.636 208.485 124.366C208.109 124.096 207.644 123.961 207.089 123.961C206.585 123.961 206.154 124.096 205.796 124.366C205.437 124.629 205.224 124.988 205.155 125.442H209.061Z" fill="#BF6FFF"/>
<path d="M211.65 127.285V126.369L215.952 121.234H217.719V126.23H218.91V127.285H217.719V128.904H216.285V127.285H211.65ZM216.349 122.47L213.327 126.23H216.349V122.47Z" fill="#BF6FFF"/>
<path d="M220.901 128.979C220.636 128.979 220.414 128.904 220.235 128.755C220.056 128.606 219.966 128.421 219.966 128.201C219.966 127.981 220.056 127.796 220.235 127.647C220.414 127.498 220.636 127.423 220.901 127.423C221.157 127.423 221.375 127.498 221.554 127.647C221.733 127.796 221.823 127.981 221.823 128.201C221.823 128.421 221.733 128.606 221.554 128.755C221.375 128.904 221.157 128.979 220.901 128.979Z" fill="#BF6FFF"/>
<path d="M223.989 128.979C223.725 128.979 223.503 128.904 223.324 128.755C223.144 128.606 223.055 128.421 223.055 128.201C223.055 127.981 223.144 127.796 223.324 127.647C223.503 127.498 223.725 127.423 223.989 127.423C224.245 127.423 224.463 127.498 224.642 127.647C224.822 127.796 224.911 127.981 224.911 128.201C224.911 128.421 224.822 128.606 224.642 128.755C224.463 128.904 224.245 128.979 223.989 128.979Z" fill="#BF6FFF"/>
<path d="M227.078 128.979C226.813 128.979 226.591 128.904 226.412 128.755C226.233 128.606 226.143 128.421 226.143 128.201C226.143 127.981 226.233 127.796 226.412 127.647C226.591 127.498 226.813 127.423 227.078 127.423C227.334 127.423 227.552 127.498 227.731 127.647C227.91 127.796 228 127.981 228 128.201C228 128.421 227.91 128.606 227.731 128.755C227.552 128.904 227.334 128.979 227.078 128.979Z" fill="#BF6FFF"/>
</g>
<defs>
<clipPath id="clip0_437_782">
<rect width="300" height="160" fill="white"/>
</clipPath>
</defs>
</svg>
