<svg width="300" height="160" viewBox="0 0 300 160" fill="none" xmlns="http://www.w3.org/2000/svg">
<g clip-path="url(#clip0_430_11680)">
<g clip-path="url(#clip1_430_11680)">
<path d="M-54.4638 51.608C-53.4718 51.608 -52.5758 51.824 -51.7758 52.256C-50.9758 52.672 -50.3518 53.304 -49.9038 54.152C-49.4398 55 -49.2078 56.032 -49.2078 57.248V65H-51.3678V57.56C-51.3678 56.248 -51.6958 55.248 -52.3518 54.56C-53.0078 53.856 -53.9038 53.504 -55.0398 53.504C-56.1918 53.504 -57.1118 53.864 -57.7998 54.584C-58.4718 55.304 -58.8078 56.352 -58.8078 57.728V65H-60.9918V47.24H-58.8078V53.72C-58.3758 53.048 -57.7838 52.528 -57.0318 52.16C-56.2638 51.792 -55.4078 51.608 -54.4638 51.608ZM-33.6403 57.92C-33.6403 58.336 -33.6643 58.776 -33.7123 59.24H-44.2243C-44.1443 60.536 -43.7043 61.552 -42.9043 62.288C-42.0883 63.008 -41.1043 63.368 -39.9523 63.368C-39.0083 63.368 -38.2243 63.152 -37.6003 62.72C-36.9603 62.272 -36.5123 61.68 -36.2563 60.944H-33.9043C-34.2563 62.208 -34.9603 63.24 -36.0163 64.04C-37.0723 64.824 -38.3843 65.216 -39.9523 65.216C-41.2003 65.216 -42.3203 64.936 -43.3123 64.376C-44.2883 63.816 -45.0563 63.024 -45.6163 62C-46.1763 60.96 -46.4563 59.76 -46.4563 58.4C-46.4563 57.04 -46.1843 55.848 -45.6403 54.824C-45.0963 53.8 -44.3363 53.016 -43.3603 52.472C-42.3683 51.912 -41.2323 51.632 -39.9523 51.632C-38.7043 51.632 -37.6003 51.904 -36.6403 52.448C-35.6803 52.992 -34.9443 53.744 -34.4323 54.704C-33.9043 55.648 -33.6403 56.72 -33.6403 57.92ZM-35.8963 57.464C-35.8963 56.632 -36.0803 55.92 -36.4483 55.328C-36.8163 54.72 -37.3203 54.264 -37.9603 53.96C-38.5843 53.64 -39.2803 53.48 -40.0483 53.48C-41.1523 53.48 -42.0963 53.832 -42.8803 54.536C-43.6483 55.24 -44.0883 56.216 -44.2003 57.464H-35.8963ZM-28.5735 47.24V65H-30.7575V47.24H-28.5735ZM-22.6672 47.24V65H-24.8512V47.24H-22.6672ZM-13.209 65.216C-14.441 65.216 -15.561 64.936 -16.569 64.376C-17.561 63.816 -18.345 63.024 -18.921 62C-19.481 60.96 -19.761 59.76 -19.761 58.4C-19.761 57.056 -19.473 55.872 -18.897 54.848C-18.305 53.808 -17.505 53.016 -16.497 52.472C-15.489 51.912 -14.361 51.632 -13.113 51.632C-11.865 51.632 -10.737 51.912 -9.72897 52.472C-8.72097 53.016 -7.92897 53.8 -7.35297 54.824C-6.76097 55.848 -6.46497 57.04 -6.46497 58.4C-6.46497 59.76 -6.76897 60.96 -7.37697 62C-7.96897 63.024 -8.77697 63.816 -9.80097 64.376C-10.825 64.936 -11.961 65.216 -13.209 65.216ZM-13.209 63.296C-12.425 63.296 -11.689 63.112 -11.001 62.744C-10.313 62.376 -9.76097 61.824 -9.34497 61.088C-8.91297 60.352 -8.69697 59.456 -8.69697 58.4C-8.69697 57.344 -8.90497 56.448 -9.32097 55.712C-9.73697 54.976 -10.281 54.432 -10.953 54.08C-11.625 53.712 -12.353 53.528 -13.137 53.528C-13.937 53.528 -14.673 53.712 -15.345 54.08C-16.001 54.432 -16.529 54.976 -16.929 55.712C-17.329 56.448 -17.529 57.344 -17.529 58.4C-17.529 59.472 -17.337 60.376 -16.953 61.112C-16.553 61.848 -16.025 62.4 -15.369 62.768C-14.713 63.12 -13.993 63.296 -13.209 63.296ZM-1.33741 61.976L-4.02541 68.432H-5.48941L-3.73741 61.976H-1.33741ZM6.74684 58.376C6.74684 57.032 7.01884 55.856 7.56284 54.848C8.10684 53.824 8.85084 53.032 9.79484 52.472C10.7548 51.912 11.8268 51.632 13.0108 51.632C14.0348 51.632 14.9868 51.872 15.8668 52.352C16.7468 52.816 17.4188 53.432 17.8828 54.2V47.24H20.0908V65H17.8828V62.528C17.4508 63.312 16.8108 63.96 15.9628 64.472C15.1148 64.968 14.1228 65.216 12.9868 65.216C11.8188 65.216 10.7548 64.928 9.79484 64.352C8.85084 63.776 8.10684 62.968 7.56284 61.928C7.01884 60.888 6.74684 59.704 6.74684 58.376ZM17.8828 58.4C17.8828 57.408 17.6828 56.544 17.2828 55.808C16.8828 55.072 16.3388 54.512 15.6508 54.128C14.9788 53.728 14.2348 53.528 13.4188 53.528C12.6028 53.528 11.8588 53.72 11.1868 54.104C10.5148 54.488 9.97884 55.048 9.57884 55.784C9.17884 56.52 8.97884 57.384 8.97884 58.376C8.97884 59.384 9.17884 60.264 9.57884 61.016C9.97884 61.752 10.5148 62.32 11.1868 62.72C11.8588 63.104 12.6028 63.296 13.4188 63.296C14.2348 63.296 14.9788 63.104 15.6508 62.72C16.3388 62.32 16.8828 61.752 17.2828 61.016C17.6828 60.264 17.8828 59.392 17.8828 58.4ZM35.7816 57.92C35.7816 58.336 35.7576 58.776 35.7096 59.24H25.1976C25.2776 60.536 25.7176 61.552 26.5176 62.288C27.3336 63.008 28.3176 63.368 29.4696 63.368C30.4136 63.368 31.1976 63.152 31.8216 62.72C32.4616 62.272 32.9096 61.68 33.1656 60.944H35.5176C35.1656 62.208 34.4616 63.24 33.4056 64.04C32.3496 64.824 31.0376 65.216 29.4696 65.216C28.2216 65.216 27.1016 64.936 26.1096 64.376C25.1336 63.816 24.3656 63.024 23.8056 62C23.2456 60.96 22.9656 59.76 22.9656 58.4C22.9656 57.04 23.2376 55.848 23.7816 54.824C24.3256 53.8 25.0856 53.016 26.0616 52.472C27.0536 51.912 28.1896 51.632 29.4696 51.632C30.7176 51.632 31.8216 51.904 32.7816 52.448C33.7416 52.992 34.4776 53.744 34.9896 54.704C35.5176 55.648 35.7816 56.72 35.7816 57.92ZM33.5256 57.464C33.5256 56.632 33.3416 55.92 32.9736 55.328C32.6056 54.72 32.1016 54.264 31.4616 53.96C30.8376 53.64 30.1416 53.48 29.3736 53.48C28.2696 53.48 27.3256 53.832 26.5416 54.536C25.7736 55.24 25.3336 56.216 25.2216 57.464H33.5256ZM37.8484 58.376C37.8484 57.032 38.1204 55.856 38.6644 54.848C39.2084 53.824 39.9524 53.032 40.8964 52.472C41.8564 51.912 42.9204 51.632 44.0884 51.632C45.2404 51.632 46.2404 51.88 47.0884 52.376C47.9364 52.872 48.5684 53.496 48.9844 54.248V51.848H51.1924V65H48.9844V62.552C48.5524 63.32 47.9044 63.96 47.0404 64.472C46.1924 64.968 45.2004 65.216 44.0644 65.216C42.8964 65.216 41.8404 64.928 40.8964 64.352C39.9524 63.776 39.2084 62.968 38.6644 61.928C38.1204 60.888 37.8484 59.704 37.8484 58.376ZM48.9844 58.4C48.9844 57.408 48.7844 56.544 48.3844 55.808C47.9844 55.072 47.4404 54.512 46.7524 54.128C46.0804 53.728 45.3364 53.528 44.5204 53.528C43.7044 53.528 42.9604 53.72 42.2884 54.104C41.6164 54.488 41.0804 55.048 40.6804 55.784C40.2804 56.52 40.0804 57.384 40.0804 58.376C40.0804 59.384 40.2804 60.264 40.6804 61.016C41.0804 61.752 41.6164 62.32 42.2884 62.72C42.9604 63.104 43.7044 63.296 44.5204 63.296C45.3364 63.296 46.0804 63.104 46.7524 62.72C47.4404 62.32 47.9844 61.752 48.3844 61.016C48.7844 60.264 48.9844 59.392 48.9844 58.4ZM57.0672 53.984C57.4512 53.232 57.9952 52.648 58.6992 52.232C59.4192 51.816 60.2912 51.608 61.3152 51.608V53.864H60.7392C58.2912 53.864 57.0672 55.192 57.0672 57.848V65H54.8832V51.848H57.0672V53.984ZM86.0507 51.608C87.0747 51.608 87.9867 51.824 88.7867 52.256C89.5867 52.672 90.2187 53.304 90.6827 54.152C91.1467 55 91.3787 56.032 91.3787 57.248V65H89.2187V57.56C89.2187 56.248 88.8907 55.248 88.2347 54.56C87.5947 53.856 86.7227 53.504 85.6187 53.504C84.4827 53.504 83.5787 53.872 82.9067 54.608C82.2347 55.328 81.8987 56.376 81.8987 57.752V65H79.7387V57.56C79.7387 56.248 79.4107 55.248 78.7547 54.56C78.1147 53.856 77.2427 53.504 76.1387 53.504C75.0027 53.504 74.0987 53.872 73.4267 54.608C72.7547 55.328 72.4187 56.376 72.4187 57.752V65H70.2347V51.848H72.4187V53.744C72.8507 53.056 73.4267 52.528 74.1467 52.16C74.8827 51.792 75.6907 51.608 76.5707 51.608C77.6747 51.608 78.6507 51.856 79.4987 52.352C80.3467 52.848 80.9787 53.576 81.3947 54.536C81.7627 53.608 82.3707 52.888 83.2187 52.376C84.0667 51.864 85.0107 51.608 86.0507 51.608ZM100.697 65.216C99.4653 65.216 98.3453 64.936 97.3373 64.376C96.3453 63.816 95.5613 63.024 94.9853 62C94.4253 60.96 94.1453 59.76 94.1453 58.4C94.1453 57.056 94.4333 55.872 95.0093 54.848C95.6013 53.808 96.4013 53.016 97.4093 52.472C98.4173 51.912 99.5453 51.632 100.793 51.632C102.041 51.632 103.169 51.912 104.177 52.472C105.185 53.016 105.977 53.8 106.553 54.824C107.145 55.848 107.441 57.04 107.441 58.4C107.441 59.76 107.137 60.96 106.529 62C105.937 63.024 105.129 63.816 104.105 64.376C103.081 64.936 101.945 65.216 100.697 65.216ZM100.697 63.296C101.481 63.296 102.217 63.112 102.905 62.744C103.593 62.376 104.145 61.824 104.561 61.088C104.993 60.352 105.209 59.456 105.209 58.4C105.209 57.344 105.001 56.448 104.585 55.712C104.169 54.976 103.625 54.432 102.953 54.08C102.281 53.712 101.553 53.528 100.769 53.528C99.9693 53.528 99.2333 53.712 98.5613 54.08C97.9053 54.432 97.3773 54.976 96.9773 55.712C96.5773 56.448 96.3773 57.344 96.3773 58.4C96.3773 59.472 96.5693 60.376 96.9533 61.112C97.3533 61.848 97.8813 62.4 98.5373 62.768C99.1933 63.12 99.9133 63.296 100.697 63.296ZM112.497 47.24V65H110.313V47.24H112.497ZM118.403 47.24V65H116.219V47.24H118.403ZM133.453 51.848L125.533 71.192H123.277L125.869 64.856L120.565 51.848H122.989L127.117 62.504L131.197 51.848H133.453ZM136.345 65.144C135.929 65.144 135.577 65 135.289 64.712C135.001 64.424 134.857 64.072 134.857 63.656C134.857 63.24 135.001 62.888 135.289 62.6C135.577 62.312 135.929 62.168 136.345 62.168C136.745 62.168 137.081 62.312 137.353 62.6C137.641 62.888 137.785 63.24 137.785 63.656C137.785 64.072 137.641 64.424 137.353 64.712C137.081 65 136.745 65.144 136.345 65.144Z" fill="#2E82E5"/>
</g>
<rect x="-69" y="31" width="218" height="48" stroke="#2E82E5" stroke-width="2"/>
<rect x="150" y="31" width="218" height="48" fill="#2E82E5"/>
<line x1="171" y1="55.6" x2="207" y2="55.6" stroke="white" stroke-width="4" stroke-linecap="round"/>
<line x1="178.668" y1="71.9089" x2="196.668" y2="40.732" stroke="white" stroke-width="4" stroke-linecap="round"/>
<line x1="180.532" y1="40.7321" x2="198.532" y2="71.909" stroke="white" stroke-width="4" stroke-linecap="round"/>
<line x1="221" y1="55.6" x2="257" y2="55.6" stroke="white" stroke-width="4" stroke-linecap="round"/>
<line x1="228.668" y1="71.9089" x2="246.668" y2="40.732" stroke="white" stroke-width="4" stroke-linecap="round"/>
<line x1="230.532" y1="40.7321" x2="248.532" y2="71.909" stroke="white" stroke-width="4" stroke-linecap="round"/>
<line x1="271" y1="55.6" x2="307" y2="55.6" stroke="white" stroke-width="4" stroke-linecap="round"/>
<line x1="278.668" y1="71.9089" x2="296.668" y2="40.732" stroke="white" stroke-width="4" stroke-linecap="round"/>
<line x1="280.532" y1="40.7321" x2="298.532" y2="71.909" stroke="white" stroke-width="4" stroke-linecap="round"/>
<rect x="150" y="31" width="218" height="48" stroke="#2E82E5" stroke-width="2"/>
<g clip-path="url(#clip2_430_11680)">
<path d="M-59.7492 102.272C-59.3172 101.52 -58.6772 100.896 -57.8292 100.4C-56.9652 99.888 -55.9652 99.632 -54.8292 99.632C-53.6612 99.632 -52.6052 99.912 -51.6613 100.472C-50.7013 101.032 -49.9492 101.824 -49.4052 102.848C-48.8612 103.856 -48.5892 105.032 -48.5892 106.376C-48.5892 107.704 -48.8612 108.888 -49.4052 109.928C-49.9492 110.968 -50.7013 111.776 -51.6613 112.352C-52.6052 112.928 -53.6612 113.216 -54.8292 113.216C-55.9492 113.216 -56.9412 112.968 -57.8052 112.472C-58.6532 111.96 -59.3012 111.328 -59.7492 110.576V119.24H-61.9332V99.848H-59.7492V102.272ZM-50.8212 106.376C-50.8212 105.384 -51.0212 104.52 -51.4212 103.784C-51.8212 103.048 -52.3652 102.488 -53.0532 102.104C-53.7252 101.72 -54.4692 101.528 -55.2852 101.528C-56.0852 101.528 -56.8292 101.728 -57.5172 102.128C-58.1892 102.512 -58.7332 103.08 -59.1492 103.832C-59.5492 104.568 -59.7492 105.424 -59.7492 106.4C-59.7492 107.392 -59.5492 108.264 -59.1492 109.016C-58.7332 109.752 -58.1892 110.32 -57.5172 110.72C-56.8292 111.104 -56.0852 111.296 -55.2852 111.296C-54.4692 111.296 -53.7252 111.104 -53.0532 110.72C-52.3652 110.32 -51.8212 109.752 -51.4212 109.016C-51.0212 108.264 -50.8212 107.384 -50.8212 106.376ZM-43.5305 101.984C-43.1465 101.232 -42.6025 100.648 -41.8985 100.232C-41.1785 99.816 -40.3065 99.608 -39.2825 99.608V101.864H-39.8585C-42.3065 101.864 -43.5305 103.192 -43.5305 105.848V113H-45.7145V99.848H-43.5305V101.984ZM-31.0254 113.216C-32.2574 113.216 -33.3774 112.936 -34.3854 112.376C-35.3774 111.816 -36.1614 111.024 -36.7374 110C-37.2974 108.96 -37.5774 107.76 -37.5774 106.4C-37.5774 105.056 -37.2894 103.872 -36.7134 102.848C-36.1214 101.808 -35.3214 101.016 -34.3134 100.472C-33.3054 99.912 -32.1774 99.632 -30.9294 99.632C-29.6814 99.632 -28.5534 99.912 -27.5454 100.472C-26.5374 101.016 -25.7454 101.8 -25.1694 102.824C-24.5774 103.848 -24.2814 105.04 -24.2814 106.4C-24.2814 107.76 -24.5854 108.96 -25.1934 110C-25.7854 111.024 -26.5934 111.816 -27.6174 112.376C-28.6414 112.936 -29.7774 113.216 -31.0254 113.216ZM-31.0254 111.296C-30.2414 111.296 -29.5054 111.112 -28.8174 110.744C-28.1294 110.376 -27.5774 109.824 -27.1614 109.088C-26.7294 108.352 -26.5134 107.456 -26.5134 106.4C-26.5134 105.344 -26.7214 104.448 -27.1374 103.712C-27.5534 102.976 -28.0974 102.432 -28.7694 102.08C-29.4414 101.712 -30.1694 101.528 -30.9534 101.528C-31.7534 101.528 -32.4894 101.712 -33.1614 102.08C-33.8174 102.432 -34.3454 102.976 -34.7454 103.712C-35.1454 104.448 -35.3454 105.344 -35.3454 106.4C-35.3454 107.472 -35.1534 108.376 -34.7694 109.112C-34.3694 109.848 -33.8414 110.4 -33.1854 110.768C-32.5294 111.12 -31.8094 111.296 -31.0254 111.296ZM-18.7458 101.648V109.4C-18.7458 110.04 -18.6098 110.496 -18.3378 110.768C-18.0658 111.024 -17.5938 111.152 -16.9218 111.152H-15.3138V113H-17.2818C-18.4978 113 -19.4098 112.72 -20.0178 112.16C-20.6258 111.6 -20.9298 110.68 -20.9298 109.4V101.648H-22.6338V99.848H-20.9298V96.536H-18.7458V99.848H-15.3138V101.648H-18.7458ZM-0.667624 105.92C-0.667624 106.336 -0.691625 106.776 -0.739625 107.24H-11.2516C-11.1716 108.536 -10.7316 109.552 -9.93162 110.288C-9.11562 111.008 -8.13162 111.368 -6.97962 111.368C-6.03562 111.368 -5.25162 111.152 -4.62762 110.72C-3.98762 110.272 -3.53962 109.68 -3.28362 108.944H-0.931624C-1.28362 110.208 -1.98762 111.24 -3.04362 112.04C-4.09962 112.824 -5.41162 113.216 -6.97962 113.216C-8.22762 113.216 -9.34762 112.936 -10.3396 112.376C-11.3156 111.816 -12.0836 111.024 -12.6436 110C-13.2036 108.96 -13.4836 107.76 -13.4836 106.4C-13.4836 105.04 -13.2116 103.848 -12.6676 102.824C-12.1236 101.8 -11.3636 101.016 -10.3876 100.472C-9.39562 99.912 -8.25962 99.632 -6.97962 99.632C-5.73162 99.632 -4.62762 99.904 -3.66762 100.448C-2.70762 100.992 -1.97162 101.744 -1.45962 102.704C-0.931624 103.648 -0.667624 104.72 -0.667624 105.92ZM-2.92362 105.464C-2.92362 104.632 -3.10762 103.92 -3.47562 103.328C-3.84362 102.72 -4.34762 102.264 -4.98762 101.96C-5.61162 101.64 -6.30762 101.48 -7.07562 101.48C-8.17962 101.48 -9.12362 101.832 -9.90762 102.536C-10.6756 103.24 -11.1156 104.216 -11.2276 105.464H-2.92362ZM1.39919 106.4C1.39919 105.04 1.67119 103.856 2.21519 102.848C2.75919 101.824 3.51119 101.032 4.47119 100.472C5.44719 99.912 6.55919 99.632 7.80719 99.632C9.42319 99.632 10.7512 100.024 11.7912 100.808C12.8472 101.592 13.5432 102.68 13.8792 104.072H11.5272C11.3032 103.272 10.8632 102.64 10.2072 102.176C9.56719 101.712 8.76719 101.48 7.80719 101.48C6.55919 101.48 5.55119 101.912 4.78319 102.776C4.01519 103.624 3.63119 104.832 3.63119 106.4C3.63119 107.984 4.01519 109.208 4.78319 110.072C5.55119 110.936 6.55919 111.368 7.80719 111.368C8.76719 111.368 9.56719 111.144 10.2072 110.696C10.8472 110.248 11.2872 109.608 11.5272 108.776H13.8792C13.5272 110.12 12.8232 111.2 11.7672 112.016C10.7112 112.816 9.39119 113.216 7.80719 113.216C6.55919 113.216 5.44719 112.936 4.47119 112.376C3.51119 111.816 2.75919 111.024 2.21519 110C1.67119 108.976 1.39919 107.776 1.39919 106.4ZM19.4573 101.648V109.4C19.4573 110.04 19.5933 110.496 19.8653 110.768C20.1373 111.024 20.6093 111.152 21.2813 111.152H22.8893V113H20.9213C19.7053 113 18.7933 112.72 18.1853 112.16C17.5773 111.6 17.2733 110.68 17.2733 109.4V101.648H15.5693V99.848H17.2733V96.536H19.4573V99.848H22.8893V101.648H19.4573ZM34.5979 101.648V109.4C34.5979 110.04 34.7339 110.496 35.0059 110.768C35.2779 111.024 35.7499 111.152 36.4219 111.152H38.0299V113H36.0619C34.8459 113 33.9339 112.72 33.3259 112.16C32.7179 111.6 32.4139 110.68 32.4139 109.4V101.648H30.7099V99.848H32.4139V96.536H34.5979V99.848H38.0299V101.648H34.5979ZM47.2041 99.608C48.1961 99.608 49.0921 99.824 49.8921 100.256C50.6921 100.672 51.3161 101.304 51.7641 102.152C52.2281 103 52.4601 104.032 52.4601 105.248V113H50.3001V105.56C50.3001 104.248 49.9721 103.248 49.3161 102.56C48.6601 101.856 47.7641 101.504 46.6281 101.504C45.4761 101.504 44.5561 101.864 43.8681 102.584C43.1961 103.304 42.8601 104.352 42.8601 105.728V113H40.6761V95.24H42.8601V101.72C43.2921 101.048 43.8841 100.528 44.6361 100.16C45.4041 99.792 46.2601 99.608 47.2041 99.608ZM57.1557 97.712C56.7397 97.712 56.3877 97.568 56.0997 97.28C55.8117 96.992 55.6677 96.64 55.6677 96.224C55.6677 95.808 55.8117 95.456 56.0997 95.168C56.3877 94.88 56.7397 94.736 57.1557 94.736C57.5557 94.736 57.8917 94.88 58.1637 95.168C58.4517 95.456 58.5957 95.808 58.5957 96.224C58.5957 96.64 58.4517 96.992 58.1637 97.28C57.8917 97.568 57.5557 97.712 57.1557 97.712ZM58.2117 99.848V113H56.0277V99.848H58.2117ZM66.5899 113.216C65.5819 113.216 64.6779 113.048 63.8779 112.712C63.0779 112.36 62.4459 111.88 61.9819 111.272C61.5179 110.648 61.2619 109.936 61.2139 109.136H63.4699C63.5339 109.792 63.8379 110.328 64.3819 110.744C64.9419 111.16 65.6699 111.368 66.5659 111.368C67.3979 111.368 68.0539 111.184 68.5339 110.816C69.0139 110.448 69.2539 109.984 69.2539 109.424C69.2539 108.848 68.9979 108.424 68.4859 108.152C67.9739 107.864 67.1819 107.584 66.1099 107.312C65.1339 107.056 64.3339 106.8 63.7099 106.544C63.1019 106.272 62.5739 105.88 62.1259 105.368C61.6939 104.84 61.4779 104.152 61.4779 103.304C61.4779 102.632 61.6779 102.016 62.0779 101.456C62.4779 100.896 63.0459 100.456 63.7819 100.136C64.5179 99.8 65.3579 99.632 66.3019 99.632C67.7579 99.632 68.9339 100 69.8299 100.736C70.7259 101.472 71.2059 102.48 71.2699 103.76H69.0859C69.0379 103.072 68.7579 102.52 68.2459 102.104C67.7499 101.688 67.0779 101.48 66.2299 101.48C65.4459 101.48 64.8219 101.648 64.3579 101.984C63.8939 102.32 63.6619 102.76 63.6619 103.304C63.6619 103.736 63.7979 104.096 64.0699 104.384C64.3579 104.656 64.7099 104.88 65.1259 105.056C65.5579 105.216 66.1499 105.4 66.9019 105.608C67.8459 105.864 68.6139 106.12 69.2059 106.376C69.7979 106.616 70.3019 106.984 70.7179 107.48C71.1499 107.976 71.3739 108.624 71.3899 109.424C71.3899 110.144 71.1899 110.792 70.7899 111.368C70.3899 111.944 69.8219 112.4 69.0859 112.736C68.3659 113.056 67.5339 113.216 66.5899 113.216ZM96.6874 99.608C97.7114 99.608 98.6234 99.824 99.4234 100.256C100.223 100.672 100.855 101.304 101.319 102.152C101.783 103 102.015 104.032 102.015 105.248V113H99.8554V105.56C99.8554 104.248 99.5274 103.248 98.8714 102.56C98.2314 101.856 97.3594 101.504 96.2554 101.504C95.1194 101.504 94.2154 101.872 93.5434 102.608C92.8714 103.328 92.5354 104.376 92.5354 105.752V113H90.3754V105.56C90.3754 104.248 90.0474 103.248 89.3914 102.56C88.7514 101.856 87.8794 101.504 86.7754 101.504C85.6394 101.504 84.7354 101.872 84.0634 102.608C83.3914 103.328 83.0554 104.376 83.0554 105.752V113H80.8714V99.848H83.0554V101.744C83.4874 101.056 84.0634 100.528 84.7834 100.16C85.5194 99.792 86.3274 99.608 87.2074 99.608C88.3114 99.608 89.2874 99.856 90.1354 100.352C90.9834 100.848 91.6154 101.576 92.0314 102.536C92.3994 101.608 93.0074 100.888 93.8554 100.376C94.7034 99.864 95.6474 99.608 96.6874 99.608ZM104.782 106.376C104.782 105.032 105.054 103.856 105.598 102.848C106.142 101.824 106.886 101.032 107.83 100.472C108.79 99.912 109.854 99.632 111.022 99.632C112.174 99.632 113.174 99.88 114.022 100.376C114.87 100.872 115.502 101.496 115.918 102.248V99.848H118.126V113H115.918V110.552C115.486 111.32 114.838 111.96 113.974 112.472C113.126 112.968 112.134 113.216 110.998 113.216C109.83 113.216 108.774 112.928 107.83 112.352C106.886 111.776 106.142 110.968 105.598 109.928C105.054 108.888 104.782 107.704 104.782 106.376ZM115.918 106.4C115.918 105.408 115.718 104.544 115.318 103.808C114.918 103.072 114.374 102.512 113.686 102.128C113.014 101.728 112.27 101.528 111.454 101.528C110.638 101.528 109.894 101.72 109.222 102.104C108.55 102.488 108.014 103.048 107.614 103.784C107.214 104.52 107.014 105.384 107.014 106.376C107.014 107.384 107.214 108.264 107.614 109.016C108.014 109.752 108.55 110.32 109.222 110.72C109.894 111.104 110.638 111.296 111.454 111.296C112.27 111.296 113.014 111.104 113.686 110.72C114.374 110.32 114.918 109.752 115.318 109.016C115.718 108.264 115.918 107.392 115.918 106.4ZM122.945 97.712C122.529 97.712 122.177 97.568 121.889 97.28C121.601 96.992 121.457 96.64 121.457 96.224C121.457 95.808 121.601 95.456 121.889 95.168C122.177 94.88 122.529 94.736 122.945 94.736C123.345 94.736 123.681 94.88 123.953 95.168C124.241 95.456 124.385 95.808 124.385 96.224C124.385 96.64 124.241 96.992 123.953 97.28C123.681 97.568 123.345 97.712 122.945 97.712ZM124.001 99.848V113H121.817V99.848H124.001ZM129.907 95.24V113H127.723V95.24H129.907Z" fill="#2E82E5"/>
</g>
<rect x="-69" y="79" width="218" height="48" stroke="#2E82E5" stroke-width="2"/>
<rect x="150" y="79" width="218" height="48" fill="#2E82E5"/>
<line x1="171" y1="103.6" x2="207" y2="103.6" stroke="white" stroke-width="4" stroke-linecap="round"/>
<line x1="178.668" y1="119.909" x2="196.668" y2="88.732" stroke="white" stroke-width="4" stroke-linecap="round"/>
<line x1="180.532" y1="88.7321" x2="198.532" y2="119.909" stroke="white" stroke-width="4" stroke-linecap="round"/>
<line x1="221" y1="103.6" x2="257" y2="103.6" stroke="white" stroke-width="4" stroke-linecap="round"/>
<line x1="228.668" y1="119.909" x2="246.668" y2="88.732" stroke="white" stroke-width="4" stroke-linecap="round"/>
<line x1="230.532" y1="88.7321" x2="248.532" y2="119.909" stroke="white" stroke-width="4" stroke-linecap="round"/>
<line x1="271" y1="103.6" x2="307" y2="103.6" stroke="white" stroke-width="4" stroke-linecap="round"/>
<line x1="278.668" y1="119.909" x2="296.668" y2="88.732" stroke="white" stroke-width="4" stroke-linecap="round"/>
<line x1="280.532" y1="88.7321" x2="298.532" y2="119.909" stroke="white" stroke-width="4" stroke-linecap="round"/>
<rect x="150" y="79" width="218" height="48" stroke="#2E82E5" stroke-width="2"/>
<rect x="125" y="75" width="23" height="8" fill="#2E82E5"/>
<rect y="75" width="125" height="8" fill="white"/>
<path d="M148 83V75H161.736V70.5C161.736 69.5 161.547 69.0251 162.122 68.4393C162.697 67.8536 163.628 67.8536 164.203 68.4393L173.569 77.9853C174.144 78.5711 174.144 79.5208 173.569 80.1066L164.203 89.6525C163.628 90.2383 162.697 90.2383 162.122 89.6525C161.547 89.0667 161.736 88 161.736 87.5V83H148Z" fill="white"/>
</g>
<defs>
<clipPath id="clip0_430_11680">
<rect width="300" height="160" fill="white"/>
</clipPath>
<clipPath id="clip1_430_11680">
<rect x="-70" y="30" width="220" height="50" fill="white"/>
</clipPath>
<clipPath id="clip2_430_11680">
<rect x="-70" y="78" width="220" height="50" fill="white"/>
</clipPath>
</defs>
</svg>
