<svg width="300" height="160" viewBox="0 0 300 160" fill="none" xmlns="http://www.w3.org/2000/svg">
<g clip-path="url(#clip0_430_11708)">
<g filter="url(#filter0_d_430_11708)">
<path d="M-30 -80H285V117L245 157H-30V-80Z" fill="white"/>
</g>
<path d="M245 117H285L245 157V117Z" fill="#D7D6D6"/>
<path d="M58.1816 94.5742C57.2676 94.5977 56.5176 94.4336 55.9316 94.082C55.3223 93.7305 54.8535 93.2148 54.5254 92.5352C54.1738 91.8789 53.9512 91.0703 53.8574 90.1094C53.7637 89.1719 53.7637 88.1406 53.8574 87.0156C53.9746 86.1484 54.1855 85.2461 54.4902 84.3086C54.748 83.5117 55.1465 82.6328 55.6855 81.6719C56.2012 80.7109 56.9043 79.7734 57.7949 78.8594C57.9824 78.9062 58.1348 78.9648 58.252 79.0352C58.3691 79.082 58.4629 79.1406 58.5332 79.2109C58.6035 79.3047 58.6504 79.3867 58.6738 79.457C58.7207 79.7148 58.6504 80.0078 58.4629 80.3359C58.2754 80.6641 58.0879 81.0156 57.9004 81.3906C57.3848 82.4687 56.998 83.4883 56.7402 84.4492C56.4824 85.4102 56.3184 86.3008 56.248 87.1211C56.2012 87.8242 56.2129 88.457 56.2832 89.0195C56.3301 89.6055 56.4121 90.0977 56.5293 90.4961C56.6465 90.918 56.7754 91.2344 56.916 91.4453C57.0566 91.6797 57.1855 91.7969 57.3027 91.7969C57.4199 91.7969 57.5371 91.7148 57.6543 91.5508C57.7949 91.3867 57.9238 91.1875 58.041 90.9531C58.1816 90.7187 58.3457 90.3555 58.5332 89.8633C58.7207 89.3945 58.9199 88.8437 59.1309 88.2109C59.3418 87.5781 59.541 86.8984 59.7285 86.1719C59.9395 85.4219 60.127 84.6719 60.291 83.9219C60.6191 82.4219 60.9707 80.7344 61.3457 78.8594C61.7207 76.9609 62.2715 74.9805 62.998 72.918C63.2324 72.0508 63.5254 71.1016 63.877 70.0703C64.1582 69.1797 64.5098 68.1484 64.9316 66.9766C65.377 65.7812 65.8809 64.4922 66.4434 63.1094C66.4434 62.9922 66.5371 62.8867 66.7246 62.793C66.9355 62.6758 67.1699 62.5586 67.4277 62.4414C67.709 62.3242 68.0254 62.207 68.377 62.0898C68.8457 61.9258 69.209 61.832 69.4668 61.8086C69.748 61.7852 69.959 61.8203 70.0996 61.9141C70.2402 62.0078 70.334 62.1367 70.3809 62.3008C70.4277 62.4414 70.4512 62.6055 70.4512 62.793C70.498 63.5664 70.5215 64.293 70.5215 64.9727C70.5449 65.6523 70.5684 66.25 70.5918 66.7656C70.6152 67.375 70.627 67.9258 70.627 68.418C70.6504 69.0742 70.6152 69.9531 70.5215 71.0547C70.4277 72.1328 70.3223 73.2695 70.2051 74.4648C70.1113 75.6602 70.0176 76.832 69.9238 77.9805C69.8535 79.1055 69.8418 80.043 69.8887 80.793C69.8887 81.1914 69.9004 81.5664 69.9238 81.918C69.9707 82.2461 70.0176 82.5742 70.0645 82.9023C70.3691 82.0586 70.709 81.1797 71.084 80.2656C71.459 79.3281 71.834 78.4375 72.209 77.5937C72.584 76.7266 72.9355 75.9297 73.2637 75.2031C73.5918 74.4531 73.8496 73.832 74.0371 73.3398C74.3184 72.6836 74.6934 71.8516 75.1621 70.8437C75.6309 69.8359 76.0996 68.8281 76.5684 67.8203C77.0605 66.8125 77.5059 65.8867 77.9043 65.043C78.3262 64.1992 78.6309 63.6133 78.8184 63.2852C78.959 63.0508 79.1934 62.8398 79.5215 62.6523C79.873 62.4648 80.2363 62.3008 80.6113 62.1602C81.0098 62.0195 81.373 61.9258 81.7012 61.8789C82.0527 61.8086 82.2871 61.7969 82.4043 61.8437C82.709 61.9141 82.9199 62.0078 83.0371 62.125C83.1777 62.2422 83.2598 62.3242 83.2832 62.3711C83.3301 62.4648 83.3652 62.6289 83.3887 62.8633C83.4121 63.0742 83.4004 63.4141 83.3535 63.8828C83.3066 64.4453 83.166 65.3008 82.9316 66.4492C82.7207 67.5977 82.4512 68.9102 82.123 70.3867C81.8184 71.8398 81.4785 73.3984 81.1035 75.0625C80.752 76.7266 80.4121 78.3672 80.084 79.9844C79.7559 81.5781 79.4629 83.0781 79.2051 84.4844C78.9707 85.8906 78.8184 87.0742 78.748 88.0352C78.7012 89.1133 78.7715 90.0625 78.959 90.8828C79.0293 91.2344 79.1348 91.5742 79.2754 91.9023C79.416 92.2305 79.6035 92.5117 79.8379 92.7461C80.0723 93.0039 80.3535 93.1914 80.6816 93.3086C81.0098 93.4258 81.3965 93.4609 81.8418 93.4141C81.2559 93.8125 80.6816 94.1055 80.1191 94.293C79.5566 94.4805 79.0059 94.5742 78.4668 94.5742C77.8809 94.5977 77.3652 94.5039 76.9199 94.293C76.4746 94.1055 76.0996 93.8242 75.7949 93.4492C75.4902 93.0977 75.2676 92.6641 75.127 92.1484C74.9863 91.6562 74.9395 91.1055 74.9863 90.4961C75.0332 89.9336 75.1855 89.0078 75.4434 87.7187C75.7012 86.4297 76.0059 84.9766 76.3574 83.3594C76.7324 81.7187 77.1309 80.0195 77.5527 78.2617C77.998 76.4805 78.4082 74.8164 78.7832 73.2695C79.1816 71.6992 79.5215 70.3516 79.8027 69.2266C80.084 68.1016 80.2598 67.3633 80.3301 67.0117C80.377 66.7305 80.4121 66.4727 80.4355 66.2383C80.4824 65.9805 80.5293 65.7578 80.5762 65.5703C80.3418 66.0391 80.0488 66.6016 79.6973 67.2578C79.3691 67.9141 79.0176 68.6172 78.6426 69.3672C78.2676 70.1172 77.8809 70.9023 77.4824 71.7227C77.1074 72.5195 76.7441 73.293 76.3926 74.043C75.8066 75.2617 75.2324 76.5156 74.6699 77.8047C74.1074 79.0703 73.6035 80.2773 73.1582 81.4258C72.7129 82.5742 72.3379 83.6055 72.0332 84.5195C71.752 85.4336 71.5879 86.1367 71.541 86.6289V87.1211C71.541 87.2617 71.541 87.4258 71.541 87.6133C71.5645 87.8008 71.5996 87.9766 71.6465 88.1406L70.2402 89.2305C70.0293 89.3008 69.8418 89.3594 69.6777 89.4062C69.5371 89.4531 69.3965 89.4766 69.2559 89.4766C68.7168 89.4766 68.3066 89.1953 68.0254 88.6328C67.7441 88.1172 67.4863 87.1094 67.252 85.6094C67.0176 84.1094 66.9473 82.2695 67.041 80.0898C67.0879 79.0117 67.1582 77.9219 67.252 76.8203C67.3691 75.7187 67.4746 74.6641 67.5684 73.6562C67.6855 72.6484 67.791 71.7109 67.8848 70.8437C67.9785 69.9531 68.0254 69.1914 68.0254 68.5586C68.0488 68.0898 68.0371 67.668 67.9902 67.293C67.9434 66.8945 67.8965 66.5312 67.8496 66.2031C67.6387 66.7422 67.4043 67.4805 67.1465 68.418C66.8887 69.332 66.6191 70.3516 66.3379 71.4766C66.0566 72.6016 65.7637 73.7852 65.459 75.0273C65.1777 76.2695 64.8965 77.4648 64.6152 78.6133C64.3574 79.7617 64.1113 80.8281 63.877 81.8125C63.6426 82.7734 63.4551 83.5469 63.3145 84.1328C63.0801 85.0703 62.8457 86.1367 62.6113 87.332C62.377 88.5273 62.084 89.6523 61.7324 90.707C61.3809 91.7852 60.9238 92.6875 60.3613 93.4141C59.7988 94.1641 59.0723 94.5508 58.1816 94.5742ZM94.1816 82.4102C93.9473 83.3008 93.6309 84.1328 93.2324 84.9062C92.834 85.6797 92.3535 86.3477 91.791 86.9102C91.2519 87.4727 90.6309 87.9062 89.9277 88.2109C89.248 88.5391 88.498 88.7031 87.6777 88.7031C86.7168 88.7031 85.9551 88.4922 85.3926 88.0703C84.8535 87.6719 84.4434 87.168 84.1621 86.5586C83.9043 85.9492 83.752 85.2812 83.7051 84.5547C83.6348 83.8281 83.5996 83.1484 83.5996 82.5156C83.5996 82.0703 83.6582 81.5781 83.7754 81.0391C83.8691 80.5 84.0098 79.9492 84.1973 79.3867C84.3848 78.8242 84.6191 78.2617 84.9004 77.6992C85.2051 77.1367 85.5566 76.6211 85.9551 76.1523C86.0957 75.7539 86.3066 75.4023 86.5879 75.0977C86.8926 74.793 87.2324 74.5469 87.6074 74.3594C88.0059 74.1484 88.4277 73.9961 88.873 73.9023C89.3184 73.7852 89.7519 73.7266 90.1738 73.7266C90.2441 73.7266 90.3027 73.7383 90.3496 73.7617C90.4199 73.7852 90.4902 73.8086 90.5605 73.832C90.8652 73.8555 91.2402 73.9727 91.6855 74.1836C92.1543 74.3945 92.5996 74.7109 93.0215 75.1328C93.4668 75.5547 93.8418 76.0937 94.1465 76.75C94.4512 77.3828 94.6035 78.1562 94.6035 79.0703C94.6035 79.2578 94.5918 79.4922 94.5684 79.7734C94.5449 80.0312 94.5215 80.2539 94.498 80.4414C95.0371 80.2305 95.5996 79.9727 96.1855 79.668C96.7715 79.3633 97.334 79.0469 97.873 78.7187C98.4355 78.3672 98.9512 78.0156 99.4199 77.6641C99.8887 77.3125 100.264 76.9961 100.545 76.7148C100.779 76.5039 100.979 76.3867 101.143 76.3633C101.307 76.3398 101.424 76.3867 101.494 76.5039C101.564 76.6211 101.576 76.7852 101.529 76.9961C101.482 77.207 101.354 77.4414 101.143 77.6992C101.025 77.8398 100.721 78.1211 100.229 78.543C99.7598 78.9648 99.1973 79.4219 98.541 79.9141C97.8848 80.4062 97.1699 80.8867 96.3965 81.3555C95.623 81.8242 94.8848 82.1758 94.1816 82.4102ZM88.2402 77.0664C88.1699 77.2773 88.1348 77.5 88.1348 77.7344C88.1348 78.1094 88.1582 78.5078 88.2051 78.9297C88.2519 79.3281 88.3691 79.6914 88.5566 80.0195C88.7441 80.3477 89.0371 80.6289 89.4355 80.8633C89.8574 81.0742 90.4316 81.1797 91.1582 81.1797C91.2754 81.1797 91.3926 81.1797 91.5098 81.1797C91.6269 81.1562 91.7441 81.1328 91.8613 81.1094C91.9316 80.8047 91.9902 80.5352 92.0371 80.3008C92.1074 80.043 92.1426 79.8203 92.1426 79.6328C92.1894 79.1875 92.1894 78.7305 92.1426 78.2617C92.0957 77.793 92.0019 77.3711 91.8613 76.9961C91.7441 76.5977 91.5801 76.2812 91.3691 76.0469C91.1816 75.7891 90.9473 75.6602 90.666 75.6602C90.2207 75.6602 89.7871 75.7891 89.3652 76.0469C88.9668 76.2812 88.5918 76.6211 88.2402 77.0664ZM85.9902 83.2539C85.9902 83.6758 86.0137 84.0977 86.0605 84.5195C86.1074 84.918 86.2012 85.2812 86.3418 85.6094C86.4824 85.9141 86.6699 86.1719 86.9043 86.3828C87.1387 86.5703 87.4434 86.6641 87.8184 86.6641C88.2402 86.6641 88.6269 86.5703 88.9785 86.3828C89.3301 86.1719 89.6465 85.9141 89.9277 85.6094C90.209 85.2812 90.4551 84.918 90.666 84.5195C90.9004 84.0977 91.0996 83.6641 91.2637 83.2187C91.0996 83.2422 90.9355 83.2656 90.7715 83.2891C90.6309 83.2891 90.4668 83.2891 90.2793 83.2891C89.3887 83.2891 88.6152 83.0312 87.959 82.5156C87.3262 81.9766 86.834 81.2969 86.4824 80.4766C86.3418 80.9687 86.2246 81.4492 86.1309 81.918C86.0371 82.3867 85.9902 82.832 85.9902 83.2539ZM97.416 87.4375C98.4473 83.1016 99.2676 79.6211 99.8769 76.9961C100.51 74.3711 100.99 72.3672 101.318 70.9844C101.693 69.3437 101.951 68.207 102.092 67.5742C102.162 67.1289 102.221 66.6953 102.268 66.2734C102.314 65.8984 102.338 65.5117 102.338 65.1133C102.338 64.7148 102.303 64.3516 102.232 64.0234C102.42 63.9062 102.619 63.8125 102.83 63.7422C103.064 63.6719 103.287 63.6133 103.498 63.5664C103.756 63.4961 104.014 63.4375 104.271 63.3906C104.529 63.3437 104.764 63.3203 104.975 63.3203C105.162 63.3203 105.338 63.3437 105.502 63.3906C105.666 63.4141 105.771 63.4844 105.818 63.6016C105.959 63.7187 106.018 63.9531 105.994 64.3047C105.994 64.6562 105.971 65.0195 105.924 65.3945C105.83 65.8398 105.725 66.3203 105.607 66.8359C105.326 67.8437 104.939 69.2969 104.447 71.1953C104.025 72.8125 103.451 75.0156 102.725 77.8047C102.021 80.5937 101.131 84.1094 100.053 88.3516C99.9355 88.4687 99.7949 88.5508 99.6309 88.5977C99.4668 88.6445 99.3144 88.668 99.1738 88.668C99.0098 88.668 98.834 88.6562 98.6465 88.6328C98.4824 88.5859 98.3184 88.5156 98.1543 88.4219C98.0137 88.3281 97.873 88.1992 97.7324 88.0352C97.5918 87.8945 97.4863 87.6953 97.416 87.4375ZM105.291 87.4375C106.322 83.1016 107.143 79.6211 107.752 76.9961C108.385 74.3711 108.865 72.3672 109.193 70.9844C109.568 69.3437 109.826 68.207 109.967 67.5742C110.037 67.1289 110.096 66.6953 110.143 66.2734C110.189 65.8984 110.213 65.5117 110.213 65.1133C110.213 64.7148 110.178 64.3516 110.107 64.0234C110.295 63.9062 110.494 63.8125 110.705 63.7422C110.939 63.6719 111.162 63.6133 111.373 63.5664C111.631 63.4961 111.889 63.4375 112.146 63.3906C112.404 63.3437 112.639 63.3203 112.85 63.3203C113.037 63.3203 113.213 63.3437 113.377 63.3906C113.541 63.4141 113.646 63.4844 113.693 63.6016C113.834 63.7187 113.893 63.9531 113.869 64.3047C113.869 64.6562 113.846 65.0195 113.799 65.3945C113.705 65.8398 113.6 66.3203 113.482 66.8359C113.201 67.8437 112.814 69.2969 112.322 71.1953C111.9 72.8125 111.326 75.0156 110.6 77.8047C109.896 80.5937 109.006 84.1094 107.928 88.3516C107.811 88.4687 107.67 88.5508 107.506 88.5977C107.342 88.6445 107.189 88.668 107.049 88.668C106.885 88.668 106.709 88.6562 106.521 88.6328C106.357 88.5859 106.193 88.5156 106.029 88.4219C105.889 88.3281 105.748 88.1992 105.607 88.0352C105.467 87.8945 105.361 87.6953 105.291 87.4375ZM122.939 75.0625C123.244 74.8281 123.537 74.6523 123.818 74.5352C124.123 74.3945 124.393 74.3008 124.627 74.2539C124.885 74.1836 125.143 74.1602 125.4 74.1836C126.033 74.2305 126.42 74.4297 126.561 74.7812C126.725 75.1328 126.748 75.6953 126.631 76.4687C126.561 76.8672 126.42 77.3711 126.209 77.9805C125.998 78.5898 125.752 79.3398 125.471 80.2305C125.189 81.0977 124.885 82.0937 124.557 83.2187C124.252 84.3437 123.959 85.6094 123.678 87.0156C123.396 88.1641 123.092 89.4883 122.764 90.9883C122.482 92.3008 122.143 93.8828 121.744 95.7344C121.369 97.5859 120.959 99.707 120.514 102.098C120.396 102.684 120.139 103.023 119.74 103.117C119.365 103.211 118.967 103.164 118.545 102.977C118.381 102.883 118.229 102.777 118.088 102.66C117.971 102.543 117.842 102.402 117.701 102.238C117.561 102.098 117.443 101.898 117.35 101.641C117.889 99.6719 118.357 97.8789 118.756 96.2617C119.178 94.6445 119.553 93.2383 119.881 92.043C120.232 90.6602 120.561 89.418 120.865 88.3164C120.982 87.8242 121.088 87.3437 121.182 86.875C121.299 86.3828 121.416 85.9023 121.533 85.4336C121.229 85.9258 120.9 86.3945 120.549 86.8398C120.197 87.2852 119.811 87.6719 119.389 88C118.967 88.3281 118.51 88.5742 118.018 88.7383C117.549 88.9258 117.057 88.9844 116.541 88.9141C115.275 88.75 114.373 88.2812 113.834 87.5078C113.318 86.7344 113.096 85.7266 113.166 84.4844C113.189 83.9922 113.26 83.4531 113.377 82.8672C113.494 82.2812 113.623 81.7187 113.764 81.1797C113.904 80.6406 114.033 80.1602 114.15 79.7383C114.291 79.293 114.396 78.9766 114.467 78.7891C114.748 77.8984 114.947 77.1367 115.064 76.5039C115.205 75.8711 115.111 75.3437 114.783 74.9219C115.111 74.7109 115.416 74.5703 115.697 74.5C116.002 74.4062 116.271 74.3359 116.506 74.2891C116.764 74.2656 117.021 74.2656 117.279 74.2891C117.912 74.3828 118.275 74.6172 118.369 74.9922C118.486 75.3672 118.451 75.9297 118.264 76.6797C118.17 77.0781 118.018 77.5937 117.807 78.2266C117.596 78.8359 117.373 79.4687 117.139 80.125C116.904 80.7812 116.693 81.3906 116.506 81.9531C116.318 82.4922 116.213 82.8789 116.189 83.1133C115.979 84.168 115.967 84.9883 116.154 85.5742C116.342 86.1367 116.752 86.418 117.385 86.418C117.689 86.418 118.029 86.2891 118.404 86.0312C118.779 85.75 119.154 85.3867 119.529 84.9414C119.928 84.4961 120.314 83.9922 120.689 83.4297C121.064 82.8437 121.404 82.2578 121.709 81.6719C122.037 81.0859 122.318 80.5117 122.553 79.9492C122.811 79.3867 122.998 78.8828 123.115 78.4375C123.279 77.5703 123.385 76.8906 123.432 76.3984C123.479 75.9062 123.314 75.4609 122.939 75.0625ZM146.354 81.0039C146.025 81.4727 145.604 82.0586 145.088 82.7617C144.572 83.4414 144.033 84.1328 143.471 84.8359C142.932 85.5156 142.393 86.1484 141.854 86.7344C141.338 87.2969 140.904 87.6953 140.553 87.9297C140.318 88.0703 140.049 88.1875 139.744 88.2812C139.439 88.375 139.123 88.4336 138.795 88.457C138.49 88.4805 138.197 88.457 137.916 88.3867C137.635 88.3398 137.389 88.2461 137.178 88.1055C136.967 87.9414 136.791 87.707 136.65 87.4023C136.533 87.1445 136.416 86.8047 136.299 86.3828C136.205 85.9609 136.17 85.4336 136.193 84.8008C135.631 85.7383 135.01 86.4648 134.33 86.9805C133.65 87.4727 133.006 87.8359 132.396 88.0703C131.693 88.3281 130.99 88.4805 130.287 88.5273C129.959 88.5273 129.607 88.4102 129.232 88.1758C128.857 87.9648 128.541 87.625 128.283 87.1562C128.025 86.6641 127.861 86.043 127.791 85.293C127.721 84.5195 127.814 83.6055 128.072 82.5508C128.4 81.1211 128.916 79.8203 129.619 78.6484C130.346 77.4766 131.131 76.4805 131.975 75.6602C132.818 74.8164 133.65 74.1836 134.471 73.7617C135.291 73.3398 135.971 73.1523 136.51 73.1992C137.143 73.3164 137.658 73.5039 138.057 73.7617C138.385 73.9961 138.596 74.3477 138.689 74.8164C138.807 75.2617 138.619 75.8594 138.127 76.6094C138.455 76.5391 138.725 76.4922 138.936 76.4687C139.17 76.4453 139.346 76.4336 139.463 76.4336C139.604 76.4336 139.697 76.4453 139.744 76.4687C139.768 76.5156 139.779 76.6211 139.779 76.7852C139.779 76.9258 139.744 77.1953 139.674 77.5937C139.604 77.9922 139.498 78.5312 139.357 79.2109C139.217 79.8906 139.029 80.7695 138.795 81.8477C138.748 82.0586 138.701 82.2578 138.654 82.4453C138.631 82.6094 138.596 82.7852 138.549 82.9727C138.525 83.1367 138.49 83.3359 138.443 83.5703C138.396 83.8047 138.338 84.0977 138.268 84.4492C138.244 84.6602 138.232 84.8945 138.232 85.1523C138.256 85.3867 138.303 85.6094 138.373 85.8203C138.443 86.0312 138.549 86.207 138.689 86.3477C138.854 86.4648 139.076 86.5234 139.357 86.5234C139.592 86.5234 139.896 86.3828 140.271 86.1016C140.646 85.7969 141.045 85.4219 141.467 84.9766C141.889 84.5078 142.322 84.0039 142.768 83.4648C143.236 82.9023 143.67 82.3633 144.068 81.8477C144.467 81.332 144.818 80.875 145.123 80.4766C145.451 80.0781 145.686 79.7852 145.826 79.5977C146.014 79.3867 146.201 79.2695 146.389 79.2461C146.576 79.1992 146.717 79.2461 146.811 79.3867C146.904 79.5273 146.916 79.7383 146.846 80.0195C146.799 80.3008 146.635 80.6289 146.354 81.0039ZM136.053 82.5508C136.17 82.082 136.311 81.5312 136.475 80.8984C136.639 80.2656 136.779 79.6562 136.896 79.0703C137.014 78.4844 137.096 78.0039 137.143 77.6289C137.213 77.2305 137.201 77.043 137.107 77.0664C136.99 77.0898 136.861 77.125 136.721 77.1719C136.604 77.2187 136.451 77.2539 136.264 77.2773C136.076 77.3008 135.889 77.3359 135.701 77.3828C135.889 77.0078 135.994 76.7031 136.018 76.4687C136.064 76.2109 136.076 76.0117 136.053 75.8711C136.029 75.707 135.982 75.5781 135.912 75.4844C135.654 75.2734 135.197 75.4492 134.541 76.0117C133.908 76.5508 133.17 77.5586 132.326 79.0352C131.975 79.6445 131.693 80.3008 131.482 81.0039C131.271 81.6836 131.119 82.3281 131.025 82.9375C130.955 83.5469 130.943 84.0859 130.99 84.5547C131.037 85 131.131 85.293 131.271 85.4336C131.529 85.6914 131.822 85.8203 132.15 85.8203C132.479 85.7969 132.807 85.7031 133.135 85.5391C133.486 85.3516 133.826 85.1172 134.154 84.8359C134.506 84.5547 134.811 84.2617 135.068 83.957C135.35 83.6523 135.572 83.3711 135.736 83.1133C135.924 82.8555 136.029 82.668 136.053 82.5508ZM154.439 88.8789C153.9 88.8789 153.432 88.7734 153.033 88.5625C152.658 88.375 152.354 88.1172 152.119 87.7891C151.885 87.4609 151.732 87.0859 151.662 86.6641C151.592 86.2187 151.615 85.75 151.732 85.2578C151.803 84.9297 151.92 84.4961 152.084 83.957C152.248 83.3945 152.412 82.7969 152.576 82.1641C152.764 81.5078 152.928 80.8633 153.068 80.2305C153.232 79.5742 153.338 78.9883 153.385 78.4727C153.432 77.9336 153.408 77.5 153.314 77.1719C153.221 76.8203 153.021 76.6445 152.717 76.6445C152.342 76.6445 151.955 76.7734 151.557 77.0312C151.158 77.2656 150.748 77.5937 150.326 78.0156C149.928 78.4375 149.518 78.9297 149.096 79.4922C148.697 80.0312 148.299 80.5937 147.9 81.1797C147.689 81.9766 147.514 82.6797 147.373 83.2891C147.232 83.875 147.104 84.4141 146.986 84.9062C146.893 85.375 146.799 85.7969 146.705 86.1719C146.611 86.5234 146.529 86.8633 146.459 87.1914C146.389 87.4258 146.178 87.6602 145.826 87.8945C145.475 88.1055 145.1 88.2812 144.701 88.4219C144.303 88.5625 143.963 88.6328 143.682 88.6328C143.377 88.6328 143.248 88.5273 143.295 88.3164C143.318 88.1758 143.4 87.8594 143.541 87.3672C143.658 86.875 143.811 86.3008 143.998 85.6445C144.162 84.9648 144.338 84.25 144.525 83.5C144.713 82.75 144.889 82.0352 145.053 81.3555C145.17 80.8164 145.299 80.2187 145.439 79.5625C145.557 79 145.697 78.3437 145.861 77.5937C146.049 76.8437 146.26 76.0234 146.494 75.1328C146.658 74.9922 146.822 74.8867 146.986 74.8164C147.174 74.7227 147.361 74.6523 147.549 74.6055C147.736 74.5352 147.936 74.4883 148.146 74.4648C148.334 74.4648 148.521 74.4766 148.709 74.5C148.873 74.5234 149.037 74.5703 149.201 74.6406C149.389 74.6875 149.553 74.7695 149.693 74.8867C149.623 75.0508 149.541 75.2852 149.447 75.5898C149.354 75.8711 149.26 76.1758 149.166 76.5039C149.072 76.8789 148.955 77.2656 148.814 77.6641C149.119 77.2422 149.459 76.8203 149.834 76.3984C150.232 75.9531 150.654 75.5547 151.1 75.2031C151.568 74.8516 152.061 74.5703 152.576 74.3594C153.092 74.125 153.619 74.0078 154.158 74.0078C154.604 74.0078 155.002 74.1367 155.354 74.3945C155.705 74.6523 155.975 75.0156 156.162 75.4844C156.373 75.9297 156.49 76.4687 156.514 77.1016C156.561 77.7344 156.479 78.4258 156.268 79.1758L155.881 80.7227C155.764 81.2148 155.611 81.8008 155.424 82.4805C155.26 83.1367 155.049 83.8633 154.791 84.6602C154.65 85.1758 154.592 85.6211 154.615 85.9961C154.662 86.3711 154.896 86.5586 155.318 86.5586C155.74 86.5586 156.268 86.3008 156.9 85.7852C157.557 85.2695 158.213 84.6484 158.869 83.9219C159.525 83.1953 160.146 82.457 160.732 81.707C161.318 80.9336 161.764 80.3125 162.068 79.8437C162.279 79.5391 162.479 79.3398 162.666 79.2461C162.854 79.1523 162.994 79.1406 163.088 79.2109C163.205 79.2812 163.264 79.4453 163.264 79.7031C163.264 79.9375 163.17 80.2422 162.982 80.6172C162.818 80.9453 162.561 81.3789 162.209 81.918C161.881 82.457 161.482 83.0312 161.014 83.6406C160.545 84.25 160.041 84.8711 159.502 85.5039C158.963 86.1133 158.4 86.6758 157.814 87.1914C157.229 87.6836 156.643 88.082 156.057 88.3867C155.494 88.7148 154.955 88.8789 154.439 88.8789Z" fill="#575757"/>
<circle cx="167.5" cy="85.5" r="2.5" fill="#575757"/>
<g filter="url(#filter1_d_430_11708)">
<path d="M233.882 -27.6562C236.139 -26.3529 238.092 -25.1577 236.237 -17.2714C236.14 -16.8588 229.821 -12.5256 229.821 -12.5256C229.821 -12.5256 235.471 -14.5835 235.245 -13.8885C234.551 -11.7484 232.905 -7.70107 232.07 -5.3735C231.834 -4.71535 221.007 -1.67293 221.007 -1.67293C221.007 -1.67293 231.461 -3.11349 231.199 -2.37922C230.065 0.794468 228.722 4.15766 227.178 7.64666C226.241 9.76261 225.229 11.9248 224.145 14.1191L206.422 22.9349L222.892 16.4715C221.917 18.3049 219.728 22.5158 218.657 24.3709C217.047 27.1608 211.455 37.1936 207.199 42.2732C202.636 47.7206 199.919 50.6991 197.366 50.9337C197.435 51.3762 187.265 54.2763 187.265 54.2763L194.995 54.8667C190.524 58.5269 183.063 64.6374 181.213 63.5691C179.485 62.5717 176.124 61.604 176.238 56.1702C176.33 51.7478 183.594 29.7993 185.177 23.5878L187.565 28.5541C187.911 26.9523 186.73 20.425 186.73 20.425C187.807 18.5595 189.6 11.7512 192.856 6.02798C196.076 0.369284 200.759 -4.20623 201.94 -5.81315L203.263 -0.329202C203.263 -0.329202 204.416 -8.90786 205.419 -10.001C206.349 -11.0139 207.817 -12.3626 209.446 -13.8106L210.941 -11.9255L210.596 -14.4655C212.464 -17.7455 214.608 -18.9936 215.714 -19.3637L216.646 -16.7548C216.646 -16.7548 217.865 -20.4331 218.401 -20.8644C224.393 -27.8431 231.407 -29.0847 233.882 -27.6562Z" fill="#6E7DFF"/>
<path d="M214.547 -3.2087L227.438 -21.3538L226.634 -18.9401L216.156 -3.2087L208.915 8.05519L196.846 28.9738L189.605 42.6514L185.582 50.697L179.146 65.1792L173.615 79.6974C173.042 81.2022 171.823 82.3703 170.296 82.8795L176.732 65.9837L179.146 60.3518L183.169 51.5016L195.237 28.9738L207.306 8.05519L214.547 -3.2087Z" fill="white" stroke="#6E7DFF" stroke-width="0.2"/>
</g>
</g>
<defs>
<filter id="filter0_d_430_11708" x="-35" y="-85" width="325" height="247" filterUnits="userSpaceOnUse" color-interpolation-filters="sRGB">
<feFlood flood-opacity="0" result="BackgroundImageFix"/>
<feColorMatrix in="SourceAlpha" type="matrix" values="0 0 0 0 0 0 0 0 0 0 0 0 0 0 0 0 0 0 127 0" result="hardAlpha"/>
<feOffset/>
<feGaussianBlur stdDeviation="2.5"/>
<feComposite in2="hardAlpha" operator="out"/>
<feColorMatrix type="matrix" values="0 0 0 0 0.541667 0 0 0 0 0.541667 0 0 0 0 0.541667 0 0 0 1 0"/>
<feBlend mode="normal" in2="BackgroundImageFix" result="effect1_dropShadow_430_11708"/>
<feBlend mode="normal" in="SourceGraphic" in2="effect1_dropShadow_430_11708" result="shape"/>
</filter>
<filter id="filter1_d_430_11708" x="166.127" y="-30.1812" width="74.8495" height="119.222" filterUnits="userSpaceOnUse" color-interpolation-filters="sRGB">
<feFlood flood-opacity="0" result="BackgroundImageFix"/>
<feColorMatrix in="SourceAlpha" type="matrix" values="0 0 0 0 0 0 0 0 0 0 0 0 0 0 0 0 0 0 127 0" result="hardAlpha"/>
<feOffset dy="2"/>
<feGaussianBlur stdDeviation="2"/>
<feComposite in2="hardAlpha" operator="out"/>
<feColorMatrix type="matrix" values="0 0 0 0 0 0 0 0 0 0 0 0 0 0 0 0 0 0 0.3 0"/>
<feBlend mode="normal" in2="BackgroundImageFix" result="effect1_dropShadow_430_11708"/>
<feBlend mode="normal" in="SourceGraphic" in2="effect1_dropShadow_430_11708" result="shape"/>
</filter>
<clipPath id="clip0_430_11708">
<rect width="300" height="160" fill="white"/>
</clipPath>
</defs>
</svg>
