<svg width="100" height="100" viewBox="0 0 100 100" fill="none" xmlns="http://www.w3.org/2000/svg">
  <circle cx="50" cy="50" r="45" fill="#0069E5" />
  <path
    d="M83 72H84V71V46C84 33.2975 73.7025 23 61 23C48.2975 23 38 33.2975 38 46V46.2276L38.0985 46.4327L50.0985 71.4327L50.3708 72H51H61H62.5892L61.9015 70.5673L50.0022 45.777C50.121 39.8048 54.9994 35 61 35C67.0751 35 72 39.9249 72 46V71V72H73H83Z"
    fill="white" stroke="#0069E5" stroke-width="2" />
  <path
    d="M61.9015 46.4327L62 46.2276V46C62 33.2975 51.7025 23 39 23C26.2975 23 16 33.2975 16 46V71V72H17H27H28V71V46C28 39.9249 32.9249 35 39 35C45.0006 35 49.879 39.8048 49.9978 45.777L38.0985 70.5673L37.4108 72H39H49H49.6292L49.9015 71.4327L61.9015 46.4327Z"
    fill="white" stroke="#0069E5" stroke-width="2" />
  <path
    d="M50.0985 71.4327L50.3708 72H51H61H62.5892L61.9015 70.5673L49.9265 45.6193C49.925 45.6148 49.9234 45.61 49.9218 45.6048C49.9083 45.5633 49.8891 45.5015 49.8689 45.4266C49.8266 45.2702 49.7876 45.0863 49.7747 44.9221L49.7027 44H48.7778H39.0223H38.0661L38.0233 44.9553C38.0078 45.3017 38 45.65 38 46V46.2276L38.0985 46.4327L50.0985 71.4327ZM49.9398 45.6584C49.9399 45.6586 49.9399 45.6586 49.9398 45.6584L49.9398 45.6584Z"
    fill="white" stroke="#0069E5" stroke-width="2" />
  <path d="M39.48 47L39 46C39 44.9824 39.0691 43.9809 39.2028 43H48.5391C48.5 43 49 44.9641 49 46L49.48 47H39.48Z"
    fill="white" />
</svg>
