<svg width="16" height="16" viewBox="0 0 16 16" fill="none" xmlns="http://www.w3.org/2000/svg">
<g clip-path="url(#clip0_264_356)">
<path d="M16 8.04813C16.0003 6.51922 15.5625 5.02223 14.7385 3.73441C13.9144 2.44659 12.7385 1.42189 11.3501 0.781636C9.96173 0.14138 8.41893 -0.0876158 6.90442 0.121765C5.38991 0.331145 3.96712 0.970131 2.80451 1.96306C1.6419 2.956 0.788165 4.26129 0.344396 5.72438C-0.0993733 7.18748 -0.114591 8.7471 0.300544 10.2186C0.71568 11.6901 1.54378 13.0118 2.68679 14.0272C3.82981 15.0426 5.23986 15.7092 6.75 15.9481V10.3601H4.719V8.04813H6.75V6.28513C6.70627 5.87358 6.7536 5.45745 6.88863 5.06623C7.02366 4.675 7.24309 4.31827 7.53136 4.02131C7.81964 3.72436 8.1697 3.49444 8.55674 3.34786C8.94379 3.20128 9.35833 3.14163 9.771 3.17313C10.371 3.18101 10.9696 3.23316 11.562 3.32913V5.30013H10.554C10.3823 5.27768 10.2077 5.29412 10.0432 5.34825C9.87874 5.40237 9.72853 5.49279 9.6037 5.61282C9.47887 5.73284 9.38263 5.8794 9.3221 6.04165C9.26157 6.20389 9.23829 6.37768 9.254 6.55013V8.05013H11.473L11.118 10.3621H9.25V15.9531C11.1322 15.6554 12.8464 14.6955 14.0838 13.2463C15.3213 11.7971 16.0008 9.95377 16 8.04813Z" fill="#F3F4F8"/>
</g>
<defs>
<clipPath id="clip0_264_356">
<rect width="16" height="16" fill="white"/>
</clipPath>
</defs>
</svg>
